%TF.GenerationSoftware,KiCad,Pcbnew,9.0.7*%
%TF.CreationDate,2026-02-03T14:25:51+01:00*%
%TF.ProjectId,lokho2-base,6c6f6b68-6f32-42d6-9261-73652e6b6963,rev?*%
%TF.SameCoordinates,Original*%
%TF.FileFunction,Soldermask,Bot*%
%TF.FilePolarity,Negative*%
%FSLAX46Y46*%
G04 Gerber Fmt 4.6, Leading zero omitted, Abs format (unit mm)*
G04 Created by KiCad (PCBNEW 9.0.7) date 2026-02-03 14:25:51*
%MOMM*%
%LPD*%
G01*
G04 APERTURE LIST*
G04 Aperture macros list*
%AMRoundRect*
0 Rectangle with rounded corners*
0 $1 Rounding radius*
0 $2 $3 $4 $5 $6 $7 $8 $9 X,Y pos of 4 corners*
0 Add a 4 corners polygon primitive as box body*
4,1,4,$2,$3,$4,$5,$6,$7,$8,$9,$2,$3,0*
0 Add four circle primitives for the rounded corners*
1,1,$1+$1,$2,$3*
1,1,$1+$1,$4,$5*
1,1,$1+$1,$6,$7*
1,1,$1+$1,$8,$9*
0 Add four rect primitives between the rounded corners*
20,1,$1+$1,$2,$3,$4,$5,0*
20,1,$1+$1,$4,$5,$6,$7,0*
20,1,$1+$1,$6,$7,$8,$9,0*
20,1,$1+$1,$8,$9,$2,$3,0*%
G04 Aperture macros list end*
%ADD10RoundRect,0.575000X0.575000X-0.575000X0.575000X0.575000X-0.575000X0.575000X-0.575000X-0.575000X0*%
%ADD11C,2.300000*%
%ADD12C,1.600000*%
%ADD13RoundRect,0.250001X-0.949999X-0.949999X0.949999X-0.949999X0.949999X0.949999X-0.949999X0.949999X0*%
%ADD14C,2.400000*%
%ADD15C,2.000000*%
%ADD16R,1.800000X1.800000*%
%ADD17C,1.800000*%
%ADD18C,1.400000*%
%ADD19RoundRect,0.250000X-0.600000X-0.750000X0.600000X-0.750000X0.600000X0.750000X-0.600000X0.750000X0*%
%ADD20O,1.700000X2.000000*%
%ADD21R,1.700000X1.700000*%
%ADD22C,1.700000*%
%ADD23RoundRect,0.249999X0.850001X0.850001X-0.850001X0.850001X-0.850001X-0.850001X0.850001X-0.850001X0*%
%ADD24C,2.200000*%
%ADD25RoundRect,0.250000X0.550000X0.550000X-0.550000X0.550000X-0.550000X-0.550000X0.550000X-0.550000X0*%
%ADD26RoundRect,0.250000X1.350000X1.350000X-1.350000X1.350000X-1.350000X-1.350000X1.350000X-1.350000X0*%
%ADD27C,3.200000*%
%ADD28C,2.600000*%
%ADD29RoundRect,0.250000X-0.750000X0.750000X-0.750000X-0.750000X0.750000X-0.750000X0.750000X0.750000X0*%
%ADD30RoundRect,0.250000X-0.750000X-0.750000X0.750000X-0.750000X0.750000X0.750000X-0.750000X0.750000X0*%
%ADD31RoundRect,0.250000X0.600000X-0.600000X0.600000X0.600000X-0.600000X0.600000X-0.600000X-0.600000X0*%
%ADD32C,2.100000*%
%ADD33C,1.400000*%
G04 APERTURE END LIST*
D10*
%TO.C,F1*%
X105000000Y-105000000D03*
X105000000Y-100400000D03*
D11*
X105000000Y-89100000D03*
X105000000Y-84500000D03*
%TD*%
D12*
%TO.C,C1*%
X102500000Y-77500000D03*
X112500000Y-77500000D03*
%TD*%
D13*
%TO.C,J4*%
X175000000Y-145000000D03*
D14*
X178500000Y-145000000D03*
X182000000Y-145000000D03*
%TD*%
D15*
%TO.C,RV2*%
X111500000Y-115000000D03*
X110000000Y-125000000D03*
%TD*%
D16*
%TO.C,D4*%
X151000000Y-145000000D03*
D17*
X153540000Y-145000000D03*
%TD*%
D13*
%TO.C,J3*%
X162500000Y-145000000D03*
D14*
X166000000Y-145000000D03*
X169500000Y-145000000D03*
%TD*%
D16*
%TO.C,D3*%
X117500000Y-145000000D03*
D17*
X120040000Y-145000000D03*
%TD*%
D12*
%TO.C,F3*%
X150500000Y-75000000D03*
X155500000Y-75000000D03*
%TD*%
D18*
%TO.C,R1*%
X138810000Y-123000000D03*
X131190000Y-123000000D03*
%TD*%
D16*
%TO.C,D6*%
X119000000Y-53000000D03*
D17*
X116460000Y-53000000D03*
%TD*%
D19*
%TO.C,PS1*%
X122452500Y-101000000D03*
D20*
X122452500Y-107000000D03*
X156052500Y-95000000D03*
X156052500Y-113000000D03*
%TD*%
D21*
%TO.C,J5*%
X161615000Y-71225000D03*
D22*
X161615000Y-73765000D03*
%TD*%
D12*
%TO.C,F4*%
X187500000Y-82000000D03*
X182500000Y-82000000D03*
%TD*%
D18*
%TO.C,R3*%
X158000000Y-133000000D03*
X158000000Y-140620000D03*
%TD*%
%TO.C,R4*%
X139190000Y-75000000D03*
X146810000Y-75000000D03*
%TD*%
D23*
%TO.C,D2*%
X137080000Y-119000000D03*
D24*
X126920000Y-119000000D03*
%TD*%
D25*
%TO.C,C3*%
X166652651Y-82000000D03*
D12*
X163152651Y-82000000D03*
%TD*%
D26*
%TO.C,D1*%
X187620000Y-105000000D03*
D27*
X172380000Y-105000000D03*
%TD*%
D12*
%TO.C,RV3*%
X153650000Y-80500000D03*
X152350000Y-85500000D03*
%TD*%
D28*
%TO.C,L2*%
X185000000Y-96500000D03*
X185000000Y-91500000D03*
%TD*%
D10*
%TO.C,F2*%
X105000000Y-130000000D03*
X105000000Y-125400000D03*
D11*
X105000000Y-114100000D03*
X105000000Y-109500000D03*
%TD*%
D13*
%TO.C,J1*%
X124000000Y-145000000D03*
D14*
X127500000Y-145000000D03*
X131000000Y-145000000D03*
%TD*%
D13*
%TO.C,J2*%
X136500000Y-145000000D03*
D14*
X140000000Y-145000000D03*
X143500000Y-145000000D03*
%TD*%
D18*
%TO.C,R2*%
X153000000Y-133000000D03*
X153000000Y-140620000D03*
%TD*%
D29*
%TO.C,C4*%
X173000000Y-91632323D03*
D15*
X173000000Y-96632323D03*
%TD*%
D30*
%TO.C,C2*%
X140632323Y-83000000D03*
D15*
X145632323Y-83000000D03*
%TD*%
D31*
%TO.C,SPI1*%
X161110000Y-58540000D03*
D22*
X161110000Y-56000000D03*
X163650000Y-58540000D03*
X163650000Y-56000000D03*
X166190000Y-58540000D03*
X166190000Y-56000000D03*
X168730000Y-58540000D03*
X168730000Y-56000000D03*
X171270000Y-58540000D03*
X171270000Y-56000000D03*
X173810000Y-58540000D03*
X173810000Y-56000000D03*
X176350000Y-58540000D03*
X176350000Y-56000000D03*
X178890000Y-58540000D03*
X178890000Y-56000000D03*
%TD*%
D16*
%TO.C,D5*%
X156000000Y-145000000D03*
D17*
X158540000Y-145000000D03*
%TD*%
D32*
%TO.C,L1*%
X120500000Y-81500000D03*
X129500000Y-81500000D03*
X129500000Y-73500000D03*
X120500000Y-73500000D03*
%TD*%
D15*
%TO.C,RV1*%
X111500000Y-90000000D03*
X110000000Y-100000000D03*
%TD*%
D33*
X110600000Y-89100000D02*
X111500000Y-90000000D01*
X105000000Y-89100000D02*
X110600000Y-89100000D01*
X105000000Y-89100000D02*
X105000000Y-84500000D01*
X110600000Y-114100000D02*
X111500000Y-115000000D01*
X105000000Y-114100000D02*
X110600000Y-114100000D01*
X105000000Y-114100000D02*
X105000000Y-109500000D01*
X115000000Y-122500000D02*
X131000000Y-138500000D01*
X131000000Y-138500000D02*
X131000000Y-145000000D01*
X115000000Y-110000000D02*
X115000000Y-122500000D01*
X105000000Y-100400000D02*
X105000000Y-105000000D01*
X105000000Y-105000000D02*
X110000000Y-105000000D01*
X110000000Y-105000000D02*
X115000000Y-110000000D01*
X117500000Y-130000000D02*
X127500000Y-140000000D01*
X127500000Y-140000000D02*
X127500000Y-145000000D01*
X105000000Y-130000000D02*
X117500000Y-130000000D01*
X105000000Y-125400000D02*
X105000000Y-130000000D01*
X124000000Y-145000000D02*
X124000000Y-141500000D01*
X101201000Y-120799000D02*
X103000000Y-119000000D01*
X124000000Y-148000000D02*
X136500000Y-148000000D01*
X117500000Y-135000000D02*
X116799000Y-134299000D01*
X101201000Y-96799000D02*
X103000000Y-95000000D01*
X116799000Y-134299000D02*
X102500000Y-134299000D01*
X108000000Y-95000000D02*
X110000000Y-97000000D01*
X124000000Y-141500000D02*
X117500000Y-135000000D01*
X110000000Y-97000000D02*
X110000000Y-100000000D01*
X103000000Y-119000000D02*
X108000000Y-119000000D01*
X101201000Y-133000000D02*
X101201000Y-120799000D01*
X103000000Y-95000000D02*
X108000000Y-95000000D01*
X110000000Y-125000000D02*
X110000000Y-121000000D01*
X124000000Y-145000000D02*
X124000000Y-148000000D01*
X101201000Y-120799000D02*
X101201000Y-96799000D01*
X102500000Y-134299000D02*
X101201000Y-133000000D01*
X136500000Y-145000000D02*
X136500000Y-148000000D01*
X110000000Y-121000000D02*
X108000000Y-119000000D01*
M02*
