%TF.GenerationSoftware,KiCad,Pcbnew,9.0.7*%
%TF.CreationDate,2026-02-03T14:25:51+01:00*%
%TF.ProjectId,lokho2-base,6c6f6b68-6f32-42d6-9261-73652e6b6963,rev?*%
%TF.SameCoordinates,Original*%
%TF.FileFunction,Soldermask,Top*%
%TF.FilePolarity,Negative*%
%FSLAX46Y46*%
G04 Gerber Fmt 4.6, Leading zero omitted, Abs format (unit mm)*
G04 Created by KiCad (PCBNEW 9.0.7) date 2026-02-03 14:25:51*
%MOMM*%
%LPD*%
G01*
G04 APERTURE LIST*
G04 Aperture macros list*
%AMRoundRect*
0 Rectangle with rounded corners*
0 $1 Rounding radius*
0 $2 $3 $4 $5 $6 $7 $8 $9 X,Y pos of 4 corners*
0 Add a 4 corners polygon primitive as box body*
4,1,4,$2,$3,$4,$5,$6,$7,$8,$9,$2,$3,0*
0 Add four circle primitives for the rounded corners*
1,1,$1+$1,$2,$3*
1,1,$1+$1,$4,$5*
1,1,$1+$1,$6,$7*
1,1,$1+$1,$8,$9*
0 Add four rect primitives between the rounded corners*
20,1,$1+$1,$2,$3,$4,$5,0*
20,1,$1+$1,$4,$5,$6,$7,0*
20,1,$1+$1,$6,$7,$8,$9,0*
20,1,$1+$1,$8,$9,$2,$3,0*%
G04 Aperture macros list end*
%ADD10C,4.000000*%
%ADD11RoundRect,0.575000X0.575000X-0.575000X0.575000X0.575000X-0.575000X0.575000X-0.575000X-0.575000X0*%
%ADD12C,2.300000*%
%ADD13C,1.600000*%
%ADD14RoundRect,0.250001X-0.949999X-0.949999X0.949999X-0.949999X0.949999X0.949999X-0.949999X0.949999X0*%
%ADD15C,2.400000*%
%ADD16C,2.000000*%
%ADD17R,1.800000X1.800000*%
%ADD18C,1.800000*%
%ADD19C,1.400000*%
%ADD20RoundRect,0.250000X-0.600000X-0.750000X0.600000X-0.750000X0.600000X0.750000X-0.600000X0.750000X0*%
%ADD21O,1.700000X2.000000*%
%ADD22R,1.700000X1.700000*%
%ADD23C,1.700000*%
%ADD24RoundRect,0.250000X-0.300000X2.050000X-0.300000X-2.050000X0.300000X-2.050000X0.300000X2.050000X0*%
%ADD25RoundRect,0.250002X-5.149998X4.449998X-5.149998X-4.449998X5.149998X-4.449998X5.149998X4.449998X0*%
%ADD26RoundRect,0.249999X0.850001X0.850001X-0.850001X0.850001X-0.850001X-0.850001X0.850001X-0.850001X0*%
%ADD27C,2.200000*%
%ADD28RoundRect,0.250000X0.550000X0.550000X-0.550000X0.550000X-0.550000X-0.550000X0.550000X-0.550000X0*%
%ADD29RoundRect,0.250000X1.350000X1.350000X-1.350000X1.350000X-1.350000X-1.350000X1.350000X-1.350000X0*%
%ADD30C,3.200000*%
%ADD31C,2.600000*%
%ADD32RoundRect,0.250000X-0.750000X0.750000X-0.750000X-0.750000X0.750000X-0.750000X0.750000X0.750000X0*%
%ADD33RoundRect,0.250000X-0.750000X-0.750000X0.750000X-0.750000X0.750000X0.750000X-0.750000X0.750000X0*%
%ADD34RoundRect,0.250000X0.600000X-0.600000X0.600000X0.600000X-0.600000X0.600000X-0.600000X-0.600000X0*%
%ADD35C,2.100000*%
G04 APERTURE END LIST*
D10*
X113500000Y-60000000D02*
G75*
G02*
X106500000Y-60000000I-3500000J0D01*
G01*
X106500000Y-60000000D02*
G75*
G02*
X113500000Y-60000000I3500000J0D01*
G01*
X193500000Y-60000000D02*
G75*
G02*
X186500000Y-60000000I-3500000J0D01*
G01*
X186500000Y-60000000D02*
G75*
G02*
X193500000Y-60000000I3500000J0D01*
G01*
D11*
%TO.C,F1*%
X105000000Y-105000000D03*
X105000000Y-100400000D03*
D12*
X105000000Y-89100000D03*
X105000000Y-84500000D03*
%TD*%
D13*
%TO.C,C1*%
X102500000Y-77500000D03*
X112500000Y-77500000D03*
%TD*%
D14*
%TO.C,J4*%
X175000000Y-145000000D03*
D15*
X178500000Y-145000000D03*
X182000000Y-145000000D03*
%TD*%
D16*
%TO.C,RV2*%
X111500000Y-115000000D03*
X110000000Y-125000000D03*
%TD*%
D17*
%TO.C,D4*%
X151000000Y-145000000D03*
D18*
X153540000Y-145000000D03*
%TD*%
D14*
%TO.C,J3*%
X162500000Y-145000000D03*
D15*
X166000000Y-145000000D03*
X169500000Y-145000000D03*
%TD*%
D17*
%TO.C,D3*%
X117500000Y-145000000D03*
D18*
X120040000Y-145000000D03*
%TD*%
D13*
%TO.C,F3*%
X150500000Y-75000000D03*
X155500000Y-75000000D03*
%TD*%
D19*
%TO.C,R1*%
X138810000Y-123000000D03*
X131190000Y-123000000D03*
%TD*%
D17*
%TO.C,D6*%
X119000000Y-53000000D03*
D18*
X116460000Y-53000000D03*
%TD*%
D20*
%TO.C,PS1*%
X122452500Y-101000000D03*
D21*
X122452500Y-107000000D03*
X156052500Y-95000000D03*
X156052500Y-113000000D03*
%TD*%
D22*
%TO.C,J5*%
X161615000Y-71225000D03*
D23*
X161615000Y-73765000D03*
%TD*%
D13*
%TO.C,F4*%
X187500000Y-82000000D03*
X182500000Y-82000000D03*
%TD*%
D19*
%TO.C,R3*%
X158000000Y-133000000D03*
X158000000Y-140620000D03*
%TD*%
%TO.C,R4*%
X139190000Y-75000000D03*
X146810000Y-75000000D03*
%TD*%
D24*
%TO.C,U1*%
X183400000Y-112350000D03*
X181700000Y-112350000D03*
X180000000Y-112350000D03*
D25*
X180000000Y-121500000D03*
D24*
X178300000Y-112350000D03*
X176600000Y-112350000D03*
%TD*%
D26*
%TO.C,D2*%
X137080000Y-119000000D03*
D27*
X126920000Y-119000000D03*
%TD*%
D28*
%TO.C,C3*%
X166652651Y-82000000D03*
D13*
X163152651Y-82000000D03*
%TD*%
D29*
%TO.C,D1*%
X187620000Y-105000000D03*
D30*
X172380000Y-105000000D03*
%TD*%
D13*
%TO.C,RV3*%
X153650000Y-80500000D03*
X152350000Y-85500000D03*
%TD*%
D31*
%TO.C,L2*%
X185000000Y-96500000D03*
X185000000Y-91500000D03*
%TD*%
D11*
%TO.C,F2*%
X105000000Y-130000000D03*
X105000000Y-125400000D03*
D12*
X105000000Y-114100000D03*
X105000000Y-109500000D03*
%TD*%
D14*
%TO.C,J1*%
X124000000Y-145000000D03*
D15*
X127500000Y-145000000D03*
X131000000Y-145000000D03*
%TD*%
D14*
%TO.C,J2*%
X136500000Y-145000000D03*
D15*
X140000000Y-145000000D03*
X143500000Y-145000000D03*
%TD*%
D19*
%TO.C,R2*%
X153000000Y-133000000D03*
X153000000Y-140620000D03*
%TD*%
D32*
%TO.C,C4*%
X173000000Y-91632323D03*
D16*
X173000000Y-96632323D03*
%TD*%
D33*
%TO.C,C2*%
X140632323Y-83000000D03*
D16*
X145632323Y-83000000D03*
%TD*%
D34*
%TO.C,SPI1*%
X161110000Y-58540000D03*
D23*
X161110000Y-56000000D03*
X163650000Y-58540000D03*
X163650000Y-56000000D03*
X166190000Y-58540000D03*
X166190000Y-56000000D03*
X168730000Y-58540000D03*
X168730000Y-56000000D03*
X171270000Y-58540000D03*
X171270000Y-56000000D03*
X173810000Y-58540000D03*
X173810000Y-56000000D03*
X176350000Y-58540000D03*
X176350000Y-56000000D03*
X178890000Y-58540000D03*
X178890000Y-56000000D03*
%TD*%
D17*
%TO.C,D5*%
X156000000Y-145000000D03*
D18*
X158540000Y-145000000D03*
%TD*%
D35*
%TO.C,L1*%
X120500000Y-81500000D03*
X129500000Y-81500000D03*
X129500000Y-73500000D03*
X120500000Y-73500000D03*
%TD*%
D16*
%TO.C,RV1*%
X111500000Y-90000000D03*
X110000000Y-100000000D03*
%TD*%
M02*
