M48
; DRILL file {KiCad 9.0.7} date 2026-02-03T14:25:54+0100
; FORMAT={-:-/ absolute / metric / decimal}
; #@! TF.CreationDate,2026-02-03T14:25:54+01:00
; #@! TF.GenerationSoftware,Kicad,Pcbnew,9.0.7
; #@! TF.FileFunction,Plated,1,2,PTH
FMAT,2
METRIC
; #@! TA.AperFunction,Plated,PTH,ViaDrill
T1C0.500
; #@! TA.AperFunction,Plated,PTH,ComponentDrill
T2C0.600
; #@! TA.AperFunction,Plated,PTH,ViaDrill
T3C0.700
; #@! TA.AperFunction,Plated,PTH,ComponentDrill
T4C0.700
; #@! TA.AperFunction,Plated,PTH,ComponentDrill
T5C0.800
; #@! TA.AperFunction,Plated,PTH,ComponentDrill
T6C0.900
; #@! TA.AperFunction,Plated,PTH,ComponentDrill
T7C1.000
; #@! TA.AperFunction,Plated,PTH,ComponentDrill
T8C1.050
; #@! TA.AperFunction,Plated,PTH,ComponentDrill
T9C1.100
; #@! TA.AperFunction,Plated,PTH,ComponentDrill
T10C1.200
; #@! TA.AperFunction,Plated,PTH,ComponentDrill
T11C1.300
; #@! TA.AperFunction,Plated,PTH,ComponentDrill
T12C1.600
%
G90
G05
T1
X184.0Y-102.0
T2
X152.35Y-85.5
X153.65Y-80.5
T3
X117.5Y-109.0
X122.0Y-119.0
X123.0Y-125.0
X166.0Y-133.0
X169.0Y-136.0
X178.0Y-133.0
X182.0Y-136.0
T4
X131.19Y-123.0
X138.81Y-123.0
X139.19Y-75.0
X146.81Y-75.0
X153.0Y-133.0
X153.0Y-140.62
X158.0Y-133.0
X158.0Y-140.62
T5
X102.5Y-77.5
X112.5Y-77.5
X150.5Y-75.0
X155.5Y-75.0
X163.153Y-82.0
X166.653Y-82.0
X182.5Y-82.0
X187.5Y-82.0
T6
X116.46Y-53.0
X117.5Y-145.0
X119.0Y-53.0
X120.04Y-145.0
X151.0Y-145.0
X153.54Y-145.0
X156.0Y-145.0
X158.54Y-145.0
T7
X110.0Y-100.0
X110.0Y-125.0
X111.5Y-90.0
X111.5Y-115.0
X122.453Y-101.0
X122.453Y-107.0
X140.632Y-83.0
X145.632Y-83.0
X156.052Y-95.0
X156.052Y-113.0
X161.11Y-56.0
X161.11Y-58.54
X161.615Y-71.225
X161.615Y-73.765
X163.65Y-56.0
X163.65Y-58.54
X166.19Y-56.0
X166.19Y-58.54
X168.73Y-56.0
X168.73Y-58.54
X171.27Y-56.0
X171.27Y-58.54
X173.0Y-91.632
X173.0Y-96.632
X173.81Y-56.0
X173.81Y-58.54
X176.35Y-56.0
X176.35Y-58.54
X178.89Y-56.0
X178.89Y-58.54
T8
X120.5Y-73.5
X120.5Y-81.5
X129.5Y-73.5
X129.5Y-81.5
T9
X126.92Y-119.0
X137.08Y-119.0
T10
X124.0Y-145.0
X127.5Y-145.0
X131.0Y-145.0
X136.5Y-145.0
X140.0Y-145.0
X143.5Y-145.0
X162.5Y-145.0
X166.0Y-145.0
X169.5Y-145.0
X175.0Y-145.0
X178.5Y-145.0
X182.0Y-145.0
T11
X105.0Y-84.5
X105.0Y-89.1
X105.0Y-100.4
X105.0Y-105.0
X105.0Y-109.5
X105.0Y-114.1
X105.0Y-125.4
X105.0Y-130.0
X185.0Y-91.5
X185.0Y-96.5
T12
X172.38Y-105.0
X187.62Y-105.0
M30
