%TF.GenerationSoftware,KiCad,Pcbnew,9.0.7*%
%TF.CreationDate,2026-02-03T13:57:44+01:00*%
%TF.ProjectId,lokho2-inputs,6c6f6b68-6f32-42d6-996e-707574732e6b,rev?*%
%TF.SameCoordinates,Original*%
%TF.FileFunction,Soldermask,Top*%
%TF.FilePolarity,Negative*%
%FSLAX46Y46*%
G04 Gerber Fmt 4.6, Leading zero omitted, Abs format (unit mm)*
G04 Created by KiCad (PCBNEW 9.0.7) date 2026-02-03 13:57:44*
%MOMM*%
%LPD*%
G01*
G04 APERTURE LIST*
G04 Aperture macros list*
%AMRoundRect*
0 Rectangle with rounded corners*
0 $1 Rounding radius*
0 $2 $3 $4 $5 $6 $7 $8 $9 X,Y pos of 4 corners*
0 Add a 4 corners polygon primitive as box body*
4,1,4,$2,$3,$4,$5,$6,$7,$8,$9,$2,$3,0*
0 Add four circle primitives for the rounded corners*
1,1,$1+$1,$2,$3*
1,1,$1+$1,$4,$5*
1,1,$1+$1,$6,$7*
1,1,$1+$1,$8,$9*
0 Add four rect primitives between the rounded corners*
20,1,$1+$1,$2,$3,$4,$5,0*
20,1,$1+$1,$4,$5,$6,$7,0*
20,1,$1+$1,$6,$7,$8,$9,0*
20,1,$1+$1,$8,$9,$2,$3,0*%
G04 Aperture macros list end*
%ADD10C,4.000000*%
%ADD11R,1.700000X1.700000*%
%ADD12C,1.700000*%
%ADD13C,1.400000*%
%ADD14RoundRect,0.250001X0.624999X-0.462499X0.624999X0.462499X-0.624999X0.462499X-0.624999X-0.462499X0*%
%ADD15C,1.600000*%
%ADD16R,1.800000X1.800000*%
%ADD17C,1.800000*%
%ADD18R,1.600000X1.600000*%
%ADD19RoundRect,0.150000X-0.725000X-0.150000X0.725000X-0.150000X0.725000X0.150000X-0.725000X0.150000X0*%
%ADD20RoundRect,0.250000X-0.550000X-0.550000X0.550000X-0.550000X0.550000X0.550000X-0.550000X0.550000X0*%
%ADD21RoundRect,0.150000X-0.150000X0.587500X-0.150000X-0.587500X0.150000X-0.587500X0.150000X0.587500X0*%
%ADD22RoundRect,0.250000X-0.600000X0.600000X-0.600000X-0.600000X0.600000X-0.600000X0.600000X0.600000X0*%
%ADD23RoundRect,0.250000X0.550000X0.550000X-0.550000X0.550000X-0.550000X-0.550000X0.550000X-0.550000X0*%
%ADD24RoundRect,0.250000X0.550000X-0.550000X0.550000X0.550000X-0.550000X0.550000X-0.550000X-0.550000X0*%
%ADD25RoundRect,0.250000X0.600000X-0.600000X0.600000X0.600000X-0.600000X0.600000X-0.600000X-0.600000X0*%
G04 APERTURE END LIST*
D10*
X113500000Y-70000000D02*
G75*
G02*
X106500000Y-70000000I-3500000J0D01*
G01*
X106500000Y-70000000D02*
G75*
G02*
X113500000Y-70000000I3500000J0D01*
G01*
X193500000Y-70000000D02*
G75*
G02*
X186500000Y-70000000I-3500000J0D01*
G01*
X186500000Y-70000000D02*
G75*
G02*
X193500000Y-70000000I3500000J0D01*
G01*
D11*
%TO.C,J2*%
X133020000Y-72225000D03*
D12*
X133020000Y-69685000D03*
X135560000Y-72225000D03*
X135560000Y-69685000D03*
%TD*%
D13*
%TO.C,R2*%
X186360000Y-84765000D03*
X178740000Y-84765000D03*
%TD*%
D14*
%TO.C,D9*%
X164770000Y-99370000D03*
X164770000Y-96395000D03*
%TD*%
D15*
%TO.C,C17*%
X110160000Y-131120000D03*
X110160000Y-126120000D03*
%TD*%
D13*
%TO.C,R7*%
X125400000Y-68890000D03*
X117780000Y-68890000D03*
%TD*%
D14*
%TO.C,D6*%
X157150000Y-99370000D03*
X157150000Y-96395000D03*
%TD*%
D13*
%TO.C,R5*%
X159690000Y-79050000D03*
X159690000Y-86670000D03*
%TD*%
D16*
%TO.C,D1*%
X116730000Y-63000000D03*
D17*
X119270000Y-63000000D03*
%TD*%
D15*
%TO.C,C14*%
X138100000Y-131120000D03*
X138100000Y-126120000D03*
%TD*%
D18*
%TO.C,RN5*%
X106350000Y-141280000D03*
D15*
X108890000Y-141280000D03*
X111430000Y-141280000D03*
X113970000Y-141280000D03*
X116510000Y-141280000D03*
X119050000Y-141280000D03*
X121590000Y-141280000D03*
X124130000Y-141280000D03*
%TD*%
D14*
%TO.C,D7*%
X159690000Y-99370000D03*
X159690000Y-96395000D03*
%TD*%
D15*
%TO.C,C11*%
X116510000Y-131120000D03*
X116510000Y-126120000D03*
%TD*%
%TO.C,C7*%
X182550000Y-131120000D03*
X182550000Y-126120000D03*
%TD*%
D14*
%TO.C,D2*%
X146990000Y-99370000D03*
X146990000Y-96395000D03*
%TD*%
D19*
%TO.C,U1*%
X166005000Y-78415000D03*
X166005000Y-79685000D03*
X166005000Y-80955000D03*
X166005000Y-82225000D03*
X166005000Y-83495000D03*
X166005000Y-84765000D03*
X166005000Y-86035000D03*
X166005000Y-87305000D03*
X171155000Y-87305000D03*
X171155000Y-86035000D03*
X171155000Y-84765000D03*
X171155000Y-83495000D03*
X171155000Y-82225000D03*
X171155000Y-80955000D03*
X171155000Y-79685000D03*
X171155000Y-78415000D03*
%TD*%
D15*
%TO.C,C15*%
X105080000Y-131120000D03*
X105080000Y-126120000D03*
%TD*%
D14*
%TO.C,D12*%
X177470000Y-99370000D03*
X177470000Y-96395000D03*
%TD*%
D15*
%TO.C,C13*%
X140640000Y-131120000D03*
X140640000Y-126120000D03*
%TD*%
%TO.C,C4*%
X190170000Y-131120000D03*
X190170000Y-126120000D03*
%TD*%
%TO.C,C9*%
X143180000Y-131120000D03*
X143180000Y-126120000D03*
%TD*%
D20*
%TO.C,U4*%
X152070000Y-110800000D03*
D15*
X152070000Y-113340000D03*
X152070000Y-115880000D03*
X152070000Y-118420000D03*
X152070000Y-120960000D03*
X152070000Y-123500000D03*
X152070000Y-126040000D03*
X159690000Y-126040000D03*
X159690000Y-123500000D03*
X159690000Y-120960000D03*
X159690000Y-118420000D03*
X159690000Y-115880000D03*
X159690000Y-113340000D03*
X159690000Y-110800000D03*
%TD*%
D14*
%TO.C,D15*%
X185090000Y-99370000D03*
X185090000Y-96395000D03*
%TD*%
D18*
%TO.C,RN7*%
X144450000Y-102545000D03*
D15*
X146990000Y-102545000D03*
X149530000Y-102545000D03*
X152070000Y-102545000D03*
X154610000Y-102545000D03*
X157150000Y-102545000D03*
X159690000Y-102545000D03*
X162230000Y-102545000D03*
X164770000Y-102545000D03*
%TD*%
D18*
%TO.C,RN6*%
X125400000Y-136200000D03*
D15*
X122860000Y-136200000D03*
X120320000Y-136200000D03*
X117780000Y-136200000D03*
X115240000Y-136200000D03*
X112700000Y-136200000D03*
X110160000Y-136200000D03*
X107620000Y-136200000D03*
X105080000Y-136200000D03*
%TD*%
%TO.C,C2*%
X142000000Y-69000000D03*
X142000000Y-74000000D03*
%TD*%
D18*
%TO.C,RN3*%
X195250000Y-136200000D03*
D15*
X192710000Y-136200000D03*
X190170000Y-136200000D03*
X187630000Y-136200000D03*
X185090000Y-136200000D03*
X182550000Y-136200000D03*
X180010000Y-136200000D03*
X177470000Y-136200000D03*
X174930000Y-136200000D03*
%TD*%
D21*
%TO.C,Q1*%
X159370000Y-89542500D03*
X157470000Y-89542500D03*
X158420000Y-91417500D03*
%TD*%
D22*
%TO.C,J1*%
X174930000Y-146360000D03*
D12*
X174930000Y-148900000D03*
X172390000Y-146360000D03*
X172390000Y-148900000D03*
X169850000Y-146360000D03*
X169850000Y-148900000D03*
X167310000Y-146360000D03*
X167310000Y-148900000D03*
X164770000Y-146360000D03*
X164770000Y-148900000D03*
X162230000Y-146360000D03*
X162230000Y-148900000D03*
X159690000Y-146360000D03*
X159690000Y-148900000D03*
X157150000Y-146360000D03*
X157150000Y-148900000D03*
X154610000Y-146360000D03*
X154610000Y-148900000D03*
X152070000Y-146360000D03*
X152070000Y-148900000D03*
X149530000Y-146360000D03*
X149530000Y-148900000D03*
X146990000Y-146360000D03*
X146990000Y-148900000D03*
X144450000Y-146360000D03*
X144450000Y-148900000D03*
X141910000Y-146360000D03*
X141910000Y-148900000D03*
X139370000Y-146360000D03*
X139370000Y-148900000D03*
X136830000Y-146360000D03*
X136830000Y-148900000D03*
X134290000Y-146360000D03*
X134290000Y-148900000D03*
X131750000Y-146360000D03*
X131750000Y-148900000D03*
X129210000Y-146360000D03*
X129210000Y-148900000D03*
X126670000Y-146360000D03*
X126670000Y-148900000D03*
%TD*%
D23*
%TO.C,SW1*%
X196520000Y-87305000D03*
D15*
X196520000Y-84765000D03*
X196520000Y-82225000D03*
X196520000Y-79685000D03*
X188900000Y-79685000D03*
X188900000Y-82225000D03*
X188900000Y-84765000D03*
X188900000Y-87305000D03*
%TD*%
D20*
%TO.C,U3*%
X122865000Y-110800000D03*
D15*
X122865000Y-113340000D03*
X122865000Y-115880000D03*
X122865000Y-118420000D03*
X122865000Y-120960000D03*
X122865000Y-123500000D03*
X122865000Y-126040000D03*
X130485000Y-126040000D03*
X130485000Y-123500000D03*
X130485000Y-120960000D03*
X130485000Y-118420000D03*
X130485000Y-115880000D03*
X130485000Y-113340000D03*
X130485000Y-110800000D03*
%TD*%
D18*
%TO.C,RN4*%
X146990000Y-136200000D03*
D15*
X144450000Y-136200000D03*
X141910000Y-136200000D03*
X139370000Y-136200000D03*
X136830000Y-136200000D03*
X134290000Y-136200000D03*
X131750000Y-136200000D03*
X129210000Y-136200000D03*
%TD*%
D13*
%TO.C,R8*%
X152705000Y-86620000D03*
X152705000Y-79000000D03*
%TD*%
D18*
%TO.C,RN2*%
X153340000Y-136200000D03*
D15*
X155880000Y-136200000D03*
X158420000Y-136200000D03*
X160960000Y-136200000D03*
X163500000Y-136200000D03*
X166040000Y-136200000D03*
X168580000Y-136200000D03*
X171120000Y-136200000D03*
%TD*%
%TO.C,C18*%
X113970000Y-131120000D03*
X113970000Y-126120000D03*
%TD*%
%TO.C,C6*%
X185090000Y-131120000D03*
X185090000Y-126120000D03*
%TD*%
D14*
%TO.C,D3*%
X149530000Y-99370000D03*
X149530000Y-96395000D03*
%TD*%
%TO.C,D5*%
X154610000Y-99370000D03*
X154610000Y-96395000D03*
%TD*%
D18*
%TO.C,RN1*%
X193980000Y-141280000D03*
D15*
X191440000Y-141280000D03*
X188900000Y-141280000D03*
X186360000Y-141280000D03*
X183820000Y-141280000D03*
X181280000Y-141280000D03*
X178740000Y-141280000D03*
X176200000Y-141280000D03*
%TD*%
D14*
%TO.C,D14*%
X182550000Y-99370000D03*
X182550000Y-96395000D03*
%TD*%
D13*
%TO.C,R1*%
X186360000Y-87305000D03*
X178740000Y-87305000D03*
%TD*%
D15*
%TO.C,C3*%
X192710000Y-131120000D03*
X192710000Y-126120000D03*
%TD*%
%TO.C,C12*%
X119050000Y-131120000D03*
X119050000Y-126120000D03*
%TD*%
D14*
%TO.C,D10*%
X172390000Y-99370000D03*
X172390000Y-96395000D03*
%TD*%
%TO.C,D13*%
X180010000Y-99370000D03*
X180010000Y-96395000D03*
%TD*%
%TO.C,D17*%
X190170000Y-99370000D03*
X190170000Y-96395000D03*
%TD*%
D15*
%TO.C,C16*%
X107620000Y-131120000D03*
X107620000Y-126120000D03*
%TD*%
D13*
%TO.C,R4*%
X186360000Y-79685000D03*
X178740000Y-79685000D03*
%TD*%
D14*
%TO.C,D4*%
X152070000Y-99370000D03*
X152070000Y-96395000D03*
%TD*%
D20*
%TO.C,U5*%
X168580000Y-110800000D03*
D15*
X168580000Y-113340000D03*
X168580000Y-115880000D03*
X168580000Y-118420000D03*
X168580000Y-120960000D03*
X168580000Y-123500000D03*
X168580000Y-126040000D03*
X176200000Y-126040000D03*
X176200000Y-123500000D03*
X176200000Y-120960000D03*
X176200000Y-118420000D03*
X176200000Y-115880000D03*
X176200000Y-113340000D03*
X176200000Y-110800000D03*
%TD*%
D24*
%TO.C,C1*%
X148000000Y-73000000D03*
D15*
X148000000Y-69500000D03*
%TD*%
D18*
%TO.C,RN8*%
X169850000Y-102545000D03*
D15*
X172390000Y-102545000D03*
X174930000Y-102545000D03*
X177470000Y-102545000D03*
X180010000Y-102545000D03*
X182550000Y-102545000D03*
X185090000Y-102545000D03*
X187630000Y-102545000D03*
X190170000Y-102545000D03*
%TD*%
D13*
%TO.C,R3*%
X186360000Y-82225000D03*
X178740000Y-82225000D03*
%TD*%
D24*
%TO.C,U2*%
X115240000Y-84765000D03*
D15*
X117780000Y-84765000D03*
X120320000Y-84765000D03*
X122860000Y-84765000D03*
X125400000Y-84765000D03*
X127940000Y-84765000D03*
X130480000Y-84765000D03*
X133020000Y-84765000D03*
X135560000Y-84765000D03*
X138100000Y-84765000D03*
X140640000Y-84765000D03*
X143180000Y-84765000D03*
X145720000Y-84765000D03*
X148260000Y-84765000D03*
X148260000Y-77145000D03*
X145720000Y-77145000D03*
X143180000Y-77145000D03*
X140640000Y-77145000D03*
X138100000Y-77145000D03*
X135560000Y-77145000D03*
X133020000Y-77145000D03*
X130480000Y-77145000D03*
X127940000Y-77145000D03*
X125400000Y-77145000D03*
X122860000Y-77145000D03*
X120320000Y-77145000D03*
X117780000Y-77145000D03*
X115240000Y-77145000D03*
%TD*%
D14*
%TO.C,D11*%
X174930000Y-99370000D03*
X174930000Y-96395000D03*
%TD*%
D15*
%TO.C,C8*%
X180010000Y-131120000D03*
X180010000Y-126120000D03*
%TD*%
D13*
%TO.C,R6*%
X157150000Y-86670000D03*
X157150000Y-79050000D03*
%TD*%
D15*
%TO.C,C5*%
X187630000Y-131120000D03*
X187630000Y-126120000D03*
%TD*%
D25*
%TO.C,SPI1*%
X161110000Y-68697500D03*
D12*
X161110000Y-66157500D03*
X163650000Y-68697500D03*
X163650000Y-66157500D03*
X166190000Y-68697500D03*
X166190000Y-66157500D03*
X168730000Y-68697500D03*
X168730000Y-66157500D03*
X171270000Y-68697500D03*
X171270000Y-66157500D03*
X173810000Y-68697500D03*
X173810000Y-66157500D03*
X176350000Y-68697500D03*
X176350000Y-66157500D03*
X178890000Y-68697500D03*
X178890000Y-66157500D03*
%TD*%
D14*
%TO.C,D8*%
X162230000Y-99370000D03*
X162230000Y-96395000D03*
%TD*%
%TO.C,D16*%
X187630000Y-99370000D03*
X187630000Y-96395000D03*
%TD*%
D15*
%TO.C,C10*%
X145720000Y-131120000D03*
X145720000Y-126120000D03*
%TD*%
M02*
