M48
; DRILL file {KiCad 9.0.7} date 2026-02-03T13:57:46+0100
; FORMAT={-:-/ absolute / metric / decimal}
; #@! TF.CreationDate,2026-02-03T13:57:46+01:00
; #@! TF.GenerationSoftware,Kicad,Pcbnew,9.0.7
; #@! TF.FileFunction,Plated,1,2,PTH
FMAT,2
METRIC
; #@! TA.AperFunction,Plated,PTH,ViaDrill
T1C0.300
; #@! TA.AperFunction,Plated,PTH,ViaDrill
T2C0.400
; #@! TA.AperFunction,Plated,PTH,ComponentDrill
T3C0.700
; #@! TA.AperFunction,Plated,PTH,ComponentDrill
T4C0.800
; #@! TA.AperFunction,Plated,PTH,ComponentDrill
T5C0.900
; #@! TA.AperFunction,Plated,PTH,ComponentDrill
T6C1.000
%
G90
G05
T1
X103.81Y-93.655
X105.08Y-93.655
X106.35Y-93.655
X107.62Y-93.655
X108.89Y-92.385
X110.16Y-92.385
X111.43Y-92.385
X112.7Y-92.385
X117.145Y-100.64
X118.415Y-100.64
X120.32Y-100.64
X122.86Y-100.64
X125.4Y-100.64
X127.94Y-100.64
X130.48Y-100.64
X133.02Y-100.64
X146.99Y-92.385
X149.53Y-92.385
X152.07Y-92.385
X153.34Y-73.495
X154.61Y-92.385
X157.15Y-93.655
X159.69Y-93.655
X162.23Y-92.385
X164.77Y-92.385
X168.58Y-73.97
X172.39Y-92.385
X174.93Y-92.385
X177.47Y-92.385
X180.01Y-92.385
X182.55Y-92.385
X185.09Y-92.385
X187.63Y-92.385
X190.17Y-92.385
T2
X162.865Y-79.685
X162.865Y-82.225
X162.865Y-87.305
X174.93Y-79.685
X174.93Y-82.225
X174.93Y-83.495
X174.93Y-86.035
T3
X117.78Y-68.89
X125.4Y-68.89
X152.705Y-79.0
X152.705Y-86.62
X157.15Y-79.05
X157.15Y-86.67
X159.69Y-79.05
X159.69Y-86.67
X178.74Y-79.685
X178.74Y-82.225
X178.74Y-84.765
X178.74Y-87.305
X186.36Y-79.685
X186.36Y-82.225
X186.36Y-84.765
X186.36Y-87.305
T4
X105.08Y-126.12
X105.08Y-131.12
X105.08Y-136.2
X106.35Y-141.28
X107.62Y-126.12
X107.62Y-131.12
X107.62Y-136.2
X108.89Y-141.28
X110.16Y-126.12
X110.16Y-131.12
X110.16Y-136.2
X111.43Y-141.28
X112.7Y-136.2
X113.97Y-126.12
X113.97Y-131.12
X113.97Y-141.28
X115.24Y-77.145
X115.24Y-84.765
X115.24Y-136.2
X116.51Y-126.12
X116.51Y-131.12
X116.51Y-141.28
X117.78Y-77.145
X117.78Y-84.765
X117.78Y-136.2
X119.05Y-126.12
X119.05Y-131.12
X119.05Y-141.28
X120.32Y-77.145
X120.32Y-84.765
X120.32Y-136.2
X121.59Y-141.28
X122.86Y-77.145
X122.86Y-84.765
X122.86Y-136.2
X122.865Y-110.8
X122.865Y-113.34
X122.865Y-115.88
X122.865Y-118.42
X122.865Y-120.96
X122.865Y-123.5
X122.865Y-126.04
X124.13Y-141.28
X125.4Y-77.145
X125.4Y-84.765
X125.4Y-136.2
X127.94Y-77.145
X127.94Y-84.765
X129.21Y-136.2
X130.48Y-77.145
X130.48Y-84.765
X130.485Y-110.8
X130.485Y-113.34
X130.485Y-115.88
X130.485Y-118.42
X130.485Y-120.96
X130.485Y-123.5
X130.485Y-126.04
X131.75Y-136.2
X133.02Y-77.145
X133.02Y-84.765
X134.29Y-136.2
X135.56Y-77.145
X135.56Y-84.765
X136.83Y-136.2
X138.1Y-77.145
X138.1Y-84.765
X138.1Y-126.12
X138.1Y-131.12
X139.37Y-136.2
X140.64Y-77.145
X140.64Y-84.765
X140.64Y-126.12
X140.64Y-131.12
X141.91Y-136.2
X142.0Y-69.0
X142.0Y-74.0
X143.18Y-77.145
X143.18Y-84.765
X143.18Y-126.12
X143.18Y-131.12
X144.45Y-102.545
X144.45Y-136.2
X145.72Y-77.145
X145.72Y-84.765
X145.72Y-126.12
X145.72Y-131.12
X146.99Y-102.545
X146.99Y-136.2
X148.0Y-69.5
X148.0Y-73.0
X148.26Y-77.145
X148.26Y-84.765
X149.53Y-102.545
X152.07Y-102.545
X152.07Y-110.8
X152.07Y-113.34
X152.07Y-115.88
X152.07Y-118.42
X152.07Y-120.96
X152.07Y-123.5
X152.07Y-126.04
X153.34Y-136.2
X154.61Y-102.545
X155.88Y-136.2
X157.15Y-102.545
X158.42Y-136.2
X159.69Y-102.545
X159.69Y-110.8
X159.69Y-113.34
X159.69Y-115.88
X159.69Y-118.42
X159.69Y-120.96
X159.69Y-123.5
X159.69Y-126.04
X160.96Y-136.2
X162.23Y-102.545
X163.5Y-136.2
X164.77Y-102.545
X166.04Y-136.2
X168.58Y-110.8
X168.58Y-113.34
X168.58Y-115.88
X168.58Y-118.42
X168.58Y-120.96
X168.58Y-123.5
X168.58Y-126.04
X168.58Y-136.2
X169.85Y-102.545
X171.12Y-136.2
X172.39Y-102.545
X174.93Y-102.545
X174.93Y-136.2
X176.2Y-110.8
X176.2Y-113.34
X176.2Y-115.88
X176.2Y-118.42
X176.2Y-120.96
X176.2Y-123.5
X176.2Y-126.04
X176.2Y-141.28
X177.47Y-102.545
X177.47Y-136.2
X178.74Y-141.28
X180.01Y-102.545
X180.01Y-126.12
X180.01Y-131.12
X180.01Y-136.2
X181.28Y-141.28
X182.55Y-102.545
X182.55Y-126.12
X182.55Y-131.12
X182.55Y-136.2
X183.82Y-141.28
X185.09Y-102.545
X185.09Y-126.12
X185.09Y-131.12
X185.09Y-136.2
X186.36Y-141.28
X187.63Y-102.545
X187.63Y-126.12
X187.63Y-131.12
X187.63Y-136.2
X188.9Y-79.685
X188.9Y-82.225
X188.9Y-84.765
X188.9Y-87.305
X188.9Y-141.28
X190.17Y-102.545
X190.17Y-126.12
X190.17Y-131.12
X190.17Y-136.2
X191.44Y-141.28
X192.71Y-126.12
X192.71Y-131.12
X192.71Y-136.2
X193.98Y-141.28
X195.25Y-136.2
X196.52Y-79.685
X196.52Y-82.225
X196.52Y-84.765
X196.52Y-87.305
T5
X116.73Y-63.0
X119.27Y-63.0
T6
X126.67Y-146.36
X126.67Y-148.9
X129.21Y-146.36
X129.21Y-148.9
X131.75Y-146.36
X131.75Y-148.9
X133.02Y-69.685
X133.02Y-72.225
X134.29Y-146.36
X134.29Y-148.9
X135.56Y-69.685
X135.56Y-72.225
X136.83Y-146.36
X136.83Y-148.9
X139.37Y-146.36
X139.37Y-148.9
X141.91Y-146.36
X141.91Y-148.9
X144.45Y-146.36
X144.45Y-148.9
X146.99Y-146.36
X146.99Y-148.9
X149.53Y-146.36
X149.53Y-148.9
X152.07Y-146.36
X152.07Y-148.9
X154.61Y-146.36
X154.61Y-148.9
X157.15Y-146.36
X157.15Y-148.9
X159.69Y-146.36
X159.69Y-148.9
X161.11Y-66.157
X161.11Y-68.697
X162.23Y-146.36
X162.23Y-148.9
X163.65Y-66.157
X163.65Y-68.697
X164.77Y-146.36
X164.77Y-148.9
X166.19Y-66.157
X166.19Y-68.697
X167.31Y-146.36
X167.31Y-148.9
X168.73Y-66.157
X168.73Y-68.697
X169.85Y-146.36
X169.85Y-148.9
X171.27Y-66.157
X171.27Y-68.697
X172.39Y-146.36
X172.39Y-148.9
X173.81Y-66.157
X173.81Y-68.697
X174.93Y-146.36
X174.93Y-148.9
X176.35Y-66.157
X176.35Y-68.697
X178.89Y-66.157
X178.89Y-68.697
M30
