M48
; DRILL file {KiCad 9.0.7} date 2026-02-03T14:01:31+0100
; FORMAT={-:-/ absolute / metric / decimal}
; #@! TF.CreationDate,2026-02-03T14:01:31+01:00
; #@! TF.GenerationSoftware,Kicad,Pcbnew,9.0.7
; #@! TF.FileFunction,Plated,1,2,PTH
FMAT,2
METRIC
; #@! TA.AperFunction,Plated,PTH,ViaDrill
T1C0.400
; #@! TA.AperFunction,Plated,PTH,ComponentDrill
T2C0.700
; #@! TA.AperFunction,Plated,PTH,ComponentDrill
T3C0.800
; #@! TA.AperFunction,Plated,PTH,ComponentDrill
T4C0.900
; #@! TA.AperFunction,Plated,PTH,ComponentDrill
T5C1.000
%
G90
G05
T1
X162.865Y-69.685
X162.865Y-72.225
X162.865Y-77.305
X174.93Y-69.685
X174.93Y-72.225
X174.93Y-73.495
X174.93Y-76.035
T2
X105.08Y-95.72
X105.08Y-103.34
X110.16Y-95.72
X110.16Y-103.34
X115.24Y-95.72
X115.24Y-103.34
X117.78Y-58.89
X120.32Y-95.72
X120.32Y-103.34
X125.4Y-58.89
X129.21Y-95.72
X129.21Y-103.34
X133.655Y-61.43
X134.29Y-95.72
X134.29Y-103.34
X139.37Y-95.72
X139.37Y-103.34
X141.275Y-61.43
X144.45Y-95.72
X144.45Y-103.34
X154.61Y-95.72
X154.61Y-103.34
X157.15Y-69.05
X157.15Y-76.67
X159.69Y-69.05
X159.69Y-76.67
X159.69Y-95.72
X159.69Y-103.34
X164.77Y-95.72
X164.77Y-103.34
X169.85Y-95.72
X169.85Y-103.34
X178.74Y-69.685
X178.74Y-72.225
X178.74Y-74.765
X178.74Y-77.305
X178.74Y-95.72
X178.74Y-103.34
X183.82Y-95.72
X183.82Y-103.34
X186.36Y-69.685
X186.36Y-72.225
X186.36Y-74.765
X186.36Y-77.305
X188.9Y-95.72
X188.9Y-103.34
X193.98Y-95.72
X193.98Y-103.34
T3
X105.08Y-107.15
X105.08Y-114.77
X107.62Y-107.15
X107.62Y-114.77
X110.16Y-107.15
X110.16Y-114.77
X112.7Y-107.15
X112.7Y-114.77
X115.24Y-67.145
X115.24Y-74.765
X115.24Y-107.15
X115.24Y-114.77
X117.78Y-67.145
X117.78Y-74.765
X117.78Y-107.15
X117.78Y-114.77
X120.32Y-67.145
X120.32Y-74.765
X120.32Y-107.15
X120.32Y-114.77
X122.86Y-67.145
X122.86Y-74.765
X122.86Y-107.15
X122.86Y-114.77
X125.4Y-67.145
X125.4Y-74.765
X127.94Y-67.145
X127.94Y-74.765
X129.21Y-107.15
X129.21Y-114.77
X130.48Y-67.145
X130.48Y-74.765
X131.75Y-107.15
X131.75Y-114.77
X133.02Y-67.145
X133.02Y-74.765
X134.29Y-107.15
X134.29Y-114.77
X135.56Y-67.145
X135.56Y-74.765
X136.83Y-107.15
X136.83Y-114.77
X138.1Y-67.145
X138.1Y-74.765
X139.37Y-107.15
X139.37Y-114.77
X140.64Y-67.145
X140.64Y-74.765
X141.91Y-107.15
X141.91Y-114.77
X143.18Y-67.145
X143.18Y-74.765
X143.815Y-58.93
X143.815Y-63.93
X144.45Y-107.15
X144.45Y-114.77
X145.72Y-67.145
X145.72Y-74.765
X146.99Y-107.15
X146.99Y-114.77
X148.26Y-67.145
X148.26Y-74.765
X150.165Y-59.583
X150.165Y-63.083
X154.61Y-107.15
X154.61Y-114.77
X157.15Y-107.15
X157.15Y-114.77
X159.69Y-107.15
X159.69Y-114.77
X162.23Y-107.15
X162.23Y-114.77
X164.77Y-107.15
X164.77Y-114.77
X167.31Y-107.15
X167.31Y-114.77
X169.85Y-107.15
X169.85Y-114.77
X172.39Y-107.15
X172.39Y-114.77
X178.74Y-107.15
X178.74Y-114.77
X181.28Y-107.15
X181.28Y-114.77
X183.82Y-107.15
X183.82Y-114.77
X186.36Y-107.15
X186.36Y-114.77
X188.9Y-69.685
X188.9Y-72.225
X188.9Y-74.765
X188.9Y-77.305
X188.9Y-107.15
X188.9Y-114.77
X191.44Y-107.15
X191.44Y-114.77
X193.98Y-107.15
X193.98Y-114.77
X196.52Y-69.685
X196.52Y-72.225
X196.52Y-74.765
X196.52Y-77.305
X196.52Y-107.15
X196.52Y-114.77
T4
X116.73Y-53.0
X119.27Y-53.0
T5
X126.67Y-136.36
X126.67Y-138.9
X129.21Y-136.36
X129.21Y-138.9
X131.75Y-136.36
X131.75Y-138.9
X134.29Y-136.36
X134.29Y-138.9
X136.83Y-136.36
X136.83Y-138.9
X139.37Y-136.36
X139.37Y-138.9
X141.91Y-136.36
X141.91Y-138.9
X144.45Y-136.36
X144.45Y-138.9
X146.99Y-136.36
X146.99Y-138.9
X149.53Y-136.36
X149.53Y-138.9
X152.07Y-136.36
X152.07Y-138.9
X154.61Y-136.36
X154.61Y-138.9
X157.15Y-136.36
X157.15Y-138.9
X159.69Y-136.36
X159.69Y-138.9
X161.11Y-56.157
X161.11Y-58.697
X162.23Y-136.36
X162.23Y-138.9
X163.65Y-56.157
X163.65Y-58.697
X164.77Y-136.36
X164.77Y-138.9
X166.19Y-56.157
X166.19Y-58.697
X167.31Y-136.36
X167.31Y-138.9
X168.73Y-56.157
X168.73Y-58.697
X169.85Y-136.36
X169.85Y-138.9
X171.27Y-56.157
X171.27Y-58.697
X172.39Y-136.36
X172.39Y-138.9
X173.81Y-56.157
X173.81Y-58.697
X174.93Y-136.36
X174.93Y-138.9
X176.35Y-56.157
X176.35Y-58.697
X178.89Y-56.157
X178.89Y-58.697
M30
