%TF.GenerationSoftware,KiCad,Pcbnew,9.0.7*%
%TF.CreationDate,2026-02-03T14:01:29+01:00*%
%TF.ProjectId,lokho2-relays,6c6f6b68-6f32-42d7-9265-6c6179732e6b,rev?*%
%TF.SameCoordinates,Original*%
%TF.FileFunction,Soldermask,Bot*%
%TF.FilePolarity,Negative*%
%FSLAX46Y46*%
G04 Gerber Fmt 4.6, Leading zero omitted, Abs format (unit mm)*
G04 Created by KiCad (PCBNEW 9.0.7) date 2026-02-03 14:01:29*
%MOMM*%
%LPD*%
G01*
G04 APERTURE LIST*
G04 Aperture macros list*
%AMRoundRect*
0 Rectangle with rounded corners*
0 $1 Rounding radius*
0 $2 $3 $4 $5 $6 $7 $8 $9 X,Y pos of 4 corners*
0 Add a 4 corners polygon primitive as box body*
4,1,4,$2,$3,$4,$5,$6,$7,$8,$9,$2,$3,0*
0 Add four circle primitives for the rounded corners*
1,1,$1+$1,$2,$3*
1,1,$1+$1,$4,$5*
1,1,$1+$1,$6,$7*
1,1,$1+$1,$8,$9*
0 Add four rect primitives between the rounded corners*
20,1,$1+$1,$2,$3,$4,$5,0*
20,1,$1+$1,$4,$5,$6,$7,0*
20,1,$1+$1,$6,$7,$8,$9,0*
20,1,$1+$1,$8,$9,$2,$3,0*%
G04 Aperture macros list end*
%ADD10C,1.400000*%
%ADD11RoundRect,0.250000X-0.550000X0.550000X-0.550000X-0.550000X0.550000X-0.550000X0.550000X0.550000X0*%
%ADD12C,1.600000*%
%ADD13RoundRect,0.250000X-0.600000X0.600000X-0.600000X-0.600000X0.600000X-0.600000X0.600000X0.600000X0*%
%ADD14C,1.700000*%
%ADD15R,1.800000X1.800000*%
%ADD16C,1.800000*%
%ADD17RoundRect,0.250000X0.600000X-0.600000X0.600000X0.600000X-0.600000X0.600000X-0.600000X-0.600000X0*%
%ADD18RoundRect,0.250000X0.550000X-0.550000X0.550000X0.550000X-0.550000X0.550000X-0.550000X-0.550000X0*%
%ADD19RoundRect,0.250000X0.550000X0.550000X-0.550000X0.550000X-0.550000X-0.550000X0.550000X-0.550000X0*%
G04 APERTURE END LIST*
D10*
%TO.C,R15*%
X183820000Y-95720000D03*
X183820000Y-103340000D03*
%TD*%
%TO.C,R18*%
X115240000Y-95720000D03*
X115240000Y-103340000D03*
%TD*%
%TO.C,R10*%
X164770000Y-95720000D03*
X164770000Y-103340000D03*
%TD*%
%TO.C,R4*%
X186360000Y-69685000D03*
X178740000Y-69685000D03*
%TD*%
%TO.C,R20*%
X105080000Y-95720000D03*
X105080000Y-103340000D03*
%TD*%
D11*
%TO.C,U5*%
X122860000Y-107150000D03*
D12*
X120320000Y-107150000D03*
X117780000Y-107150000D03*
X115240000Y-107150000D03*
X112700000Y-107150000D03*
X110160000Y-107150000D03*
X107620000Y-107150000D03*
X105080000Y-107150000D03*
X105080000Y-114770000D03*
X107620000Y-114770000D03*
X110160000Y-114770000D03*
X112700000Y-114770000D03*
X115240000Y-114770000D03*
X117780000Y-114770000D03*
X120320000Y-114770000D03*
X122860000Y-114770000D03*
%TD*%
D10*
%TO.C,R14*%
X188900000Y-95720000D03*
X188900000Y-103340000D03*
%TD*%
%TO.C,R7*%
X125400000Y-58890000D03*
X117780000Y-58890000D03*
%TD*%
%TO.C,R22*%
X139370000Y-95720000D03*
X139370000Y-103340000D03*
%TD*%
D12*
%TO.C,C2*%
X143815000Y-58930000D03*
X143815000Y-63930000D03*
%TD*%
D13*
%TO.C,J1*%
X174930000Y-136360000D03*
D14*
X174930000Y-138900000D03*
X172390000Y-136360000D03*
X172390000Y-138900000D03*
X169850000Y-136360000D03*
X169850000Y-138900000D03*
X167310000Y-136360000D03*
X167310000Y-138900000D03*
X164770000Y-136360000D03*
X164770000Y-138900000D03*
X162230000Y-136360000D03*
X162230000Y-138900000D03*
X159690000Y-136360000D03*
X159690000Y-138900000D03*
X157150000Y-136360000D03*
X157150000Y-138900000D03*
X154610000Y-136360000D03*
X154610000Y-138900000D03*
X152070000Y-136360000D03*
X152070000Y-138900000D03*
X149530000Y-136360000D03*
X149530000Y-138900000D03*
X146990000Y-136360000D03*
X146990000Y-138900000D03*
X144450000Y-136360000D03*
X144450000Y-138900000D03*
X141910000Y-136360000D03*
X141910000Y-138900000D03*
X139370000Y-136360000D03*
X139370000Y-138900000D03*
X136830000Y-136360000D03*
X136830000Y-138900000D03*
X134290000Y-136360000D03*
X134290000Y-138900000D03*
X131750000Y-136360000D03*
X131750000Y-138900000D03*
X129210000Y-136360000D03*
X129210000Y-138900000D03*
X126670000Y-136360000D03*
X126670000Y-138900000D03*
%TD*%
D10*
%TO.C,R9*%
X169850000Y-95720000D03*
X169850000Y-103340000D03*
%TD*%
D11*
%TO.C,U3*%
X172390000Y-107150000D03*
D12*
X169850000Y-107150000D03*
X167310000Y-107150000D03*
X164770000Y-107150000D03*
X162230000Y-107150000D03*
X159690000Y-107150000D03*
X157150000Y-107150000D03*
X154610000Y-107150000D03*
X154610000Y-114770000D03*
X157150000Y-114770000D03*
X159690000Y-114770000D03*
X162230000Y-114770000D03*
X164770000Y-114770000D03*
X167310000Y-114770000D03*
X169850000Y-114770000D03*
X172390000Y-114770000D03*
%TD*%
D15*
%TO.C,D1*%
X116730000Y-53000000D03*
D16*
X119270000Y-53000000D03*
%TD*%
D10*
%TO.C,R24*%
X129210000Y-95720000D03*
X129210000Y-103340000D03*
%TD*%
D11*
%TO.C,U4*%
X196520000Y-107150000D03*
D12*
X193980000Y-107150000D03*
X191440000Y-107150000D03*
X188900000Y-107150000D03*
X186360000Y-107150000D03*
X183820000Y-107150000D03*
X181280000Y-107150000D03*
X178740000Y-107150000D03*
X178740000Y-114770000D03*
X181280000Y-114770000D03*
X183820000Y-114770000D03*
X186360000Y-114770000D03*
X188900000Y-114770000D03*
X191440000Y-114770000D03*
X193980000Y-114770000D03*
X196520000Y-114770000D03*
%TD*%
D10*
%TO.C,R19*%
X110160000Y-95720000D03*
X110160000Y-103340000D03*
%TD*%
%TO.C,R23*%
X134290000Y-95720000D03*
X134290000Y-103340000D03*
%TD*%
%TO.C,R1*%
X186360000Y-77305000D03*
X178740000Y-77305000D03*
%TD*%
%TO.C,R5*%
X159690000Y-69050000D03*
X159690000Y-76670000D03*
%TD*%
%TO.C,R11*%
X159690000Y-95720000D03*
X159690000Y-103340000D03*
%TD*%
D17*
%TO.C,SPI1*%
X161110000Y-58697500D03*
D14*
X161110000Y-56157500D03*
X163650000Y-58697500D03*
X163650000Y-56157500D03*
X166190000Y-58697500D03*
X166190000Y-56157500D03*
X168730000Y-58697500D03*
X168730000Y-56157500D03*
X171270000Y-58697500D03*
X171270000Y-56157500D03*
X173810000Y-58697500D03*
X173810000Y-56157500D03*
X176350000Y-58697500D03*
X176350000Y-56157500D03*
X178890000Y-58697500D03*
X178890000Y-56157500D03*
%TD*%
D10*
%TO.C,R2*%
X186360000Y-74765000D03*
X178740000Y-74765000D03*
%TD*%
%TO.C,R16*%
X178740000Y-95720000D03*
X178740000Y-103340000D03*
%TD*%
%TO.C,R21*%
X144450000Y-95720000D03*
X144450000Y-103340000D03*
%TD*%
%TO.C,R8*%
X141275000Y-61430000D03*
X133655000Y-61430000D03*
%TD*%
%TO.C,R17*%
X120320000Y-95720000D03*
X120320000Y-103340000D03*
%TD*%
D18*
%TO.C,C1*%
X150165000Y-63082651D03*
D12*
X150165000Y-59582651D03*
%TD*%
D19*
%TO.C,SW1*%
X196520000Y-77305000D03*
D12*
X196520000Y-74765000D03*
X196520000Y-72225000D03*
X196520000Y-69685000D03*
X188900000Y-69685000D03*
X188900000Y-72225000D03*
X188900000Y-74765000D03*
X188900000Y-77305000D03*
%TD*%
D11*
%TO.C,U6*%
X146990000Y-107150000D03*
D12*
X144450000Y-107150000D03*
X141910000Y-107150000D03*
X139370000Y-107150000D03*
X136830000Y-107150000D03*
X134290000Y-107150000D03*
X131750000Y-107150000D03*
X129210000Y-107150000D03*
X129210000Y-114770000D03*
X131750000Y-114770000D03*
X134290000Y-114770000D03*
X136830000Y-114770000D03*
X139370000Y-114770000D03*
X141910000Y-114770000D03*
X144450000Y-114770000D03*
X146990000Y-114770000D03*
%TD*%
D10*
%TO.C,R12*%
X154610000Y-95720000D03*
X154610000Y-103340000D03*
%TD*%
%TO.C,R6*%
X157150000Y-76670000D03*
X157150000Y-69050000D03*
%TD*%
%TO.C,R13*%
X193980000Y-95720000D03*
X193980000Y-103340000D03*
%TD*%
%TO.C,R3*%
X186360000Y-72225000D03*
X178740000Y-72225000D03*
%TD*%
D18*
%TO.C,U2*%
X115240000Y-74765000D03*
D12*
X117780000Y-74765000D03*
X120320000Y-74765000D03*
X122860000Y-74765000D03*
X125400000Y-74765000D03*
X127940000Y-74765000D03*
X130480000Y-74765000D03*
X133020000Y-74765000D03*
X135560000Y-74765000D03*
X138100000Y-74765000D03*
X140640000Y-74765000D03*
X143180000Y-74765000D03*
X145720000Y-74765000D03*
X148260000Y-74765000D03*
X148260000Y-67145000D03*
X145720000Y-67145000D03*
X143180000Y-67145000D03*
X140640000Y-67145000D03*
X138100000Y-67145000D03*
X135560000Y-67145000D03*
X133020000Y-67145000D03*
X130480000Y-67145000D03*
X127940000Y-67145000D03*
X125400000Y-67145000D03*
X122860000Y-67145000D03*
X120320000Y-67145000D03*
X117780000Y-67145000D03*
X115240000Y-67145000D03*
%TD*%
M02*
