M48
; DRILL file {KiCad 9.0.7} date 2026-02-03T14:27:32+0100
; FORMAT={-:-/ absolute / metric / decimal}
; #@! TF.CreationDate,2026-02-03T14:27:32+01:00
; #@! TF.GenerationSoftware,Kicad,Pcbnew,9.0.7
; #@! TF.FileFunction,Plated,1,2,PTH
FMAT,2
METRIC
; #@! TA.AperFunction,Plated,PTH,ViaDrill
T1C0.300
; #@! TA.AperFunction,Plated,PTH,ViaDrill
T2C0.400
; #@! TA.AperFunction,Plated,PTH,ComponentDrill
T3C0.700
; #@! TA.AperFunction,Plated,PTH,ComponentDrill
T4C0.800
; #@! TA.AperFunction,Plated,PTH,ComponentDrill
T5C0.900
; #@! TA.AperFunction,Plated,PTH,ComponentDrill
T6C0.950
; #@! TA.AperFunction,Plated,PTH,ComponentDrill
T7C1.000
; #@! TA.AperFunction,Plated,PTH,ComponentDrill
T8C1.100
; #@! TA.AperFunction,Plated,PTH,ComponentDrill
T9C1.200
; #@! TA.AperFunction,Plated,PTH,ComponentDrill
T10C2.300
%
G90
G05
T1
X102.235Y-61.595
X120.015Y-67.945
X121.92Y-69.215
X133.35Y-92.71
X133.985Y-74.935
X168.275Y-78.74
X176.53Y-53.34
T2
X116.84Y-68.58
X118.11Y-88.9
X137.795Y-67.31
X137.795Y-68.58
X147.955Y-73.66
X149.225Y-63.5
X149.225Y-73.66
X156.845Y-63.5
X169.545Y-87.63
X170.815Y-86.36
X172.085Y-85.09
X173.355Y-83.82
X174.625Y-82.55
X175.895Y-80.645
X180.34Y-92.71
X180.34Y-116.84
X180.34Y-142.24
X182.88Y-127.0
T3
X118.11Y-58.42
X118.11Y-66.04
X120.015Y-71.12
X120.015Y-78.74
X121.92Y-58.42
X121.92Y-66.04
X125.73Y-58.42
X125.73Y-66.04
X143.51Y-93.98
X143.65Y-72.4
X143.65Y-73.67
X143.65Y-74.935
X143.65Y-76.205
X143.65Y-77.475
X143.65Y-78.745
X143.65Y-80.015
X143.65Y-81.285
X143.65Y-82.555
X143.65Y-83.825
X143.65Y-85.095
X143.65Y-86.365
X143.65Y-87.635
X143.65Y-88.905
X151.13Y-93.98
X153.67Y-93.98
X161.29Y-93.98
X161.43Y-72.4
X161.43Y-73.67
X161.43Y-74.94
X161.43Y-76.21
X161.43Y-77.48
X161.43Y-78.75
X161.43Y-80.02
X161.43Y-81.29
X161.43Y-82.56
X161.43Y-83.83
X161.43Y-85.1
X161.43Y-86.37
X161.43Y-87.635
X161.43Y-88.905
T4
X114.3Y-101.64
X114.3Y-106.64
X114.3Y-111.8
X114.3Y-116.8
X114.3Y-121.96
X114.3Y-126.96
X180.34Y-67.31
X180.34Y-70.81
X187.96Y-68.62
X187.96Y-73.62
T5
X116.84Y-53.0
X119.38Y-53.0
X123.19Y-53.0
X125.73Y-53.0
X129.54Y-53.0
X132.08Y-53.0
T6
X114.007Y-88.92
X114.007Y-91.42
X116.007Y-88.92
X116.007Y-91.42
T7
X110.49Y-68.58
X110.49Y-71.12
X110.49Y-73.66
X110.49Y-76.2
X110.49Y-78.74
X127.0Y-116.84
X127.0Y-119.38
X130.81Y-116.84
X130.81Y-119.38
X134.62Y-116.84
X134.62Y-119.38
X138.43Y-116.84
X138.43Y-119.38
X142.24Y-116.84
X142.24Y-119.38
X146.05Y-116.84
X146.05Y-119.38
X149.86Y-116.84
X149.86Y-119.38
X153.67Y-116.84
X153.67Y-119.38
X161.11Y-56.157
X161.11Y-58.697
X163.65Y-56.157
X163.65Y-58.697
X166.19Y-56.157
X166.19Y-58.697
X168.73Y-56.157
X168.73Y-58.697
X171.27Y-56.157
X171.27Y-58.697
X173.81Y-56.157
X173.81Y-58.697
X176.35Y-56.157
X176.35Y-58.697
X178.89Y-56.157
X178.89Y-58.697
T8
X104.43Y-100.89
X104.43Y-107.39
X104.43Y-111.05
X104.43Y-117.55
X104.43Y-121.21
X104.43Y-127.71
X108.93Y-100.89
X108.93Y-107.39
X108.93Y-111.05
X108.93Y-117.55
X108.93Y-121.21
X108.93Y-127.71
T9
X119.0Y-145.267
X122.5Y-145.267
X126.0Y-145.267
X126.5Y-129.767
X130.0Y-129.767
X133.5Y-129.767
X134.0Y-145.267
X137.5Y-145.267
X141.0Y-145.267
X141.5Y-129.767
X145.0Y-129.767
X148.5Y-129.767
X149.0Y-145.267
X152.5Y-145.267
X156.0Y-145.267
X156.5Y-129.767
X160.0Y-129.767
X163.5Y-129.767
X164.0Y-145.267
X167.5Y-145.267
X171.0Y-145.267
X171.5Y-129.767
X175.0Y-129.767
X178.5Y-129.767
T10
X111.147Y-84.17
X111.147Y-96.17
M30
