%TF.GenerationSoftware,KiCad,Pcbnew,9.0.7*%
%TF.CreationDate,2026-02-03T14:27:30+01:00*%
%TF.ProjectId,lokho2-esp32c6,6c6f6b68-6f32-42d6-9573-70333263362e,rev?*%
%TF.SameCoordinates,Original*%
%TF.FileFunction,Soldermask,Top*%
%TF.FilePolarity,Negative*%
%FSLAX46Y46*%
G04 Gerber Fmt 4.6, Leading zero omitted, Abs format (unit mm)*
G04 Created by KiCad (PCBNEW 9.0.7) date 2026-02-03 14:27:30*
%MOMM*%
%LPD*%
G01*
G04 APERTURE LIST*
G04 Aperture macros list*
%AMRoundRect*
0 Rectangle with rounded corners*
0 $1 Rounding radius*
0 $2 $3 $4 $5 $6 $7 $8 $9 X,Y pos of 4 corners*
0 Add a 4 corners polygon primitive as box body*
4,1,4,$2,$3,$4,$5,$6,$7,$8,$9,$2,$3,0*
0 Add four circle primitives for the rounded corners*
1,1,$1+$1,$2,$3*
1,1,$1+$1,$4,$5*
1,1,$1+$1,$6,$7*
1,1,$1+$1,$8,$9*
0 Add four rect primitives between the rounded corners*
20,1,$1+$1,$2,$3,$4,$5,0*
20,1,$1+$1,$4,$5,$6,$7,0*
20,1,$1+$1,$6,$7,$8,$9,0*
20,1,$1+$1,$8,$9,$2,$3,0*%
G04 Aperture macros list end*
%ADD10C,4.000000*%
%ADD11R,1.700000X1.700000*%
%ADD12C,1.700000*%
%ADD13RoundRect,0.250000X0.600000X-0.600000X0.600000X0.600000X-0.600000X0.600000X-0.600000X-0.600000X0*%
%ADD14C,2.000000*%
%ADD15RoundRect,0.250001X-0.949999X-0.949999X0.949999X-0.949999X0.949999X0.949999X-0.949999X0.949999X0*%
%ADD16C,2.400000*%
%ADD17C,1.400000*%
%ADD18C,1.600000*%
%ADD19RoundRect,0.250000X-0.500000X-0.250000X0.500000X-0.250000X0.500000X0.250000X-0.500000X0.250000X0*%
%ADD20RoundRect,0.250000X0.500000X0.250000X-0.500000X0.250000X-0.500000X-0.250000X0.500000X-0.250000X0*%
%ADD21R,1.800000X1.800000*%
%ADD22C,1.800000*%
%ADD23R,1.600000X1.600000*%
%ADD24C,4.000000*%
%ADD25RoundRect,0.250000X0.550000X-0.550000X0.550000X0.550000X-0.550000X0.550000X-0.550000X-0.550000X0*%
G04 APERTURE END LIST*
D10*
X193500000Y-60000000D02*
G75*
G02*
X186500000Y-60000000I-3500000J0D01*
G01*
X186500000Y-60000000D02*
G75*
G02*
X193500000Y-60000000I3500000J0D01*
G01*
X113500000Y-60000000D02*
G75*
G02*
X106500000Y-60000000I-3500000J0D01*
G01*
X106500000Y-60000000D02*
G75*
G02*
X113500000Y-60000000I3500000J0D01*
G01*
D11*
%TO.C,J7*%
X138430000Y-116840000D03*
D12*
X138430000Y-119380000D03*
%TD*%
D11*
%TO.C,J6*%
X134620000Y-116840000D03*
D12*
X134620000Y-119380000D03*
%TD*%
D13*
%TO.C,SPI1*%
X161110000Y-58697500D03*
D12*
X161110000Y-56157500D03*
X163650000Y-58697500D03*
X163650000Y-56157500D03*
X166190000Y-58697500D03*
X166190000Y-56157500D03*
X168730000Y-58697500D03*
X168730000Y-56157500D03*
X171270000Y-58697500D03*
X171270000Y-56157500D03*
X173810000Y-58697500D03*
X173810000Y-56157500D03*
X176350000Y-58697500D03*
X176350000Y-56157500D03*
X178890000Y-58697500D03*
X178890000Y-56157500D03*
%TD*%
D14*
%TO.C,SW2*%
X104430000Y-117550000D03*
X104430000Y-111050000D03*
X108930000Y-117550000D03*
X108930000Y-111050000D03*
%TD*%
D15*
%TO.C,J16*%
X149000000Y-145267500D03*
D16*
X152500000Y-145267500D03*
X156000000Y-145267500D03*
%TD*%
D17*
%TO.C,R4*%
X153670000Y-93980000D03*
X161290000Y-93980000D03*
%TD*%
D11*
%TO.C,J9*%
X146050000Y-116840000D03*
D12*
X146050000Y-119380000D03*
%TD*%
D18*
%TO.C,C7*%
X187960000Y-73620000D03*
X187960000Y-68620000D03*
%TD*%
D19*
%TO.C,U2*%
X143400000Y-72400000D03*
X143400000Y-73670000D03*
X143400000Y-74935000D03*
X143400000Y-76205000D03*
X143400000Y-77475000D03*
X143400000Y-78745000D03*
X143400000Y-80015000D03*
X143400000Y-81285000D03*
X143400000Y-82555000D03*
X143400000Y-83825000D03*
X143400000Y-85095000D03*
X143400000Y-86365000D03*
X143400000Y-87635000D03*
X143400000Y-88905000D03*
D20*
X161680000Y-88905000D03*
X161680000Y-87635000D03*
X161680000Y-86370000D03*
X161680000Y-85100000D03*
X161680000Y-83830000D03*
X161680000Y-82560000D03*
X161680000Y-81290000D03*
X161680000Y-80020000D03*
X161680000Y-78750000D03*
X161680000Y-77480000D03*
X161680000Y-76210000D03*
X161680000Y-74940000D03*
X161680000Y-73670000D03*
X161680000Y-72400000D03*
%TD*%
D17*
%TO.C,R5*%
X120015000Y-78740000D03*
X120015000Y-71120000D03*
%TD*%
D21*
%TO.C,D1*%
X119380000Y-53000000D03*
D22*
X116840000Y-53000000D03*
%TD*%
D18*
%TO.C,C3*%
X114300000Y-126960000D03*
X114300000Y-121960000D03*
%TD*%
D21*
%TO.C,D3*%
X132080000Y-53000000D03*
D22*
X129540000Y-53000000D03*
%TD*%
D17*
%TO.C,R1*%
X118110000Y-66040000D03*
X118110000Y-58420000D03*
%TD*%
D15*
%TO.C,J12*%
X119000000Y-145267500D03*
D16*
X122500000Y-145267500D03*
X126000000Y-145267500D03*
%TD*%
D14*
%TO.C,SW1*%
X104430000Y-107390000D03*
X104430000Y-100890000D03*
X108930000Y-107390000D03*
X108930000Y-100890000D03*
%TD*%
D18*
%TO.C,C2*%
X114300000Y-116800000D03*
X114300000Y-111800000D03*
%TD*%
D23*
%TO.C,J3*%
X116007500Y-91420000D03*
D18*
X116007500Y-88920000D03*
X114007500Y-88920000D03*
X114007500Y-91420000D03*
D24*
X111147500Y-96170000D03*
X111147500Y-84170000D03*
%TD*%
D17*
%TO.C,R6*%
X125730000Y-66040000D03*
X125730000Y-58420000D03*
%TD*%
D11*
%TO.C,J1*%
X110490000Y-78740000D03*
D12*
X110490000Y-76200000D03*
X110490000Y-73660000D03*
X110490000Y-71120000D03*
X110490000Y-68580000D03*
%TD*%
D15*
%TO.C,J14*%
X134000000Y-145267500D03*
D16*
X137500000Y-145267500D03*
X141000000Y-145267500D03*
%TD*%
D25*
%TO.C,C6*%
X180340000Y-70810000D03*
D18*
X180340000Y-67310000D03*
%TD*%
D15*
%TO.C,J13*%
X126500000Y-129767500D03*
D16*
X130000000Y-129767500D03*
X133500000Y-129767500D03*
%TD*%
D15*
%TO.C,J19*%
X171500000Y-129767500D03*
D16*
X175000000Y-129767500D03*
X178500000Y-129767500D03*
%TD*%
D11*
%TO.C,J10*%
X149860000Y-116840000D03*
D12*
X149860000Y-119380000D03*
%TD*%
D11*
%TO.C,J11*%
X153670000Y-116840000D03*
D12*
X153670000Y-119380000D03*
%TD*%
D15*
%TO.C,J15*%
X141500000Y-129767500D03*
D16*
X145000000Y-129767500D03*
X148500000Y-129767500D03*
%TD*%
D14*
%TO.C,SW3*%
X104430000Y-127710000D03*
X104430000Y-121210000D03*
X108930000Y-127710000D03*
X108930000Y-121210000D03*
%TD*%
D11*
%TO.C,J4*%
X127000000Y-116840000D03*
D12*
X127000000Y-119380000D03*
%TD*%
D18*
%TO.C,C1*%
X114300000Y-106640000D03*
X114300000Y-101640000D03*
%TD*%
D17*
%TO.C,R3*%
X143510000Y-93980000D03*
X151130000Y-93980000D03*
%TD*%
D11*
%TO.C,J8*%
X142240000Y-116840000D03*
D12*
X142240000Y-119380000D03*
%TD*%
D11*
%TO.C,J5*%
X130810000Y-116840000D03*
D12*
X130810000Y-119380000D03*
%TD*%
D21*
%TO.C,D2*%
X125730000Y-53000000D03*
D22*
X123190000Y-53000000D03*
%TD*%
D15*
%TO.C,J17*%
X156500000Y-129767500D03*
D16*
X160000000Y-129767500D03*
X163500000Y-129767500D03*
%TD*%
D17*
%TO.C,R2*%
X121920000Y-66040000D03*
X121920000Y-58420000D03*
%TD*%
D15*
%TO.C,J18*%
X164000000Y-145267500D03*
D16*
X167500000Y-145267500D03*
X171000000Y-145267500D03*
%TD*%
M02*
