%TF.GenerationSoftware,KiCad,Pcbnew,9.0.7*%
%TF.CreationDate,2026-02-03T14:20:57+01:00*%
%TF.ProjectId,lokho2-rpico-purple,6c6f6b68-6f32-42d7-9270-69636f2d7075,rev?*%
%TF.SameCoordinates,Original*%
%TF.FileFunction,Copper,L2,Bot*%
%TF.FilePolarity,Positive*%
%FSLAX46Y46*%
G04 Gerber Fmt 4.6, Leading zero omitted, Abs format (unit mm)*
G04 Created by KiCad (PCBNEW 9.0.7) date 2026-02-03 14:20:57*
%MOMM*%
%LPD*%
G01*
G04 APERTURE LIST*
G04 Aperture macros list*
%AMRoundRect*
0 Rectangle with rounded corners*
0 $1 Rounding radius*
0 $2 $3 $4 $5 $6 $7 $8 $9 X,Y pos of 4 corners*
0 Add a 4 corners polygon primitive as box body*
4,1,4,$2,$3,$4,$5,$6,$7,$8,$9,$2,$3,0*
0 Add four circle primitives for the rounded corners*
1,1,$1+$1,$2,$3*
1,1,$1+$1,$4,$5*
1,1,$1+$1,$6,$7*
1,1,$1+$1,$8,$9*
0 Add four rect primitives between the rounded corners*
20,1,$1+$1,$2,$3,$4,$5,0*
20,1,$1+$1,$4,$5,$6,$7,0*
20,1,$1+$1,$6,$7,$8,$9,0*
20,1,$1+$1,$8,$9,$2,$3,0*%
%AMFreePoly0*
4,1,37,0.603843,0.796157,0.639018,0.796157,0.711114,0.766294,0.766294,0.711114,0.796157,0.639018,0.796157,0.603843,0.800000,0.600000,0.800000,-0.600000,0.796157,-0.603843,0.796157,-0.639018,0.766294,-0.711114,0.711114,-0.766294,0.639018,-0.796157,0.603843,-0.796157,0.600000,-0.800000,0.000000,-0.800000,0.000000,-0.796148,-0.078414,-0.796148,-0.232228,-0.765552,-0.377117,-0.705537,
-0.507515,-0.618408,-0.618408,-0.507515,-0.705537,-0.377117,-0.765552,-0.232228,-0.796148,-0.078414,-0.796148,0.078414,-0.765552,0.232228,-0.705537,0.377117,-0.618408,0.507515,-0.507515,0.618408,-0.377117,0.705537,-0.232228,0.765552,-0.078414,0.796148,0.000000,0.796148,0.000000,0.800000,0.600000,0.800000,0.603843,0.796157,0.603843,0.796157,$1*%
%AMFreePoly1*
4,1,37,0.000000,0.796148,0.078414,0.796148,0.232228,0.765552,0.377117,0.705537,0.507515,0.618408,0.618408,0.507515,0.705537,0.377117,0.765552,0.232228,0.796148,0.078414,0.796148,-0.078414,0.765552,-0.232228,0.705537,-0.377117,0.618408,-0.507515,0.507515,-0.618408,0.377117,-0.705537,0.232228,-0.765552,0.078414,-0.796148,0.000000,-0.796148,0.000000,-0.800000,-0.600000,-0.800000,
-0.603843,-0.796157,-0.639018,-0.796157,-0.711114,-0.766294,-0.766294,-0.711114,-0.796157,-0.639018,-0.796157,-0.603843,-0.800000,-0.600000,-0.800000,0.600000,-0.796157,0.603843,-0.796157,0.639018,-0.766294,0.711114,-0.711114,0.766294,-0.639018,0.796157,-0.603843,0.796157,-0.600000,0.800000,0.000000,0.800000,0.000000,0.796148,0.000000,0.796148,$1*%
G04 Aperture macros list end*
%TA.AperFunction,ComponentPad*%
%ADD10RoundRect,0.200000X0.600000X-0.600000X0.600000X0.600000X-0.600000X0.600000X-0.600000X-0.600000X0*%
%TD*%
%TA.AperFunction,ComponentPad*%
%ADD11C,1.600000*%
%TD*%
%TA.AperFunction,ComponentPad*%
%ADD12FreePoly0,90.000000*%
%TD*%
%TA.AperFunction,ComponentPad*%
%ADD13FreePoly1,90.000000*%
%TD*%
%TA.AperFunction,ComponentPad*%
%ADD14R,1.700000X1.700000*%
%TD*%
%TA.AperFunction,ComponentPad*%
%ADD15C,1.700000*%
%TD*%
%TA.AperFunction,ComponentPad*%
%ADD16RoundRect,0.250000X0.550000X-0.550000X0.550000X0.550000X-0.550000X0.550000X-0.550000X-0.550000X0*%
%TD*%
%TA.AperFunction,ComponentPad*%
%ADD17RoundRect,0.250000X0.600000X-0.600000X0.600000X0.600000X-0.600000X0.600000X-0.600000X-0.600000X0*%
%TD*%
%TA.AperFunction,ComponentPad*%
%ADD18RoundRect,0.250000X-0.550000X-0.550000X0.550000X-0.550000X0.550000X0.550000X-0.550000X0.550000X0*%
%TD*%
%TA.AperFunction,ComponentPad*%
%ADD19C,2.000000*%
%TD*%
%TA.AperFunction,ViaPad*%
%ADD20C,1.000000*%
%TD*%
%TA.AperFunction,Conductor*%
%ADD21C,0.700000*%
%TD*%
%TA.AperFunction,Conductor*%
%ADD22C,0.350000*%
%TD*%
G04 APERTURE END LIST*
D10*
%TO.P,A1,1,GPIO0*%
%TO.N,GPIO0*%
X103810000Y-105880000D03*
D11*
%TO.P,A1,2,GPIO1*%
%TO.N,GPIO1*%
X106350000Y-105880000D03*
D12*
%TO.P,A1,3,GPIO2*%
%TO.N,GPIO2*%
X108890000Y-105880000D03*
D11*
%TO.P,A1,4,GPIO3*%
%TO.N,GPIO3*%
X111430000Y-105880000D03*
%TO.P,A1,5,GPIO4*%
%TO.N,GPIO4*%
X113970000Y-105880000D03*
%TO.P,A1,6,GND*%
%TO.N,GND*%
X116510000Y-105880000D03*
%TO.P,A1,7,GPIO5*%
%TO.N,GPIO5*%
X119050000Y-105880000D03*
D12*
%TO.P,A1,8,GPIO6*%
%TO.N,GPIO6*%
X121590000Y-105880000D03*
D11*
%TO.P,A1,9,GPIO7*%
%TO.N,GPIO7*%
X124130000Y-105880000D03*
%TO.P,A1,10,GPIO8*%
%TO.N,GPIO8*%
X126670000Y-105880000D03*
%TO.P,A1,11,GPIO9*%
%TO.N,GPIO9*%
X129210000Y-105880000D03*
%TO.P,A1,12,GPIO10*%
%TO.N,GPIO10*%
X131750000Y-105880000D03*
D12*
%TO.P,A1,13,GPIO11*%
%TO.N,GPIO11*%
X134290000Y-105880000D03*
D11*
%TO.P,A1,14,GPIO12*%
%TO.N,GPIO12*%
X136830000Y-105880000D03*
%TO.P,A1,15,GND*%
%TO.N,GND*%
X139370000Y-105880000D03*
%TO.P,A1,16,GPIO13*%
%TO.N,GPIO13*%
X141910000Y-105880000D03*
%TO.P,A1,17,GPIO14*%
%TO.N,GPIO14*%
X144450000Y-105880000D03*
D12*
%TO.P,A1,18,GPIO15*%
%TO.N,GPIO15*%
X146990000Y-105880000D03*
D11*
%TO.P,A1,19,GPIO16*%
%TO.N,SPI_MISO*%
X149530000Y-105880000D03*
%TO.P,A1,20,GPIO17*%
%TO.N,GPIO17*%
X152070000Y-105880000D03*
%TO.P,A1,21,GPIO18*%
%TO.N,SPI_SCK*%
X152070000Y-88100000D03*
%TO.P,A1,22,GPIO19*%
%TO.N,SPI_MOSI*%
X149530000Y-88100000D03*
D13*
%TO.P,A1,23,GPIO20*%
%TO.N,SPI_S0*%
X146990000Y-88100000D03*
D11*
%TO.P,A1,24,GPIO21*%
%TO.N,SPI_S1*%
X144450000Y-88100000D03*
%TO.P,A1,25,GPIO22*%
%TO.N,SPI_S2*%
X141910000Y-88100000D03*
%TO.P,A1,26,GPIO23*%
%TO.N,SPI_S3*%
X139370000Y-88100000D03*
%TO.P,A1,27,GPIO24*%
%TO.N,GP*%
X136830000Y-88100000D03*
D13*
%TO.P,A1,28,GPIO25*%
%TO.N,GPIO25*%
X134290000Y-88100000D03*
D11*
%TO.P,A1,29,AGND*%
%TO.N,GND*%
X131750000Y-88100000D03*
%TO.P,A1,30,GPIO26_ADC0*%
%TO.N,GPIO26*%
X129210000Y-88100000D03*
%TO.P,A1,31,GPIO27_ADC1*%
%TO.N,GPIO27*%
X126670000Y-88100000D03*
%TO.P,A1,32,GPIO28_ADC2*%
%TO.N,GPIO28*%
X124130000Y-88100000D03*
D13*
%TO.P,A1,33,GPIO29_ADC3*%
%TO.N,GPIO29*%
X121590000Y-88100000D03*
D11*
%TO.P,A1,34,RUN*%
%TO.N,Net-(A1-RUN)*%
X119050000Y-88100000D03*
%TO.P,A1,35,GND*%
%TO.N,GND*%
X116510000Y-88100000D03*
%TO.P,A1,36,3V3*%
%TO.N,+3V3*%
X113970000Y-88100000D03*
%TO.P,A1,37,3V3_EN*%
%TO.N,unconnected-(A1-3V3_EN-Pad37)*%
X111430000Y-88100000D03*
D13*
%TO.P,A1,38,GND*%
%TO.N,GND*%
X108890000Y-88100000D03*
D11*
%TO.P,A1,39,VSYS*%
%TO.N,unconnected-(A1-VSYS-Pad39)*%
X106350000Y-88100000D03*
%TO.P,A1,40,VBUS*%
%TO.N,unconnected-(A1-VBUS-Pad40)*%
X103810000Y-88100000D03*
%TD*%
D14*
%TO.P,J2,1,Pin_1*%
%TO.N,GPIO14*%
X160960000Y-135090000D03*
D15*
%TO.P,J2,2,Pin_2*%
%TO.N,GND*%
X160960000Y-137630000D03*
%TO.P,J2,3,Pin_3*%
%TO.N,GPIO13*%
X158420000Y-135090000D03*
%TO.P,J2,4,Pin_4*%
%TO.N,GND*%
X158420000Y-137630000D03*
%TO.P,J2,5,Pin_5*%
%TO.N,GPIO12*%
X155880000Y-135090000D03*
%TO.P,J2,6,Pin_6*%
%TO.N,GND*%
X155880000Y-137630000D03*
%TO.P,J2,7,Pin_7*%
%TO.N,GPIO11*%
X153340000Y-135090000D03*
%TO.P,J2,8,Pin_8*%
%TO.N,GND*%
X153340000Y-137630000D03*
%TO.P,J2,9,Pin_9*%
%TO.N,GPIO10*%
X150800000Y-135090000D03*
%TO.P,J2,10,Pin_10*%
%TO.N,GND*%
X150800000Y-137630000D03*
%TO.P,J2,11,Pin_11*%
%TO.N,GPIO9*%
X148260000Y-135090000D03*
%TO.P,J2,12,Pin_12*%
%TO.N,GND*%
X148260000Y-137630000D03*
%TO.P,J2,13,Pin_13*%
%TO.N,GPIO8*%
X145720000Y-135090000D03*
%TO.P,J2,14,Pin_14*%
%TO.N,GND*%
X145720000Y-137630000D03*
%TO.P,J2,15,Pin_15*%
%TO.N,GPIO7*%
X143180000Y-135090000D03*
%TO.P,J2,16,Pin_16*%
%TO.N,GND*%
X143180000Y-137630000D03*
%TO.P,J2,17,Pin_17*%
%TO.N,GPIO6*%
X140640000Y-135090000D03*
%TO.P,J2,18,Pin_18*%
%TO.N,GND*%
X140640000Y-137630000D03*
%TO.P,J2,19,Pin_19*%
%TO.N,GPIO5*%
X138100000Y-135090000D03*
%TO.P,J2,20,Pin_20*%
%TO.N,GND*%
X138100000Y-137630000D03*
%TD*%
D11*
%TO.P,C2,1*%
%TO.N,GND*%
X116550000Y-79210000D03*
%TO.P,C2,2*%
%TO.N,+3V3*%
X121550000Y-79210000D03*
%TD*%
D14*
%TO.P,J1,1,Pin_1*%
%TO.N,GPIO4*%
X130480000Y-135090000D03*
D15*
%TO.P,J1,2,Pin_2*%
%TO.N,+3V3*%
X130480000Y-137630000D03*
%TO.P,J1,3,Pin_3*%
%TO.N,GPIO3*%
X127940000Y-135090000D03*
%TO.P,J1,4,Pin_4*%
%TO.N,+3V3*%
X127940000Y-137630000D03*
%TO.P,J1,5,Pin_5*%
%TO.N,GPIO2*%
X125400000Y-135090000D03*
%TO.P,J1,6,Pin_6*%
%TO.N,unconnected-(J1-Pin_6-Pad6)*%
X125400000Y-137630000D03*
%TO.P,J1,7,Pin_7*%
%TO.N,GPIO1*%
X122860000Y-135090000D03*
%TO.P,J1,8,Pin_8*%
%TO.N,GND*%
X122860000Y-137630000D03*
%TO.P,J1,9,Pin_9*%
%TO.N,GPIO0*%
X120320000Y-135090000D03*
%TO.P,J1,10,Pin_10*%
%TO.N,GND*%
X120320000Y-137630000D03*
%TD*%
D16*
%TO.P,C1,1*%
%TO.N,+3V3*%
X120320000Y-71280000D03*
D11*
%TO.P,C1,2*%
%TO.N,GND*%
X120320000Y-67780000D03*
%TD*%
D14*
%TO.P,J3,1,Pin_1*%
%TO.N,GPIO29*%
X178740000Y-135090000D03*
D15*
%TO.P,J3,2,Pin_2*%
%TO.N,GND*%
X178740000Y-137630000D03*
%TO.P,J3,3,Pin_3*%
%TO.N,GPIO28*%
X176200000Y-135090000D03*
%TO.P,J3,4,Pin_4*%
%TO.N,GND*%
X176200000Y-137630000D03*
%TO.P,J3,5,Pin_5*%
%TO.N,GPIO27*%
X173660000Y-135090000D03*
%TO.P,J3,6,Pin_6*%
%TO.N,GND*%
X173660000Y-137630000D03*
%TO.P,J3,7,Pin_7*%
%TO.N,GPIO26*%
X171120000Y-135090000D03*
%TO.P,J3,8,Pin_8*%
%TO.N,GND*%
X171120000Y-137630000D03*
%TO.P,J3,9,Pin_9*%
%TO.N,+3V3*%
X168580000Y-135090000D03*
%TO.P,J3,10,Pin_10*%
%TO.N,GND*%
X168580000Y-137630000D03*
%TD*%
D17*
%TO.P,SPI1,1,Pin_1*%
%TO.N,SPI_MISO*%
X161110000Y-58697500D03*
D15*
%TO.P,SPI1,2,Pin_2*%
%TO.N,GND*%
X161110000Y-56157500D03*
%TO.P,SPI1,3,Pin_3*%
%TO.N,SPI_MOSI*%
X163650000Y-58697500D03*
%TO.P,SPI1,4,Pin_4*%
%TO.N,GND*%
X163650000Y-56157500D03*
%TO.P,SPI1,5,Pin_5*%
%TO.N,SPI_SCK*%
X166190000Y-58697500D03*
%TO.P,SPI1,6,Pin_6*%
%TO.N,+3V3*%
X166190000Y-56157500D03*
%TO.P,SPI1,7,Pin_7*%
%TO.N,SPI_S0*%
X168730000Y-58697500D03*
%TO.P,SPI1,8,Pin_8*%
%TO.N,+3V3*%
X168730000Y-56157500D03*
%TO.P,SPI1,9,Pin_9*%
%TO.N,SPI_S1*%
X171270000Y-58697500D03*
%TO.P,SPI1,10,Pin_10*%
%TO.N,+3V3*%
X171270000Y-56157500D03*
%TO.P,SPI1,11,Pin_11*%
%TO.N,SPI_S2*%
X173810000Y-58697500D03*
%TO.P,SPI1,12,Pin_12*%
%TO.N,+3V3*%
X173810000Y-56157500D03*
%TO.P,SPI1,13,Pin_13*%
%TO.N,SPI_S3*%
X176350000Y-58697500D03*
%TO.P,SPI1,14,Pin_14*%
%TO.N,GND*%
X176350000Y-56157500D03*
%TO.P,SPI1,15,Pin_15*%
%TO.N,GP*%
X178890000Y-58697500D03*
%TO.P,SPI1,16,Pin_16*%
%TO.N,GND*%
X178890000Y-56157500D03*
%TD*%
D11*
%TO.P,C4,1*%
%TO.N,GND*%
X188860000Y-130010000D03*
%TO.P,C4,2*%
%TO.N,+3V3*%
X183860000Y-130010000D03*
%TD*%
D18*
%TO.P,C3,1*%
%TO.N,+3V3*%
X184274698Y-121120000D03*
D11*
%TO.P,C3,2*%
%TO.N,GND*%
X187774698Y-121120000D03*
%TD*%
D19*
%TO.P,SW1,1,1*%
%TO.N,GND*%
X105370000Y-79920000D03*
X105370000Y-73420000D03*
%TO.P,SW1,2,2*%
%TO.N,Net-(A1-RUN)*%
X109870000Y-79920000D03*
X109870000Y-73420000D03*
%TD*%
D20*
%TO.N,+3V3*%
X167310000Y-127470000D03*
%TO.N,SPI_MISO*%
X160960000Y-74130000D03*
%TO.N,SPI_MOSI*%
X163500000Y-71590000D03*
%TO.N,SPI_SCK*%
X166040000Y-72860000D03*
%TO.N,+3V3*%
X167310000Y-76670000D03*
X167310000Y-85560000D03*
X113970000Y-75400000D03*
%TO.N,SPI_S0*%
X168580000Y-70320000D03*
%TO.N,SPI_S1*%
X171120000Y-69050000D03*
%TO.N,SPI_S2*%
X173660000Y-67780000D03*
%TO.N,SPI_S3*%
X176200000Y-66510000D03*
%TO.N,GP*%
X178740000Y-65240000D03*
%TD*%
D21*
%TO.N,+3V3*%
X167310000Y-130010000D02*
X167310000Y-127470000D01*
D22*
%TO.N,SPI_MISO*%
X155880000Y-75400000D02*
X157150000Y-74130000D01*
X155880000Y-89370000D02*
X155880000Y-79210000D01*
X157150000Y-74130000D02*
X160960000Y-74130000D01*
X155880000Y-79210000D02*
X155880000Y-75400000D01*
X155880000Y-99530000D02*
X155880000Y-89370000D01*
X149530000Y-105880000D02*
X155880000Y-99530000D01*
D21*
%TO.N,GND*%
X103810000Y-55080000D02*
X103810000Y-67780000D01*
D22*
X138100000Y-99530000D02*
X139370000Y-100800000D01*
X116510000Y-99530000D02*
X131750000Y-99530000D01*
D21*
X121590000Y-141440000D02*
X160960000Y-141440000D01*
X160960000Y-137630000D02*
X160960000Y-141440000D01*
X103810000Y-71860000D02*
X105370000Y-73420000D01*
X160960000Y-141440000D02*
X183820000Y-141440000D01*
X116550000Y-79210000D02*
X116550000Y-88060000D01*
X131750000Y-88100000D02*
X131750000Y-84290000D01*
X120320000Y-67780000D02*
X103810000Y-67780000D01*
X162230000Y-56157500D02*
X163650000Y-56157500D01*
X176835000Y-53810000D02*
X162230000Y-53810000D01*
D22*
X181280000Y-53810000D02*
X176835000Y-53810000D01*
D21*
X108890000Y-88100000D02*
X108890000Y-91910000D01*
D22*
X105370000Y-79920000D02*
X104370000Y-79920000D01*
X104370000Y-79920000D02*
X103810000Y-80480000D01*
D21*
X168580000Y-137630000D02*
X183820000Y-137630000D01*
X162230000Y-56157500D02*
X162230000Y-53810000D01*
X177470000Y-56157500D02*
X176350000Y-56157500D01*
X178890000Y-56157500D02*
X177470000Y-56157500D01*
X105080000Y-53810000D02*
X103810000Y-55080000D01*
D22*
X116510000Y-99530000D02*
X116510000Y-105880000D01*
D21*
X121590000Y-137630000D02*
X121590000Y-141440000D01*
X120320000Y-137630000D02*
X121590000Y-137630000D01*
X116510000Y-105880000D02*
X116510000Y-113500000D01*
D22*
X116510000Y-99530000D02*
X116510000Y-88100000D01*
D21*
X103810000Y-71860000D02*
X103810000Y-80480000D01*
X162230000Y-53810000D02*
X105080000Y-53810000D01*
X196520000Y-133820000D02*
X196520000Y-53810000D01*
X161110000Y-56157500D02*
X162230000Y-56157500D01*
X139370000Y-105880000D02*
X139370000Y-110960000D01*
X187774698Y-128924698D02*
X187774698Y-129865302D01*
D22*
X131750000Y-99530000D02*
X138100000Y-99530000D01*
D21*
X103810000Y-81750000D02*
X105080000Y-83020000D01*
X105080000Y-83020000D02*
X107620000Y-83020000D01*
X187774698Y-121120000D02*
X187774698Y-128924698D01*
X183820000Y-133820000D02*
X196520000Y-133820000D01*
X138100000Y-137630000D02*
X160960000Y-137630000D01*
X121590000Y-137630000D02*
X122860000Y-137630000D01*
X187774698Y-128924698D02*
X188860000Y-130010000D01*
D22*
X131750000Y-99530000D02*
X131750000Y-88100000D01*
D21*
X183820000Y-141440000D02*
X183820000Y-137630000D01*
D22*
X139370000Y-100800000D02*
X139370000Y-105880000D01*
D21*
X103810000Y-67780000D02*
X103810000Y-71860000D01*
X196520000Y-53810000D02*
X176835000Y-53810000D01*
X177470000Y-56157500D02*
X177470000Y-54445000D01*
X187774698Y-129865302D02*
X183820000Y-133820000D01*
X177470000Y-54445000D02*
X176835000Y-53810000D01*
X108890000Y-91910000D02*
X116510000Y-99530000D01*
X116550000Y-88060000D02*
X116510000Y-88100000D01*
X107620000Y-83020000D02*
X108890000Y-84290000D01*
X108890000Y-84290000D02*
X108890000Y-88100000D01*
X103810000Y-80480000D02*
X103810000Y-81750000D01*
X183820000Y-137630000D02*
X183820000Y-133820000D01*
D22*
%TO.N,SPI_MOSI*%
X153340000Y-71590000D02*
X163500000Y-71590000D01*
X149530000Y-75400000D02*
X153340000Y-71590000D01*
X149530000Y-88100000D02*
X149530000Y-75400000D01*
%TO.N,SPI_SCK*%
X154610000Y-72860000D02*
X166040000Y-72860000D01*
X152070000Y-88100000D02*
X152070000Y-75400000D01*
X152070000Y-75400000D02*
X154610000Y-72860000D01*
D21*
%TO.N,+3V3*%
X135560000Y-131280000D02*
X167310000Y-131280000D01*
X183860000Y-130010000D02*
X167310000Y-130010000D01*
X168580000Y-132550000D02*
X168580000Y-135090000D01*
X130480000Y-137630000D02*
X134290000Y-137630000D01*
X113970000Y-75400000D02*
X113970000Y-88100000D01*
X118090000Y-71280000D02*
X113970000Y-75400000D01*
X184274698Y-121120000D02*
X176200000Y-121120000D01*
X130480000Y-137630000D02*
X127940000Y-137630000D01*
X176200000Y-121120000D02*
X167310000Y-130010000D01*
X117740000Y-75400000D02*
X113970000Y-75400000D01*
X134290000Y-132550000D02*
X135560000Y-131280000D01*
X167310000Y-131280000D02*
X167310000Y-130010000D01*
X167310000Y-131280000D02*
X168580000Y-132550000D01*
X134290000Y-137630000D02*
X134290000Y-132550000D01*
X120320000Y-71280000D02*
X118090000Y-71280000D01*
X121550000Y-79210000D02*
X117740000Y-75400000D01*
X167310000Y-85560000D02*
X167310000Y-76670000D01*
D22*
%TO.N,SPI_S0*%
X146990000Y-75400000D02*
X152070000Y-70320000D01*
X152070000Y-70320000D02*
X168580000Y-70320000D01*
X146990000Y-88100000D02*
X146990000Y-75400000D01*
%TO.N,SPI_S1*%
X150800000Y-69050000D02*
X171120000Y-69050000D01*
X144450000Y-88100000D02*
X144450000Y-75400000D01*
X144450000Y-75400000D02*
X150800000Y-69050000D01*
%TO.N,SPI_S2*%
X141910000Y-88100000D02*
X141910000Y-75400000D01*
X141910000Y-75400000D02*
X149530000Y-67780000D01*
X149530000Y-67780000D02*
X173660000Y-67780000D01*
%TO.N,SPI_S3*%
X172390000Y-66510000D02*
X176200000Y-66510000D01*
X139370000Y-75400000D02*
X148260000Y-66510000D01*
X148260000Y-66510000D02*
X172390000Y-66510000D01*
X139370000Y-88100000D02*
X139370000Y-75400000D01*
%TO.N,GP*%
X136830000Y-75400000D02*
X146990000Y-65240000D01*
X146990000Y-65240000D02*
X171120000Y-65240000D01*
X136830000Y-88100000D02*
X136830000Y-75400000D01*
X171120000Y-65240000D02*
X178740000Y-65240000D01*
%TD*%
%TA.AperFunction,Conductor*%
%TO.N,GND*%
G36*
X121661444Y-135743999D02*
G01*
X121700486Y-135789056D01*
X121704951Y-135797820D01*
X121829890Y-135969786D01*
X121980213Y-136120109D01*
X122152179Y-136245048D01*
X122152181Y-136245049D01*
X122152184Y-136245051D01*
X122161493Y-136249794D01*
X122212290Y-136297766D01*
X122229087Y-136365587D01*
X122206552Y-136431722D01*
X122161505Y-136470760D01*
X122152446Y-136475376D01*
X122152440Y-136475380D01*
X122098282Y-136514727D01*
X122098282Y-136514728D01*
X122730591Y-137147037D01*
X122667007Y-137164075D01*
X122552993Y-137229901D01*
X122459901Y-137322993D01*
X122394075Y-137437007D01*
X122377037Y-137500591D01*
X121744728Y-136868282D01*
X121744727Y-136868282D01*
X121705380Y-136922440D01*
X121700483Y-136932051D01*
X121652506Y-136982845D01*
X121584684Y-136999638D01*
X121518550Y-136977098D01*
X121479516Y-136932048D01*
X121474626Y-136922452D01*
X121435270Y-136868282D01*
X121435269Y-136868282D01*
X120802962Y-137500590D01*
X120785925Y-137437007D01*
X120720099Y-137322993D01*
X120627007Y-137229901D01*
X120512993Y-137164075D01*
X120449409Y-137147037D01*
X121081716Y-136514728D01*
X121027547Y-136475373D01*
X121027547Y-136475372D01*
X121018500Y-136470763D01*
X120967706Y-136422788D01*
X120950912Y-136354966D01*
X120973451Y-136288832D01*
X121018508Y-136249793D01*
X121027816Y-136245051D01*
X121114147Y-136182328D01*
X121199786Y-136120109D01*
X121199788Y-136120106D01*
X121199792Y-136120104D01*
X121350104Y-135969792D01*
X121350106Y-135969788D01*
X121350109Y-135969786D01*
X121475048Y-135797820D01*
X121475047Y-135797820D01*
X121475051Y-135797816D01*
X121479514Y-135789054D01*
X121527488Y-135738259D01*
X121595308Y-135721463D01*
X121661444Y-135743999D01*
G37*
%TD.AperFunction*%
%TA.AperFunction,Conductor*%
G36*
X169921444Y-135743999D02*
G01*
X169960486Y-135789056D01*
X169964951Y-135797820D01*
X170089890Y-135969786D01*
X170240213Y-136120109D01*
X170412179Y-136245048D01*
X170412181Y-136245049D01*
X170412184Y-136245051D01*
X170421493Y-136249794D01*
X170472290Y-136297766D01*
X170489087Y-136365587D01*
X170466552Y-136431722D01*
X170421505Y-136470760D01*
X170412446Y-136475376D01*
X170412440Y-136475380D01*
X170358282Y-136514727D01*
X170358282Y-136514728D01*
X170990591Y-137147037D01*
X170927007Y-137164075D01*
X170812993Y-137229901D01*
X170719901Y-137322993D01*
X170654075Y-137437007D01*
X170637037Y-137500591D01*
X170004728Y-136868282D01*
X170004727Y-136868282D01*
X169965380Y-136922440D01*
X169960483Y-136932051D01*
X169912506Y-136982845D01*
X169844684Y-136999638D01*
X169778550Y-136977098D01*
X169739516Y-136932048D01*
X169734626Y-136922452D01*
X169695270Y-136868282D01*
X169062962Y-137500590D01*
X169045925Y-137437007D01*
X168980099Y-137322993D01*
X168887007Y-137229901D01*
X168772993Y-137164075D01*
X168709409Y-137147037D01*
X169341716Y-136514728D01*
X169287547Y-136475373D01*
X169287547Y-136475372D01*
X169278500Y-136470763D01*
X169227706Y-136422788D01*
X169210912Y-136354966D01*
X169233451Y-136288832D01*
X169278508Y-136249793D01*
X169287816Y-136245051D01*
X169374147Y-136182328D01*
X169459786Y-136120109D01*
X169459788Y-136120106D01*
X169459792Y-136120104D01*
X169610104Y-135969792D01*
X169610106Y-135969788D01*
X169610109Y-135969786D01*
X169735048Y-135797820D01*
X169735047Y-135797820D01*
X169735051Y-135797816D01*
X169739514Y-135789054D01*
X169787488Y-135738259D01*
X169855308Y-135721463D01*
X169921444Y-135743999D01*
G37*
%TD.AperFunction*%
%TA.AperFunction,Conductor*%
G36*
X172461444Y-135743999D02*
G01*
X172500486Y-135789056D01*
X172504951Y-135797820D01*
X172629890Y-135969786D01*
X172780213Y-136120109D01*
X172952179Y-136245048D01*
X172952181Y-136245049D01*
X172952184Y-136245051D01*
X172961493Y-136249794D01*
X173012290Y-136297766D01*
X173029087Y-136365587D01*
X173006552Y-136431722D01*
X172961505Y-136470760D01*
X172952446Y-136475376D01*
X172952440Y-136475380D01*
X172898282Y-136514727D01*
X172898282Y-136514728D01*
X173530591Y-137147037D01*
X173467007Y-137164075D01*
X173352993Y-137229901D01*
X173259901Y-137322993D01*
X173194075Y-137437007D01*
X173177037Y-137500591D01*
X172544728Y-136868282D01*
X172544727Y-136868282D01*
X172505380Y-136922440D01*
X172500483Y-136932051D01*
X172452506Y-136982845D01*
X172384684Y-136999638D01*
X172318550Y-136977098D01*
X172279516Y-136932048D01*
X172274626Y-136922452D01*
X172235270Y-136868282D01*
X171602962Y-137500590D01*
X171585925Y-137437007D01*
X171520099Y-137322993D01*
X171427007Y-137229901D01*
X171312993Y-137164075D01*
X171249409Y-137147037D01*
X171881716Y-136514728D01*
X171827547Y-136475373D01*
X171827547Y-136475372D01*
X171818500Y-136470763D01*
X171767706Y-136422788D01*
X171750912Y-136354966D01*
X171773451Y-136288832D01*
X171818508Y-136249793D01*
X171827816Y-136245051D01*
X171914147Y-136182328D01*
X171999786Y-136120109D01*
X171999788Y-136120106D01*
X171999792Y-136120104D01*
X172150104Y-135969792D01*
X172150106Y-135969788D01*
X172150109Y-135969786D01*
X172275048Y-135797820D01*
X172275047Y-135797820D01*
X172275051Y-135797816D01*
X172279514Y-135789054D01*
X172327488Y-135738259D01*
X172395308Y-135721463D01*
X172461444Y-135743999D01*
G37*
%TD.AperFunction*%
%TA.AperFunction,Conductor*%
G36*
X175001444Y-135743999D02*
G01*
X175040486Y-135789056D01*
X175044951Y-135797820D01*
X175169890Y-135969786D01*
X175320213Y-136120109D01*
X175492179Y-136245048D01*
X175492181Y-136245049D01*
X175492184Y-136245051D01*
X175501493Y-136249794D01*
X175552290Y-136297766D01*
X175569087Y-136365587D01*
X175546552Y-136431722D01*
X175501505Y-136470760D01*
X175492446Y-136475376D01*
X175492440Y-136475380D01*
X175438282Y-136514727D01*
X175438282Y-136514728D01*
X176070591Y-137147037D01*
X176007007Y-137164075D01*
X175892993Y-137229901D01*
X175799901Y-137322993D01*
X175734075Y-137437007D01*
X175717037Y-137500591D01*
X175084728Y-136868282D01*
X175084727Y-136868282D01*
X175045380Y-136922440D01*
X175040483Y-136932051D01*
X174992506Y-136982845D01*
X174924684Y-136999638D01*
X174858550Y-136977098D01*
X174819516Y-136932048D01*
X174814626Y-136922452D01*
X174775270Y-136868282D01*
X174142962Y-137500590D01*
X174125925Y-137437007D01*
X174060099Y-137322993D01*
X173967007Y-137229901D01*
X173852993Y-137164075D01*
X173789409Y-137147037D01*
X174421716Y-136514728D01*
X174367547Y-136475373D01*
X174367547Y-136475372D01*
X174358500Y-136470763D01*
X174307706Y-136422788D01*
X174290912Y-136354966D01*
X174313451Y-136288832D01*
X174358508Y-136249793D01*
X174367816Y-136245051D01*
X174454147Y-136182328D01*
X174539786Y-136120109D01*
X174539788Y-136120106D01*
X174539792Y-136120104D01*
X174690104Y-135969792D01*
X174690106Y-135969788D01*
X174690109Y-135969786D01*
X174815048Y-135797820D01*
X174815047Y-135797820D01*
X174815051Y-135797816D01*
X174819514Y-135789054D01*
X174867488Y-135738259D01*
X174935308Y-135721463D01*
X175001444Y-135743999D01*
G37*
%TD.AperFunction*%
%TA.AperFunction,Conductor*%
G36*
X177324340Y-135978068D02*
G01*
X177380274Y-136019939D01*
X177397189Y-136050917D01*
X177446202Y-136182328D01*
X177446206Y-136182335D01*
X177532452Y-136297544D01*
X177532455Y-136297547D01*
X177647664Y-136383793D01*
X177647671Y-136383797D01*
X177692618Y-136400561D01*
X177782517Y-136434091D01*
X177842127Y-136440500D01*
X177852685Y-136440499D01*
X177919723Y-136460179D01*
X177940372Y-136476818D01*
X178610591Y-137147037D01*
X178547007Y-137164075D01*
X178432993Y-137229901D01*
X178339901Y-137322993D01*
X178274075Y-137437007D01*
X178257037Y-137500591D01*
X177624728Y-136868282D01*
X177624727Y-136868282D01*
X177585380Y-136922440D01*
X177580483Y-136932051D01*
X177532506Y-136982845D01*
X177464684Y-136999638D01*
X177398550Y-136977098D01*
X177359516Y-136932048D01*
X177354626Y-136922452D01*
X177315270Y-136868282D01*
X177315269Y-136868282D01*
X176682962Y-137500590D01*
X176665925Y-137437007D01*
X176600099Y-137322993D01*
X176507007Y-137229901D01*
X176392993Y-137164075D01*
X176329409Y-137147037D01*
X176961716Y-136514728D01*
X176907547Y-136475373D01*
X176907547Y-136475372D01*
X176898500Y-136470763D01*
X176847706Y-136422788D01*
X176830912Y-136354966D01*
X176853451Y-136288832D01*
X176898508Y-136249793D01*
X176907816Y-136245051D01*
X177079792Y-136120104D01*
X177193329Y-136006566D01*
X177254648Y-135973084D01*
X177324340Y-135978068D01*
G37*
%TD.AperFunction*%
%TA.AperFunction,Conductor*%
G36*
X124201444Y-135743999D02*
G01*
X124240486Y-135789056D01*
X124244951Y-135797820D01*
X124369890Y-135969786D01*
X124520213Y-136120109D01*
X124692182Y-136245050D01*
X124700946Y-136249516D01*
X124751742Y-136297491D01*
X124768536Y-136365312D01*
X124745998Y-136431447D01*
X124700946Y-136470484D01*
X124692182Y-136474949D01*
X124520213Y-136599890D01*
X124369890Y-136750213D01*
X124244949Y-136922182D01*
X124240202Y-136931499D01*
X124192227Y-136982293D01*
X124124405Y-136999087D01*
X124058271Y-136976548D01*
X124019234Y-136931495D01*
X124014626Y-136922452D01*
X123975270Y-136868282D01*
X123975269Y-136868282D01*
X123342962Y-137500590D01*
X123325925Y-137437007D01*
X123260099Y-137322993D01*
X123167007Y-137229901D01*
X123052993Y-137164075D01*
X122989409Y-137147037D01*
X123621716Y-136514728D01*
X123567547Y-136475373D01*
X123567547Y-136475372D01*
X123558500Y-136470763D01*
X123507706Y-136422788D01*
X123490912Y-136354966D01*
X123513451Y-136288832D01*
X123558508Y-136249793D01*
X123567816Y-136245051D01*
X123654147Y-136182328D01*
X123739786Y-136120109D01*
X123739788Y-136120106D01*
X123739792Y-136120104D01*
X123890104Y-135969792D01*
X123890106Y-135969788D01*
X123890109Y-135969786D01*
X124015048Y-135797820D01*
X124015047Y-135797820D01*
X124015051Y-135797816D01*
X124019514Y-135789054D01*
X124067488Y-135738259D01*
X124135308Y-135721463D01*
X124201444Y-135743999D01*
G37*
%TD.AperFunction*%
%TA.AperFunction,Conductor*%
G36*
X139441444Y-135743999D02*
G01*
X139480486Y-135789056D01*
X139484951Y-135797820D01*
X139609890Y-135969786D01*
X139760213Y-136120109D01*
X139932179Y-136245048D01*
X139932181Y-136245049D01*
X139932184Y-136245051D01*
X139941493Y-136249794D01*
X139992290Y-136297766D01*
X140009087Y-136365587D01*
X139986552Y-136431722D01*
X139941505Y-136470760D01*
X139932446Y-136475376D01*
X139932440Y-136475380D01*
X139878282Y-136514727D01*
X139878282Y-136514728D01*
X140510591Y-137147037D01*
X140447007Y-137164075D01*
X140332993Y-137229901D01*
X140239901Y-137322993D01*
X140174075Y-137437007D01*
X140157037Y-137500591D01*
X139524728Y-136868282D01*
X139524727Y-136868282D01*
X139485380Y-136922440D01*
X139480483Y-136932051D01*
X139432506Y-136982845D01*
X139364684Y-136999638D01*
X139298550Y-136977098D01*
X139259516Y-136932048D01*
X139254626Y-136922452D01*
X139215270Y-136868282D01*
X139215269Y-136868282D01*
X138582962Y-137500590D01*
X138565925Y-137437007D01*
X138500099Y-137322993D01*
X138407007Y-137229901D01*
X138292993Y-137164075D01*
X138229409Y-137147037D01*
X138861716Y-136514728D01*
X138807547Y-136475373D01*
X138807547Y-136475372D01*
X138798500Y-136470763D01*
X138747706Y-136422788D01*
X138730912Y-136354966D01*
X138753451Y-136288832D01*
X138798508Y-136249793D01*
X138807816Y-136245051D01*
X138894147Y-136182328D01*
X138979786Y-136120109D01*
X138979788Y-136120106D01*
X138979792Y-136120104D01*
X139130104Y-135969792D01*
X139130106Y-135969788D01*
X139130109Y-135969786D01*
X139255048Y-135797820D01*
X139255047Y-135797820D01*
X139255051Y-135797816D01*
X139259514Y-135789054D01*
X139307488Y-135738259D01*
X139375308Y-135721463D01*
X139441444Y-135743999D01*
G37*
%TD.AperFunction*%
%TA.AperFunction,Conductor*%
G36*
X141981444Y-135743999D02*
G01*
X142020486Y-135789056D01*
X142024951Y-135797820D01*
X142149890Y-135969786D01*
X142300213Y-136120109D01*
X142472179Y-136245048D01*
X142472181Y-136245049D01*
X142472184Y-136245051D01*
X142481493Y-136249794D01*
X142532290Y-136297766D01*
X142549087Y-136365587D01*
X142526552Y-136431722D01*
X142481505Y-136470760D01*
X142472446Y-136475376D01*
X142472440Y-136475380D01*
X142418282Y-136514727D01*
X142418282Y-136514728D01*
X143050591Y-137147037D01*
X142987007Y-137164075D01*
X142872993Y-137229901D01*
X142779901Y-137322993D01*
X142714075Y-137437007D01*
X142697037Y-137500591D01*
X142064728Y-136868282D01*
X142064727Y-136868282D01*
X142025380Y-136922440D01*
X142020483Y-136932051D01*
X141972506Y-136982845D01*
X141904684Y-136999638D01*
X141838550Y-136977098D01*
X141799516Y-136932048D01*
X141794626Y-136922452D01*
X141755270Y-136868282D01*
X141755269Y-136868282D01*
X141122962Y-137500590D01*
X141105925Y-137437007D01*
X141040099Y-137322993D01*
X140947007Y-137229901D01*
X140832993Y-137164075D01*
X140769409Y-137147037D01*
X141401716Y-136514728D01*
X141347547Y-136475373D01*
X141347547Y-136475372D01*
X141338500Y-136470763D01*
X141287706Y-136422788D01*
X141270912Y-136354966D01*
X141293451Y-136288832D01*
X141338508Y-136249793D01*
X141347816Y-136245051D01*
X141434147Y-136182328D01*
X141519786Y-136120109D01*
X141519788Y-136120106D01*
X141519792Y-136120104D01*
X141670104Y-135969792D01*
X141670106Y-135969788D01*
X141670109Y-135969786D01*
X141795048Y-135797820D01*
X141795047Y-135797820D01*
X141795051Y-135797816D01*
X141799514Y-135789054D01*
X141847488Y-135738259D01*
X141915308Y-135721463D01*
X141981444Y-135743999D01*
G37*
%TD.AperFunction*%
%TA.AperFunction,Conductor*%
G36*
X144521444Y-135743999D02*
G01*
X144560486Y-135789056D01*
X144564951Y-135797820D01*
X144689890Y-135969786D01*
X144840213Y-136120109D01*
X145012179Y-136245048D01*
X145012181Y-136245049D01*
X145012184Y-136245051D01*
X145021493Y-136249794D01*
X145072290Y-136297766D01*
X145089087Y-136365587D01*
X145066552Y-136431722D01*
X145021505Y-136470760D01*
X145012446Y-136475376D01*
X145012440Y-136475380D01*
X144958282Y-136514727D01*
X144958282Y-136514728D01*
X145590591Y-137147037D01*
X145527007Y-137164075D01*
X145412993Y-137229901D01*
X145319901Y-137322993D01*
X145254075Y-137437007D01*
X145237037Y-137500591D01*
X144604728Y-136868282D01*
X144604727Y-136868282D01*
X144565380Y-136922440D01*
X144560483Y-136932051D01*
X144512506Y-136982845D01*
X144444684Y-136999638D01*
X144378550Y-136977098D01*
X144339516Y-136932048D01*
X144334626Y-136922452D01*
X144295270Y-136868282D01*
X144295269Y-136868282D01*
X143662962Y-137500590D01*
X143645925Y-137437007D01*
X143580099Y-137322993D01*
X143487007Y-137229901D01*
X143372993Y-137164075D01*
X143309409Y-137147037D01*
X143941716Y-136514728D01*
X143887547Y-136475373D01*
X143887547Y-136475372D01*
X143878500Y-136470763D01*
X143827706Y-136422788D01*
X143810912Y-136354966D01*
X143833451Y-136288832D01*
X143878508Y-136249793D01*
X143887816Y-136245051D01*
X143974147Y-136182328D01*
X144059786Y-136120109D01*
X144059788Y-136120106D01*
X144059792Y-136120104D01*
X144210104Y-135969792D01*
X144210106Y-135969788D01*
X144210109Y-135969786D01*
X144335048Y-135797820D01*
X144335047Y-135797820D01*
X144335051Y-135797816D01*
X144339514Y-135789054D01*
X144387488Y-135738259D01*
X144455308Y-135721463D01*
X144521444Y-135743999D01*
G37*
%TD.AperFunction*%
%TA.AperFunction,Conductor*%
G36*
X147061444Y-135743999D02*
G01*
X147100486Y-135789056D01*
X147104951Y-135797820D01*
X147229890Y-135969786D01*
X147380213Y-136120109D01*
X147552179Y-136245048D01*
X147552181Y-136245049D01*
X147552184Y-136245051D01*
X147561493Y-136249794D01*
X147612290Y-136297766D01*
X147629087Y-136365587D01*
X147606552Y-136431722D01*
X147561505Y-136470760D01*
X147552446Y-136475376D01*
X147552440Y-136475380D01*
X147498282Y-136514727D01*
X147498282Y-136514728D01*
X148130591Y-137147037D01*
X148067007Y-137164075D01*
X147952993Y-137229901D01*
X147859901Y-137322993D01*
X147794075Y-137437007D01*
X147777037Y-137500591D01*
X147144728Y-136868282D01*
X147144727Y-136868282D01*
X147105380Y-136922440D01*
X147100483Y-136932051D01*
X147052506Y-136982845D01*
X146984684Y-136999638D01*
X146918550Y-136977098D01*
X146879516Y-136932048D01*
X146874626Y-136922452D01*
X146835270Y-136868282D01*
X146835269Y-136868282D01*
X146202962Y-137500590D01*
X146185925Y-137437007D01*
X146120099Y-137322993D01*
X146027007Y-137229901D01*
X145912993Y-137164075D01*
X145849409Y-137147037D01*
X146481716Y-136514728D01*
X146427547Y-136475373D01*
X146427547Y-136475372D01*
X146418500Y-136470763D01*
X146367706Y-136422788D01*
X146350912Y-136354966D01*
X146373451Y-136288832D01*
X146418508Y-136249793D01*
X146427816Y-136245051D01*
X146514147Y-136182328D01*
X146599786Y-136120109D01*
X146599788Y-136120106D01*
X146599792Y-136120104D01*
X146750104Y-135969792D01*
X146750106Y-135969788D01*
X146750109Y-135969786D01*
X146875048Y-135797820D01*
X146875047Y-135797820D01*
X146875051Y-135797816D01*
X146879514Y-135789054D01*
X146927488Y-135738259D01*
X146995308Y-135721463D01*
X147061444Y-135743999D01*
G37*
%TD.AperFunction*%
%TA.AperFunction,Conductor*%
G36*
X149601444Y-135743999D02*
G01*
X149640486Y-135789056D01*
X149644951Y-135797820D01*
X149769890Y-135969786D01*
X149920213Y-136120109D01*
X150092179Y-136245048D01*
X150092181Y-136245049D01*
X150092184Y-136245051D01*
X150101493Y-136249794D01*
X150152290Y-136297766D01*
X150169087Y-136365587D01*
X150146552Y-136431722D01*
X150101505Y-136470760D01*
X150092446Y-136475376D01*
X150092440Y-136475380D01*
X150038282Y-136514727D01*
X150038282Y-136514728D01*
X150670591Y-137147037D01*
X150607007Y-137164075D01*
X150492993Y-137229901D01*
X150399901Y-137322993D01*
X150334075Y-137437007D01*
X150317037Y-137500591D01*
X149684728Y-136868282D01*
X149684727Y-136868282D01*
X149645380Y-136922440D01*
X149640483Y-136932051D01*
X149592506Y-136982845D01*
X149524684Y-136999638D01*
X149458550Y-136977098D01*
X149419516Y-136932048D01*
X149414626Y-136922452D01*
X149375270Y-136868282D01*
X149375269Y-136868282D01*
X148742962Y-137500590D01*
X148725925Y-137437007D01*
X148660099Y-137322993D01*
X148567007Y-137229901D01*
X148452993Y-137164075D01*
X148389409Y-137147037D01*
X149021716Y-136514728D01*
X148967547Y-136475373D01*
X148967547Y-136475372D01*
X148958500Y-136470763D01*
X148907706Y-136422788D01*
X148890912Y-136354966D01*
X148913451Y-136288832D01*
X148958508Y-136249793D01*
X148967816Y-136245051D01*
X149054147Y-136182328D01*
X149139786Y-136120109D01*
X149139788Y-136120106D01*
X149139792Y-136120104D01*
X149290104Y-135969792D01*
X149290106Y-135969788D01*
X149290109Y-135969786D01*
X149415048Y-135797820D01*
X149415047Y-135797820D01*
X149415051Y-135797816D01*
X149419514Y-135789054D01*
X149467488Y-135738259D01*
X149535308Y-135721463D01*
X149601444Y-135743999D01*
G37*
%TD.AperFunction*%
%TA.AperFunction,Conductor*%
G36*
X152141444Y-135743999D02*
G01*
X152180486Y-135789056D01*
X152184951Y-135797820D01*
X152309890Y-135969786D01*
X152460213Y-136120109D01*
X152632179Y-136245048D01*
X152632181Y-136245049D01*
X152632184Y-136245051D01*
X152641493Y-136249794D01*
X152692290Y-136297766D01*
X152709087Y-136365587D01*
X152686552Y-136431722D01*
X152641505Y-136470760D01*
X152632446Y-136475376D01*
X152632440Y-136475380D01*
X152578282Y-136514727D01*
X152578282Y-136514728D01*
X153210591Y-137147037D01*
X153147007Y-137164075D01*
X153032993Y-137229901D01*
X152939901Y-137322993D01*
X152874075Y-137437007D01*
X152857037Y-137500591D01*
X152224728Y-136868282D01*
X152224727Y-136868282D01*
X152185380Y-136922440D01*
X152180483Y-136932051D01*
X152132506Y-136982845D01*
X152064684Y-136999638D01*
X151998550Y-136977098D01*
X151959516Y-136932048D01*
X151954626Y-136922452D01*
X151915270Y-136868282D01*
X151915269Y-136868282D01*
X151282962Y-137500590D01*
X151265925Y-137437007D01*
X151200099Y-137322993D01*
X151107007Y-137229901D01*
X150992993Y-137164075D01*
X150929409Y-137147037D01*
X151561716Y-136514728D01*
X151507547Y-136475373D01*
X151507547Y-136475372D01*
X151498500Y-136470763D01*
X151447706Y-136422788D01*
X151430912Y-136354966D01*
X151453451Y-136288832D01*
X151498508Y-136249793D01*
X151507816Y-136245051D01*
X151594147Y-136182328D01*
X151679786Y-136120109D01*
X151679788Y-136120106D01*
X151679792Y-136120104D01*
X151830104Y-135969792D01*
X151830106Y-135969788D01*
X151830109Y-135969786D01*
X151955048Y-135797820D01*
X151955047Y-135797820D01*
X151955051Y-135797816D01*
X151959514Y-135789054D01*
X152007488Y-135738259D01*
X152075308Y-135721463D01*
X152141444Y-135743999D01*
G37*
%TD.AperFunction*%
%TA.AperFunction,Conductor*%
G36*
X154681444Y-135743999D02*
G01*
X154720486Y-135789056D01*
X154724951Y-135797820D01*
X154849890Y-135969786D01*
X155000213Y-136120109D01*
X155172179Y-136245048D01*
X155172181Y-136245049D01*
X155172184Y-136245051D01*
X155181493Y-136249794D01*
X155232290Y-136297766D01*
X155249087Y-136365587D01*
X155226552Y-136431722D01*
X155181505Y-136470760D01*
X155172446Y-136475376D01*
X155172440Y-136475380D01*
X155118282Y-136514727D01*
X155118282Y-136514728D01*
X155750591Y-137147037D01*
X155687007Y-137164075D01*
X155572993Y-137229901D01*
X155479901Y-137322993D01*
X155414075Y-137437007D01*
X155397037Y-137500591D01*
X154764728Y-136868282D01*
X154764727Y-136868282D01*
X154725380Y-136922440D01*
X154720483Y-136932051D01*
X154672506Y-136982845D01*
X154604684Y-136999638D01*
X154538550Y-136977098D01*
X154499516Y-136932048D01*
X154494626Y-136922452D01*
X154455270Y-136868282D01*
X154455269Y-136868282D01*
X153822962Y-137500590D01*
X153805925Y-137437007D01*
X153740099Y-137322993D01*
X153647007Y-137229901D01*
X153532993Y-137164075D01*
X153469409Y-137147037D01*
X154101716Y-136514728D01*
X154047547Y-136475373D01*
X154047547Y-136475372D01*
X154038500Y-136470763D01*
X153987706Y-136422788D01*
X153970912Y-136354966D01*
X153993451Y-136288832D01*
X154038508Y-136249793D01*
X154047816Y-136245051D01*
X154134147Y-136182328D01*
X154219786Y-136120109D01*
X154219788Y-136120106D01*
X154219792Y-136120104D01*
X154370104Y-135969792D01*
X154370106Y-135969788D01*
X154370109Y-135969786D01*
X154495048Y-135797820D01*
X154495047Y-135797820D01*
X154495051Y-135797816D01*
X154499514Y-135789054D01*
X154547488Y-135738259D01*
X154615308Y-135721463D01*
X154681444Y-135743999D01*
G37*
%TD.AperFunction*%
%TA.AperFunction,Conductor*%
G36*
X157221444Y-135743999D02*
G01*
X157260486Y-135789056D01*
X157264951Y-135797820D01*
X157389890Y-135969786D01*
X157540213Y-136120109D01*
X157712179Y-136245048D01*
X157712181Y-136245049D01*
X157712184Y-136245051D01*
X157721493Y-136249794D01*
X157772290Y-136297766D01*
X157789087Y-136365587D01*
X157766552Y-136431722D01*
X157721505Y-136470760D01*
X157712446Y-136475376D01*
X157712440Y-136475380D01*
X157658282Y-136514727D01*
X157658282Y-136514728D01*
X158290591Y-137147037D01*
X158227007Y-137164075D01*
X158112993Y-137229901D01*
X158019901Y-137322993D01*
X157954075Y-137437007D01*
X157937037Y-137500591D01*
X157304728Y-136868282D01*
X157304727Y-136868282D01*
X157265380Y-136922440D01*
X157260483Y-136932051D01*
X157212506Y-136982845D01*
X157144684Y-136999638D01*
X157078550Y-136977098D01*
X157039516Y-136932048D01*
X157034626Y-136922452D01*
X156995270Y-136868282D01*
X156995269Y-136868282D01*
X156362962Y-137500590D01*
X156345925Y-137437007D01*
X156280099Y-137322993D01*
X156187007Y-137229901D01*
X156072993Y-137164075D01*
X156009409Y-137147037D01*
X156641716Y-136514728D01*
X156587547Y-136475373D01*
X156587547Y-136475372D01*
X156578500Y-136470763D01*
X156527706Y-136422788D01*
X156510912Y-136354966D01*
X156533451Y-136288832D01*
X156578508Y-136249793D01*
X156587816Y-136245051D01*
X156674147Y-136182328D01*
X156759786Y-136120109D01*
X156759788Y-136120106D01*
X156759792Y-136120104D01*
X156910104Y-135969792D01*
X156910106Y-135969788D01*
X156910109Y-135969786D01*
X157035048Y-135797820D01*
X157035047Y-135797820D01*
X157035051Y-135797816D01*
X157039514Y-135789054D01*
X157087488Y-135738259D01*
X157155308Y-135721463D01*
X157221444Y-135743999D01*
G37*
%TD.AperFunction*%
%TA.AperFunction,Conductor*%
G36*
X159544340Y-135978068D02*
G01*
X159600274Y-136019939D01*
X159617189Y-136050917D01*
X159666202Y-136182328D01*
X159666206Y-136182335D01*
X159752452Y-136297544D01*
X159752455Y-136297547D01*
X159867664Y-136383793D01*
X159867671Y-136383797D01*
X159912618Y-136400561D01*
X160002517Y-136434091D01*
X160062127Y-136440500D01*
X160072685Y-136440499D01*
X160139723Y-136460179D01*
X160160372Y-136476818D01*
X160830591Y-137147037D01*
X160767007Y-137164075D01*
X160652993Y-137229901D01*
X160559901Y-137322993D01*
X160494075Y-137437007D01*
X160477037Y-137500591D01*
X159844728Y-136868282D01*
X159844727Y-136868282D01*
X159805380Y-136922440D01*
X159800483Y-136932051D01*
X159752506Y-136982845D01*
X159684684Y-136999638D01*
X159618550Y-136977098D01*
X159579516Y-136932048D01*
X159574626Y-136922452D01*
X159535270Y-136868282D01*
X159535269Y-136868282D01*
X158902962Y-137500590D01*
X158885925Y-137437007D01*
X158820099Y-137322993D01*
X158727007Y-137229901D01*
X158612993Y-137164075D01*
X158549409Y-137147037D01*
X159181716Y-136514728D01*
X159127547Y-136475373D01*
X159127547Y-136475372D01*
X159118500Y-136470763D01*
X159067706Y-136422788D01*
X159050912Y-136354966D01*
X159073451Y-136288832D01*
X159118508Y-136249793D01*
X159127816Y-136245051D01*
X159299792Y-136120104D01*
X159413329Y-136006566D01*
X159474648Y-135973084D01*
X159544340Y-135978068D01*
G37*
%TD.AperFunction*%
%TA.AperFunction,Conductor*%
G36*
X164765270Y-56919217D02*
G01*
X164765270Y-56919216D01*
X164804622Y-56865055D01*
X164809232Y-56856007D01*
X164857205Y-56805209D01*
X164925025Y-56788412D01*
X164991161Y-56810947D01*
X165030204Y-56856004D01*
X165034949Y-56865317D01*
X165159890Y-57037286D01*
X165310213Y-57187609D01*
X165482182Y-57312550D01*
X165490946Y-57317016D01*
X165541742Y-57364991D01*
X165558536Y-57432812D01*
X165535998Y-57498947D01*
X165490946Y-57537984D01*
X165482182Y-57542449D01*
X165310213Y-57667390D01*
X165159890Y-57817713D01*
X165034949Y-57989682D01*
X165030484Y-57998446D01*
X164982509Y-58049242D01*
X164914688Y-58066036D01*
X164848553Y-58043498D01*
X164809516Y-57998446D01*
X164805050Y-57989682D01*
X164680109Y-57817713D01*
X164529786Y-57667390D01*
X164357817Y-57542449D01*
X164348504Y-57537704D01*
X164297707Y-57489730D01*
X164280912Y-57421909D01*
X164303449Y-57355774D01*
X164348507Y-57316732D01*
X164357555Y-57312122D01*
X164411716Y-57272770D01*
X164411717Y-57272770D01*
X163779408Y-56640462D01*
X163842993Y-56623425D01*
X163957007Y-56557599D01*
X164050099Y-56464507D01*
X164115925Y-56350493D01*
X164132962Y-56286908D01*
X164765270Y-56919217D01*
G37*
%TD.AperFunction*%
%TA.AperFunction,Conductor*%
G36*
X175884075Y-56350493D02*
G01*
X175949901Y-56464507D01*
X176042993Y-56557599D01*
X176157007Y-56623425D01*
X176220590Y-56640462D01*
X175588282Y-57272769D01*
X175588282Y-57272770D01*
X175642452Y-57312126D01*
X175642451Y-57312126D01*
X175651495Y-57316734D01*
X175702292Y-57364708D01*
X175719087Y-57432529D01*
X175696550Y-57498664D01*
X175651499Y-57537702D01*
X175642182Y-57542449D01*
X175470213Y-57667390D01*
X175319890Y-57817713D01*
X175194949Y-57989682D01*
X175190484Y-57998446D01*
X175142509Y-58049242D01*
X175074688Y-58066036D01*
X175008553Y-58043498D01*
X174969516Y-57998446D01*
X174965050Y-57989682D01*
X174840109Y-57817713D01*
X174689786Y-57667390D01*
X174517820Y-57542451D01*
X174517115Y-57542091D01*
X174509054Y-57537985D01*
X174458259Y-57490012D01*
X174441463Y-57422192D01*
X174463999Y-57356056D01*
X174509054Y-57317015D01*
X174517816Y-57312551D01*
X174572572Y-57272769D01*
X174689786Y-57187609D01*
X174689788Y-57187606D01*
X174689792Y-57187604D01*
X174840104Y-57037292D01*
X174840106Y-57037288D01*
X174840109Y-57037286D01*
X174925890Y-56919217D01*
X174965051Y-56865316D01*
X174969793Y-56856008D01*
X175017763Y-56805211D01*
X175085583Y-56788411D01*
X175151719Y-56810945D01*
X175190763Y-56856000D01*
X175195373Y-56865047D01*
X175234728Y-56919216D01*
X175867037Y-56286908D01*
X175884075Y-56350493D01*
G37*
%TD.AperFunction*%
%TA.AperFunction,Conductor*%
G36*
X178424075Y-56350493D02*
G01*
X178489901Y-56464507D01*
X178582993Y-56557599D01*
X178697007Y-56623425D01*
X178760590Y-56640462D01*
X178128282Y-57272769D01*
X178128282Y-57272770D01*
X178182452Y-57312126D01*
X178182451Y-57312126D01*
X178191495Y-57316734D01*
X178242292Y-57364708D01*
X178259087Y-57432529D01*
X178236550Y-57498664D01*
X178191499Y-57537702D01*
X178182182Y-57542449D01*
X178010213Y-57667390D01*
X177859890Y-57817713D01*
X177734949Y-57989682D01*
X177730484Y-57998446D01*
X177682509Y-58049242D01*
X177614688Y-58066036D01*
X177548553Y-58043498D01*
X177509516Y-57998446D01*
X177505050Y-57989682D01*
X177380109Y-57817713D01*
X177229786Y-57667390D01*
X177057817Y-57542449D01*
X177048504Y-57537704D01*
X176997707Y-57489730D01*
X176980912Y-57421909D01*
X177003449Y-57355774D01*
X177048507Y-57316732D01*
X177057555Y-57312122D01*
X177111716Y-57272770D01*
X177111717Y-57272770D01*
X176479408Y-56640462D01*
X176542993Y-56623425D01*
X176657007Y-56557599D01*
X176750099Y-56464507D01*
X176815925Y-56350493D01*
X176832962Y-56286908D01*
X177465270Y-56919217D01*
X177465270Y-56919216D01*
X177504622Y-56865054D01*
X177509514Y-56855454D01*
X177557488Y-56804657D01*
X177625308Y-56787861D01*
X177691444Y-56810397D01*
X177730486Y-56855454D01*
X177735375Y-56865050D01*
X177774728Y-56919216D01*
X178407037Y-56286908D01*
X178424075Y-56350493D01*
G37*
%TD.AperFunction*%
%TA.AperFunction,Conductor*%
G36*
X163184075Y-56350493D02*
G01*
X163249901Y-56464507D01*
X163342993Y-56557599D01*
X163457007Y-56623425D01*
X163520590Y-56640462D01*
X162888282Y-57272769D01*
X162888282Y-57272770D01*
X162942452Y-57312126D01*
X162942451Y-57312126D01*
X162951495Y-57316734D01*
X163002292Y-57364708D01*
X163019087Y-57432529D01*
X162996550Y-57498664D01*
X162951499Y-57537702D01*
X162942182Y-57542449D01*
X162770213Y-57667390D01*
X162619894Y-57817709D01*
X162619885Y-57817719D01*
X162616330Y-57822613D01*
X162560997Y-57865275D01*
X162491383Y-57871248D01*
X162429591Y-57838637D01*
X162398312Y-57788723D01*
X162394815Y-57778170D01*
X162394814Y-57778166D01*
X162302712Y-57628844D01*
X162178656Y-57504788D01*
X162061505Y-57432529D01*
X162029336Y-57412687D01*
X162029331Y-57412685D01*
X162018382Y-57409057D01*
X161957228Y-57388792D01*
X161899784Y-57349020D01*
X161872961Y-57284504D01*
X161872801Y-57273854D01*
X161239408Y-56640462D01*
X161302993Y-56623425D01*
X161417007Y-56557599D01*
X161510099Y-56464507D01*
X161575925Y-56350493D01*
X161592962Y-56286908D01*
X162225270Y-56919217D01*
X162225270Y-56919216D01*
X162264622Y-56865054D01*
X162269514Y-56855454D01*
X162317488Y-56804657D01*
X162385308Y-56787861D01*
X162451444Y-56810397D01*
X162490486Y-56855454D01*
X162495375Y-56865050D01*
X162534728Y-56919216D01*
X163167037Y-56286908D01*
X163184075Y-56350493D01*
G37*
%TD.AperFunction*%
%TA.AperFunction,Conductor*%
G36*
X195015677Y-51019685D02*
G01*
X195036319Y-51036319D01*
X198963681Y-54963681D01*
X198997166Y-55025004D01*
X199000000Y-55051362D01*
X199000000Y-134876000D01*
X198980315Y-134943039D01*
X198927511Y-134988794D01*
X198876000Y-135000000D01*
X185000000Y-135000000D01*
X185000000Y-148876000D01*
X184980315Y-148943039D01*
X184927511Y-148988794D01*
X184876000Y-149000000D01*
X115124000Y-149000000D01*
X115056961Y-148980315D01*
X115011206Y-148927511D01*
X115000000Y-148876000D01*
X115000000Y-135000000D01*
X101124000Y-135000000D01*
X101068533Y-134983713D01*
X118969500Y-134983713D01*
X118969500Y-135196286D01*
X119002753Y-135406239D01*
X119068444Y-135608414D01*
X119164951Y-135797820D01*
X119289890Y-135969786D01*
X119440213Y-136120109D01*
X119612179Y-136245048D01*
X119612181Y-136245049D01*
X119612184Y-136245051D01*
X119621493Y-136249794D01*
X119672290Y-136297766D01*
X119689087Y-136365587D01*
X119666552Y-136431722D01*
X119621505Y-136470760D01*
X119612446Y-136475376D01*
X119612440Y-136475380D01*
X119558282Y-136514727D01*
X119558282Y-136514728D01*
X120190591Y-137147037D01*
X120127007Y-137164075D01*
X120012993Y-137229901D01*
X119919901Y-137322993D01*
X119854075Y-137437007D01*
X119837037Y-137500591D01*
X119204728Y-136868282D01*
X119204727Y-136868282D01*
X119165380Y-136922439D01*
X119068904Y-137111782D01*
X119003242Y-137313869D01*
X119003242Y-137313872D01*
X118970000Y-137523753D01*
X118970000Y-137736246D01*
X119003242Y-137946127D01*
X119003242Y-137946130D01*
X119068904Y-138148217D01*
X119165375Y-138337550D01*
X119204728Y-138391716D01*
X119837037Y-137759408D01*
X119854075Y-137822993D01*
X119919901Y-137937007D01*
X120012993Y-138030099D01*
X120127007Y-138095925D01*
X120190590Y-138112962D01*
X119558282Y-138745269D01*
X119558282Y-138745270D01*
X119612449Y-138784624D01*
X119801782Y-138881095D01*
X120003870Y-138946757D01*
X120213754Y-138980000D01*
X120426246Y-138980000D01*
X120636127Y-138946757D01*
X120636130Y-138946757D01*
X120838217Y-138881095D01*
X121027554Y-138784622D01*
X121081716Y-138745270D01*
X121081717Y-138745270D01*
X120449408Y-138112962D01*
X120512993Y-138095925D01*
X120627007Y-138030099D01*
X120720099Y-137937007D01*
X120785925Y-137822993D01*
X120802962Y-137759409D01*
X121435270Y-138391717D01*
X121435270Y-138391716D01*
X121474622Y-138337554D01*
X121479514Y-138327954D01*
X121527488Y-138277157D01*
X121595308Y-138260361D01*
X121661444Y-138282897D01*
X121700486Y-138327954D01*
X121705375Y-138337550D01*
X121744728Y-138391716D01*
X122377037Y-137759408D01*
X122394075Y-137822993D01*
X122459901Y-137937007D01*
X122552993Y-138030099D01*
X122667007Y-138095925D01*
X122730590Y-138112962D01*
X122098282Y-138745269D01*
X122098282Y-138745270D01*
X122152449Y-138784624D01*
X122341782Y-138881095D01*
X122543870Y-138946757D01*
X122753754Y-138980000D01*
X122966246Y-138980000D01*
X123176127Y-138946757D01*
X123176130Y-138946757D01*
X123378217Y-138881095D01*
X123567554Y-138784622D01*
X123621716Y-138745270D01*
X123621717Y-138745270D01*
X122989408Y-138112962D01*
X123052993Y-138095925D01*
X123167007Y-138030099D01*
X123260099Y-137937007D01*
X123325925Y-137822993D01*
X123342962Y-137759408D01*
X123975270Y-138391717D01*
X123975270Y-138391716D01*
X124014622Y-138337555D01*
X124019232Y-138328507D01*
X124067205Y-138277709D01*
X124135025Y-138260912D01*
X124201161Y-138283447D01*
X124240204Y-138328504D01*
X124244949Y-138337817D01*
X124369890Y-138509786D01*
X124520213Y-138660109D01*
X124692179Y-138785048D01*
X124692181Y-138785049D01*
X124692184Y-138785051D01*
X124881588Y-138881557D01*
X125083757Y-138947246D01*
X125293713Y-138980500D01*
X125293714Y-138980500D01*
X125506286Y-138980500D01*
X125506287Y-138980500D01*
X125716243Y-138947246D01*
X125918412Y-138881557D01*
X126107816Y-138785051D01*
X126162572Y-138745269D01*
X126279786Y-138660109D01*
X126279788Y-138660106D01*
X126279792Y-138660104D01*
X126430104Y-138509792D01*
X126430106Y-138509788D01*
X126430109Y-138509786D01*
X126555048Y-138337820D01*
X126555050Y-138337817D01*
X126555051Y-138337816D01*
X126559514Y-138329054D01*
X126607488Y-138278259D01*
X126675308Y-138261463D01*
X126741444Y-138283999D01*
X126780486Y-138329056D01*
X126784951Y-138337820D01*
X126909890Y-138509786D01*
X127060213Y-138660109D01*
X127232179Y-138785048D01*
X127232181Y-138785049D01*
X127232184Y-138785051D01*
X127421588Y-138881557D01*
X127623757Y-138947246D01*
X127833713Y-138980500D01*
X127833714Y-138980500D01*
X128046286Y-138980500D01*
X128046287Y-138980500D01*
X128256243Y-138947246D01*
X128458412Y-138881557D01*
X128647816Y-138785051D01*
X128702572Y-138745269D01*
X128819786Y-138660109D01*
X128819788Y-138660106D01*
X128819792Y-138660104D01*
X128963077Y-138516819D01*
X129024400Y-138483334D01*
X129050758Y-138480500D01*
X129369242Y-138480500D01*
X129436281Y-138500185D01*
X129456923Y-138516819D01*
X129600213Y-138660109D01*
X129772179Y-138785048D01*
X129772181Y-138785049D01*
X129772184Y-138785051D01*
X129961588Y-138881557D01*
X130163757Y-138947246D01*
X130373713Y-138980500D01*
X130373714Y-138980500D01*
X130586286Y-138980500D01*
X130586287Y-138980500D01*
X130796243Y-138947246D01*
X130998412Y-138881557D01*
X131187816Y-138785051D01*
X131242572Y-138745269D01*
X131359786Y-138660109D01*
X131359788Y-138660106D01*
X131359792Y-138660104D01*
X131503077Y-138516819D01*
X131564400Y-138483334D01*
X131590758Y-138480500D01*
X134373768Y-138480500D01*
X134373769Y-138480499D01*
X134538082Y-138447816D01*
X134692863Y-138383703D01*
X134832162Y-138290626D01*
X134950626Y-138172162D01*
X135043703Y-138032863D01*
X135107816Y-137878082D01*
X135140500Y-137713767D01*
X135140500Y-134983713D01*
X136749500Y-134983713D01*
X136749500Y-135196286D01*
X136782753Y-135406239D01*
X136848444Y-135608414D01*
X136944951Y-135797820D01*
X137069890Y-135969786D01*
X137220213Y-136120109D01*
X137392179Y-136245048D01*
X137392181Y-136245049D01*
X137392184Y-136245051D01*
X137401493Y-136249794D01*
X137452290Y-136297766D01*
X137469087Y-136365587D01*
X137446552Y-136431722D01*
X137401505Y-136470760D01*
X137392446Y-136475376D01*
X137392440Y-136475380D01*
X137338282Y-136514727D01*
X137338282Y-136514728D01*
X137970591Y-137147037D01*
X137907007Y-137164075D01*
X137792993Y-137229901D01*
X137699901Y-137322993D01*
X137634075Y-137437007D01*
X137617037Y-137500591D01*
X136984728Y-136868282D01*
X136984727Y-136868282D01*
X136945380Y-136922439D01*
X136848904Y-137111782D01*
X136783242Y-137313869D01*
X136783242Y-137313872D01*
X136750000Y-137523753D01*
X136750000Y-137736246D01*
X136783242Y-137946127D01*
X136783242Y-137946130D01*
X136848904Y-138148217D01*
X136945375Y-138337550D01*
X136984728Y-138391716D01*
X137617037Y-137759408D01*
X137634075Y-137822993D01*
X137699901Y-137937007D01*
X137792993Y-138030099D01*
X137907007Y-138095925D01*
X137970590Y-138112962D01*
X137338282Y-138745269D01*
X137338282Y-138745270D01*
X137392449Y-138784624D01*
X137581782Y-138881095D01*
X137783870Y-138946757D01*
X137993754Y-138980000D01*
X138206246Y-138980000D01*
X138416127Y-138946757D01*
X138416130Y-138946757D01*
X138618217Y-138881095D01*
X138807554Y-138784622D01*
X138861716Y-138745270D01*
X138861717Y-138745270D01*
X138229408Y-138112962D01*
X138292993Y-138095925D01*
X138407007Y-138030099D01*
X138500099Y-137937007D01*
X138565925Y-137822993D01*
X138582962Y-137759408D01*
X139215270Y-138391717D01*
X139215270Y-138391716D01*
X139254622Y-138337554D01*
X139259514Y-138327954D01*
X139307488Y-138277157D01*
X139375308Y-138260361D01*
X139441444Y-138282897D01*
X139480486Y-138327954D01*
X139485375Y-138337550D01*
X139524728Y-138391716D01*
X140157037Y-137759408D01*
X140174075Y-137822993D01*
X140239901Y-137937007D01*
X140332993Y-138030099D01*
X140447007Y-138095925D01*
X140510590Y-138112962D01*
X139878282Y-138745269D01*
X139878282Y-138745270D01*
X139932449Y-138784624D01*
X140121782Y-138881095D01*
X140323870Y-138946757D01*
X140533754Y-138980000D01*
X140746246Y-138980000D01*
X140956127Y-138946757D01*
X140956130Y-138946757D01*
X141158217Y-138881095D01*
X141347554Y-138784622D01*
X141401716Y-138745270D01*
X141401717Y-138745270D01*
X140769408Y-138112962D01*
X140832993Y-138095925D01*
X140947007Y-138030099D01*
X141040099Y-137937007D01*
X141105925Y-137822993D01*
X141122962Y-137759409D01*
X141755270Y-138391717D01*
X141755270Y-138391716D01*
X141794622Y-138337554D01*
X141799514Y-138327954D01*
X141847488Y-138277157D01*
X141915308Y-138260361D01*
X141981444Y-138282897D01*
X142020486Y-138327954D01*
X142025375Y-138337550D01*
X142064728Y-138391716D01*
X142697037Y-137759408D01*
X142714075Y-137822993D01*
X142779901Y-137937007D01*
X142872993Y-138030099D01*
X142987007Y-138095925D01*
X143050590Y-138112962D01*
X142418282Y-138745269D01*
X142418282Y-138745270D01*
X142472449Y-138784624D01*
X142661782Y-138881095D01*
X142863870Y-138946757D01*
X143073754Y-138980000D01*
X143286246Y-138980000D01*
X143496127Y-138946757D01*
X143496130Y-138946757D01*
X143698217Y-138881095D01*
X143887554Y-138784622D01*
X143941716Y-138745270D01*
X143941717Y-138745270D01*
X143309408Y-138112962D01*
X143372993Y-138095925D01*
X143487007Y-138030099D01*
X143580099Y-137937007D01*
X143645925Y-137822993D01*
X143662962Y-137759409D01*
X144295270Y-138391717D01*
X144295270Y-138391716D01*
X144334622Y-138337554D01*
X144339514Y-138327954D01*
X144387488Y-138277157D01*
X144455308Y-138260361D01*
X144521444Y-138282897D01*
X144560486Y-138327954D01*
X144565375Y-138337550D01*
X144604728Y-138391716D01*
X145237036Y-137759407D01*
X145254075Y-137822993D01*
X145319901Y-137937007D01*
X145412993Y-138030099D01*
X145527007Y-138095925D01*
X145590590Y-138112962D01*
X144958282Y-138745269D01*
X144958282Y-138745270D01*
X145012449Y-138784624D01*
X145201782Y-138881095D01*
X145403870Y-138946757D01*
X145613754Y-138980000D01*
X145826246Y-138980000D01*
X146036127Y-138946757D01*
X146036130Y-138946757D01*
X146238217Y-138881095D01*
X146427554Y-138784622D01*
X146481716Y-138745270D01*
X146481717Y-138745270D01*
X145849408Y-138112962D01*
X145912993Y-138095925D01*
X146027007Y-138030099D01*
X146120099Y-137937007D01*
X146185925Y-137822993D01*
X146202962Y-137759408D01*
X146835270Y-138391717D01*
X146835270Y-138391716D01*
X146874622Y-138337554D01*
X146879514Y-138327954D01*
X146927488Y-138277157D01*
X146995308Y-138260361D01*
X147061444Y-138282897D01*
X147100486Y-138327954D01*
X147105375Y-138337550D01*
X147144728Y-138391716D01*
X147777037Y-137759408D01*
X147794075Y-137822993D01*
X147859901Y-137937007D01*
X147952993Y-138030099D01*
X148067007Y-138095925D01*
X148130590Y-138112962D01*
X147498282Y-138745269D01*
X147498282Y-138745270D01*
X147552449Y-138784624D01*
X147741782Y-138881095D01*
X147943870Y-138946757D01*
X148153754Y-138980000D01*
X148366246Y-138980000D01*
X148576127Y-138946757D01*
X148576130Y-138946757D01*
X148778217Y-138881095D01*
X148967554Y-138784622D01*
X149021716Y-138745270D01*
X149021717Y-138745270D01*
X148389408Y-138112962D01*
X148452993Y-138095925D01*
X148567007Y-138030099D01*
X148660099Y-137937007D01*
X148725925Y-137822993D01*
X148742962Y-137759408D01*
X149375270Y-138391717D01*
X149375270Y-138391716D01*
X149414622Y-138337554D01*
X149419514Y-138327954D01*
X149467488Y-138277157D01*
X149535308Y-138260361D01*
X149601444Y-138282897D01*
X149640486Y-138327954D01*
X149645375Y-138337550D01*
X149684728Y-138391716D01*
X150317037Y-137759408D01*
X150334075Y-137822993D01*
X150399901Y-137937007D01*
X150492993Y-138030099D01*
X150607007Y-138095925D01*
X150670590Y-138112962D01*
X150038282Y-138745269D01*
X150038282Y-138745270D01*
X150092449Y-138784624D01*
X150281782Y-138881095D01*
X150483870Y-138946757D01*
X150693754Y-138980000D01*
X150906246Y-138980000D01*
X151116127Y-138946757D01*
X151116130Y-138946757D01*
X151318217Y-138881095D01*
X151507554Y-138784622D01*
X151561716Y-138745270D01*
X151561717Y-138745270D01*
X150929408Y-138112962D01*
X150992993Y-138095925D01*
X151107007Y-138030099D01*
X151200099Y-137937007D01*
X151265925Y-137822993D01*
X151282962Y-137759409D01*
X151915270Y-138391717D01*
X151915270Y-138391716D01*
X151954622Y-138337554D01*
X151959514Y-138327954D01*
X152007488Y-138277157D01*
X152075308Y-138260361D01*
X152141444Y-138282897D01*
X152180486Y-138327954D01*
X152185375Y-138337550D01*
X152224728Y-138391716D01*
X152857037Y-137759408D01*
X152874075Y-137822993D01*
X152939901Y-137937007D01*
X153032993Y-138030099D01*
X153147007Y-138095925D01*
X153210590Y-138112962D01*
X152578282Y-138745269D01*
X152578282Y-138745270D01*
X152632449Y-138784624D01*
X152821782Y-138881095D01*
X153023870Y-138946757D01*
X153233754Y-138980000D01*
X153446246Y-138980000D01*
X153656127Y-138946757D01*
X153656130Y-138946757D01*
X153858217Y-138881095D01*
X154047554Y-138784622D01*
X154101716Y-138745270D01*
X154101717Y-138745270D01*
X153469408Y-138112962D01*
X153532993Y-138095925D01*
X153647007Y-138030099D01*
X153740099Y-137937007D01*
X153805925Y-137822993D01*
X153822962Y-137759408D01*
X154455270Y-138391717D01*
X154455270Y-138391716D01*
X154494622Y-138337554D01*
X154499514Y-138327954D01*
X154547488Y-138277157D01*
X154615308Y-138260361D01*
X154681444Y-138282897D01*
X154720486Y-138327954D01*
X154725375Y-138337550D01*
X154764728Y-138391716D01*
X155397037Y-137759408D01*
X155414075Y-137822993D01*
X155479901Y-137937007D01*
X155572993Y-138030099D01*
X155687007Y-138095925D01*
X155750590Y-138112962D01*
X155118282Y-138745269D01*
X155118282Y-138745270D01*
X155172449Y-138784624D01*
X155361782Y-138881095D01*
X155563870Y-138946757D01*
X155773754Y-138980000D01*
X155986246Y-138980000D01*
X156196127Y-138946757D01*
X156196130Y-138946757D01*
X156398217Y-138881095D01*
X156587554Y-138784622D01*
X156641716Y-138745270D01*
X156641717Y-138745270D01*
X156009408Y-138112962D01*
X156072993Y-138095925D01*
X156187007Y-138030099D01*
X156280099Y-137937007D01*
X156345925Y-137822993D01*
X156362962Y-137759409D01*
X156995270Y-138391717D01*
X156995270Y-138391716D01*
X157034622Y-138337554D01*
X157039514Y-138327954D01*
X157087488Y-138277157D01*
X157155308Y-138260361D01*
X157221444Y-138282897D01*
X157260486Y-138327954D01*
X157265375Y-138337550D01*
X157304728Y-138391716D01*
X157937037Y-137759408D01*
X157954075Y-137822993D01*
X158019901Y-137937007D01*
X158112993Y-138030099D01*
X158227007Y-138095925D01*
X158290590Y-138112962D01*
X157658282Y-138745269D01*
X157658282Y-138745270D01*
X157712449Y-138784624D01*
X157901782Y-138881095D01*
X158103870Y-138946757D01*
X158313754Y-138980000D01*
X158526246Y-138980000D01*
X158736127Y-138946757D01*
X158736130Y-138946757D01*
X158938217Y-138881095D01*
X159127554Y-138784622D01*
X159181716Y-138745270D01*
X159181717Y-138745270D01*
X158549408Y-138112962D01*
X158612993Y-138095925D01*
X158727007Y-138030099D01*
X158820099Y-137937007D01*
X158885925Y-137822993D01*
X158902962Y-137759408D01*
X159535270Y-138391717D01*
X159535270Y-138391716D01*
X159574622Y-138337554D01*
X159579514Y-138327954D01*
X159627488Y-138277157D01*
X159695308Y-138260361D01*
X159761444Y-138282897D01*
X159800486Y-138327954D01*
X159805375Y-138337550D01*
X159844728Y-138391716D01*
X160477037Y-137759408D01*
X160494075Y-137822993D01*
X160559901Y-137937007D01*
X160652993Y-138030099D01*
X160767007Y-138095925D01*
X160830590Y-138112962D01*
X160198282Y-138745269D01*
X160198282Y-138745270D01*
X160252449Y-138784624D01*
X160441782Y-138881095D01*
X160643870Y-138946757D01*
X160853754Y-138980000D01*
X161066246Y-138980000D01*
X161276127Y-138946757D01*
X161276130Y-138946757D01*
X161478217Y-138881095D01*
X161667554Y-138784622D01*
X161721716Y-138745270D01*
X161721717Y-138745270D01*
X161089408Y-138112962D01*
X161152993Y-138095925D01*
X161267007Y-138030099D01*
X161360099Y-137937007D01*
X161425925Y-137822993D01*
X161442962Y-137759408D01*
X162075270Y-138391717D01*
X162075270Y-138391716D01*
X162114622Y-138337554D01*
X162211095Y-138148217D01*
X162276757Y-137946130D01*
X162276757Y-137946127D01*
X162310000Y-137736246D01*
X162310000Y-137523753D01*
X162276757Y-137313872D01*
X162276757Y-137313869D01*
X162211095Y-137111782D01*
X162114624Y-136922449D01*
X162075270Y-136868282D01*
X162075269Y-136868282D01*
X161442962Y-137500590D01*
X161425925Y-137437007D01*
X161360099Y-137322993D01*
X161267007Y-137229901D01*
X161152993Y-137164075D01*
X161089409Y-137147037D01*
X161759627Y-136476818D01*
X161820950Y-136443333D01*
X161847307Y-136440499D01*
X161857872Y-136440499D01*
X161917483Y-136434091D01*
X162052331Y-136383796D01*
X162167546Y-136297546D01*
X162253796Y-136182331D01*
X162304091Y-136047483D01*
X162310500Y-135987873D01*
X162310499Y-134192128D01*
X162304091Y-134132517D01*
X162302810Y-134129083D01*
X162253797Y-133997671D01*
X162253793Y-133997664D01*
X162167547Y-133882455D01*
X162167544Y-133882452D01*
X162052335Y-133796206D01*
X162052328Y-133796202D01*
X161917482Y-133745908D01*
X161917483Y-133745908D01*
X161857883Y-133739501D01*
X161857881Y-133739500D01*
X161857873Y-133739500D01*
X161857864Y-133739500D01*
X160062129Y-133739500D01*
X160062123Y-133739501D01*
X160002516Y-133745908D01*
X159867671Y-133796202D01*
X159867664Y-133796206D01*
X159752455Y-133882452D01*
X159752452Y-133882455D01*
X159666206Y-133997664D01*
X159666203Y-133997669D01*
X159617189Y-134129083D01*
X159575317Y-134185016D01*
X159509853Y-134209433D01*
X159441580Y-134194581D01*
X159413326Y-134173430D01*
X159299786Y-134059890D01*
X159127820Y-133934951D01*
X158938414Y-133838444D01*
X158938413Y-133838443D01*
X158938412Y-133838443D01*
X158736243Y-133772754D01*
X158736241Y-133772753D01*
X158736240Y-133772753D01*
X158574957Y-133747208D01*
X158526287Y-133739500D01*
X158313713Y-133739500D01*
X158265042Y-133747208D01*
X158103760Y-133772753D01*
X157901585Y-133838444D01*
X157712179Y-133934951D01*
X157540213Y-134059890D01*
X157389890Y-134210213D01*
X157264949Y-134382182D01*
X157260484Y-134390946D01*
X157212509Y-134441742D01*
X157144688Y-134458536D01*
X157078553Y-134435998D01*
X157039516Y-134390946D01*
X157035050Y-134382182D01*
X156910109Y-134210213D01*
X156759786Y-134059890D01*
X156587820Y-133934951D01*
X156398414Y-133838444D01*
X156398413Y-133838443D01*
X156398412Y-133838443D01*
X156196243Y-133772754D01*
X156196241Y-133772753D01*
X156196240Y-133772753D01*
X156034957Y-133747208D01*
X155986287Y-133739500D01*
X155773713Y-133739500D01*
X155725042Y-133747208D01*
X155563760Y-133772753D01*
X155361585Y-133838444D01*
X155172179Y-133934951D01*
X155000213Y-134059890D01*
X154849890Y-134210213D01*
X154724949Y-134382182D01*
X154720484Y-134390946D01*
X154672509Y-134441742D01*
X154604688Y-134458536D01*
X154538553Y-134435998D01*
X154499516Y-134390946D01*
X154495050Y-134382182D01*
X154370109Y-134210213D01*
X154219786Y-134059890D01*
X154047820Y-133934951D01*
X153858414Y-133838444D01*
X153858413Y-133838443D01*
X153858412Y-133838443D01*
X153656243Y-133772754D01*
X153656241Y-133772753D01*
X153656240Y-133772753D01*
X153494957Y-133747208D01*
X153446287Y-133739500D01*
X153233713Y-133739500D01*
X153185042Y-133747208D01*
X153023760Y-133772753D01*
X152821585Y-133838444D01*
X152632179Y-133934951D01*
X152460213Y-134059890D01*
X152309890Y-134210213D01*
X152184949Y-134382182D01*
X152180484Y-134390946D01*
X152132509Y-134441742D01*
X152064688Y-134458536D01*
X151998553Y-134435998D01*
X151959516Y-134390946D01*
X151955050Y-134382182D01*
X151830109Y-134210213D01*
X151679786Y-134059890D01*
X151507820Y-133934951D01*
X151318414Y-133838444D01*
X151318413Y-133838443D01*
X151318412Y-133838443D01*
X151116243Y-133772754D01*
X151116241Y-133772753D01*
X151116240Y-133772753D01*
X150954957Y-133747208D01*
X150906287Y-133739500D01*
X150693713Y-133739500D01*
X150645042Y-133747208D01*
X150483760Y-133772753D01*
X150281585Y-133838444D01*
X150092179Y-133934951D01*
X149920213Y-134059890D01*
X149769890Y-134210213D01*
X149644949Y-134382182D01*
X149640484Y-134390946D01*
X149592509Y-134441742D01*
X149524688Y-134458536D01*
X149458553Y-134435998D01*
X149419516Y-134390946D01*
X149415050Y-134382182D01*
X149290109Y-134210213D01*
X149139786Y-134059890D01*
X148967820Y-133934951D01*
X148778414Y-133838444D01*
X148778413Y-133838443D01*
X148778412Y-133838443D01*
X148576243Y-133772754D01*
X148576241Y-133772753D01*
X148576240Y-133772753D01*
X148414957Y-133747208D01*
X148366287Y-133739500D01*
X148153713Y-133739500D01*
X148105042Y-133747208D01*
X147943760Y-133772753D01*
X147741585Y-133838444D01*
X147552179Y-133934951D01*
X147380213Y-134059890D01*
X147229890Y-134210213D01*
X147104949Y-134382182D01*
X147100484Y-134390946D01*
X147052509Y-134441742D01*
X146984688Y-134458536D01*
X146918553Y-134435998D01*
X146879516Y-134390946D01*
X146875050Y-134382182D01*
X146750109Y-134210213D01*
X146599786Y-134059890D01*
X146427820Y-133934951D01*
X146238414Y-133838444D01*
X146238413Y-133838443D01*
X146238412Y-133838443D01*
X146036243Y-133772754D01*
X146036241Y-133772753D01*
X146036240Y-133772753D01*
X145874957Y-133747208D01*
X145826287Y-133739500D01*
X145613713Y-133739500D01*
X145565042Y-133747208D01*
X145403760Y-133772753D01*
X145201585Y-133838444D01*
X145012179Y-133934951D01*
X144840213Y-134059890D01*
X144689890Y-134210213D01*
X144564949Y-134382182D01*
X144560484Y-134390946D01*
X144512509Y-134441742D01*
X144444688Y-134458536D01*
X144378553Y-134435998D01*
X144339516Y-134390946D01*
X144335050Y-134382182D01*
X144210109Y-134210213D01*
X144059786Y-134059890D01*
X143887820Y-133934951D01*
X143698414Y-133838444D01*
X143698413Y-133838443D01*
X143698412Y-133838443D01*
X143496243Y-133772754D01*
X143496241Y-133772753D01*
X143496240Y-133772753D01*
X143334957Y-133747208D01*
X143286287Y-133739500D01*
X143073713Y-133739500D01*
X143025042Y-133747208D01*
X142863760Y-133772753D01*
X142661585Y-133838444D01*
X142472179Y-133934951D01*
X142300213Y-134059890D01*
X142149890Y-134210213D01*
X142024949Y-134382182D01*
X142020484Y-134390946D01*
X141972509Y-134441742D01*
X141904688Y-134458536D01*
X141838553Y-134435998D01*
X141799516Y-134390946D01*
X141795050Y-134382182D01*
X141670109Y-134210213D01*
X141519786Y-134059890D01*
X141347820Y-133934951D01*
X141158414Y-133838444D01*
X141158413Y-133838443D01*
X141158412Y-133838443D01*
X140956243Y-133772754D01*
X140956241Y-133772753D01*
X140956240Y-133772753D01*
X140794957Y-133747208D01*
X140746287Y-133739500D01*
X140533713Y-133739500D01*
X140485042Y-133747208D01*
X140323760Y-133772753D01*
X140121585Y-133838444D01*
X139932179Y-133934951D01*
X139760213Y-134059890D01*
X139609890Y-134210213D01*
X139484949Y-134382182D01*
X139480484Y-134390946D01*
X139432509Y-134441742D01*
X139364688Y-134458536D01*
X139298553Y-134435998D01*
X139259516Y-134390946D01*
X139255050Y-134382182D01*
X139130109Y-134210213D01*
X138979786Y-134059890D01*
X138807820Y-133934951D01*
X138618414Y-133838444D01*
X138618413Y-133838443D01*
X138618412Y-133838443D01*
X138416243Y-133772754D01*
X138416241Y-133772753D01*
X138416240Y-133772753D01*
X138254957Y-133747208D01*
X138206287Y-133739500D01*
X137993713Y-133739500D01*
X137945042Y-133747208D01*
X137783760Y-133772753D01*
X137581585Y-133838444D01*
X137392179Y-133934951D01*
X137220213Y-134059890D01*
X137069890Y-134210213D01*
X136944951Y-134382179D01*
X136848444Y-134571585D01*
X136782753Y-134773760D01*
X136749500Y-134983713D01*
X135140500Y-134983713D01*
X135140500Y-132953650D01*
X135160185Y-132886611D01*
X135176819Y-132865969D01*
X135875969Y-132166819D01*
X135937292Y-132133334D01*
X135963650Y-132130500D01*
X166906349Y-132130500D01*
X166973388Y-132150185D01*
X166994030Y-132166819D01*
X167693181Y-132865969D01*
X167726666Y-132927292D01*
X167729500Y-132953650D01*
X167729500Y-133979242D01*
X167709815Y-134046281D01*
X167693181Y-134066923D01*
X167549894Y-134210209D01*
X167549890Y-134210213D01*
X167424951Y-134382179D01*
X167328444Y-134571585D01*
X167262753Y-134773760D01*
X167229500Y-134983713D01*
X167229500Y-135196286D01*
X167262753Y-135406239D01*
X167328444Y-135608414D01*
X167424951Y-135797820D01*
X167549890Y-135969786D01*
X167700213Y-136120109D01*
X167872179Y-136245048D01*
X167872181Y-136245049D01*
X167872184Y-136245051D01*
X167881493Y-136249794D01*
X167932290Y-136297766D01*
X167949087Y-136365587D01*
X167926552Y-136431722D01*
X167881505Y-136470760D01*
X167872446Y-136475376D01*
X167872440Y-136475380D01*
X167818282Y-136514727D01*
X167818282Y-136514728D01*
X168450591Y-137147037D01*
X168387007Y-137164075D01*
X168272993Y-137229901D01*
X168179901Y-137322993D01*
X168114075Y-137437007D01*
X168097037Y-137500591D01*
X167464728Y-136868282D01*
X167464727Y-136868282D01*
X167425380Y-136922439D01*
X167328904Y-137111782D01*
X167263242Y-137313869D01*
X167263242Y-137313872D01*
X167230000Y-137523753D01*
X167230000Y-137736246D01*
X167263242Y-137946127D01*
X167263242Y-137946130D01*
X167328904Y-138148217D01*
X167425375Y-138337550D01*
X167464728Y-138391716D01*
X168097037Y-137759408D01*
X168114075Y-137822993D01*
X168179901Y-137937007D01*
X168272993Y-138030099D01*
X168387007Y-138095925D01*
X168450590Y-138112962D01*
X167818282Y-138745269D01*
X167818282Y-138745270D01*
X167872449Y-138784624D01*
X168061782Y-138881095D01*
X168263870Y-138946757D01*
X168473754Y-138980000D01*
X168686246Y-138980000D01*
X168896127Y-138946757D01*
X168896130Y-138946757D01*
X169098217Y-138881095D01*
X169287554Y-138784622D01*
X169341716Y-138745270D01*
X169341717Y-138745270D01*
X168709408Y-138112962D01*
X168772993Y-138095925D01*
X168887007Y-138030099D01*
X168980099Y-137937007D01*
X169045925Y-137822993D01*
X169062962Y-137759408D01*
X169695270Y-138391717D01*
X169695270Y-138391716D01*
X169734622Y-138337554D01*
X169739514Y-138327954D01*
X169787488Y-138277157D01*
X169855308Y-138260361D01*
X169921444Y-138282897D01*
X169960486Y-138327954D01*
X169965375Y-138337550D01*
X170004728Y-138391716D01*
X170637037Y-137759408D01*
X170654075Y-137822993D01*
X170719901Y-137937007D01*
X170812993Y-138030099D01*
X170927007Y-138095925D01*
X170990590Y-138112962D01*
X170358282Y-138745269D01*
X170358282Y-138745270D01*
X170412449Y-138784624D01*
X170601782Y-138881095D01*
X170803870Y-138946757D01*
X171013754Y-138980000D01*
X171226246Y-138980000D01*
X171436127Y-138946757D01*
X171436130Y-138946757D01*
X171638217Y-138881095D01*
X171827554Y-138784622D01*
X171881716Y-138745270D01*
X171881717Y-138745270D01*
X171249408Y-138112962D01*
X171312993Y-138095925D01*
X171427007Y-138030099D01*
X171520099Y-137937007D01*
X171585925Y-137822993D01*
X171602962Y-137759409D01*
X172235270Y-138391717D01*
X172235270Y-138391716D01*
X172274622Y-138337554D01*
X172279514Y-138327954D01*
X172327488Y-138277157D01*
X172395308Y-138260361D01*
X172461444Y-138282897D01*
X172500486Y-138327954D01*
X172505375Y-138337550D01*
X172544728Y-138391716D01*
X173177037Y-137759408D01*
X173194075Y-137822993D01*
X173259901Y-137937007D01*
X173352993Y-138030099D01*
X173467007Y-138095925D01*
X173530590Y-138112962D01*
X172898282Y-138745269D01*
X172898282Y-138745270D01*
X172952449Y-138784624D01*
X173141782Y-138881095D01*
X173343870Y-138946757D01*
X173553754Y-138980000D01*
X173766246Y-138980000D01*
X173976127Y-138946757D01*
X173976130Y-138946757D01*
X174178217Y-138881095D01*
X174367554Y-138784622D01*
X174421716Y-138745270D01*
X174421717Y-138745270D01*
X173789408Y-138112962D01*
X173852993Y-138095925D01*
X173967007Y-138030099D01*
X174060099Y-137937007D01*
X174125925Y-137822993D01*
X174142962Y-137759408D01*
X174775270Y-138391717D01*
X174775270Y-138391716D01*
X174814622Y-138337554D01*
X174819514Y-138327954D01*
X174867488Y-138277157D01*
X174935308Y-138260361D01*
X175001444Y-138282897D01*
X175040486Y-138327954D01*
X175045375Y-138337550D01*
X175084728Y-138391716D01*
X175717037Y-137759408D01*
X175734075Y-137822993D01*
X175799901Y-137937007D01*
X175892993Y-138030099D01*
X176007007Y-138095925D01*
X176070590Y-138112962D01*
X175438282Y-138745269D01*
X175438282Y-138745270D01*
X175492449Y-138784624D01*
X175681782Y-138881095D01*
X175883870Y-138946757D01*
X176093754Y-138980000D01*
X176306246Y-138980000D01*
X176516127Y-138946757D01*
X176516130Y-138946757D01*
X176718217Y-138881095D01*
X176907554Y-138784622D01*
X176961716Y-138745270D01*
X176961717Y-138745270D01*
X176329408Y-138112962D01*
X176392993Y-138095925D01*
X176507007Y-138030099D01*
X176600099Y-137937007D01*
X176665925Y-137822993D01*
X176682962Y-137759408D01*
X177315270Y-138391717D01*
X177315270Y-138391716D01*
X177354622Y-138337554D01*
X177359514Y-138327954D01*
X177407488Y-138277157D01*
X177475308Y-138260361D01*
X177541444Y-138282897D01*
X177580486Y-138327954D01*
X177585375Y-138337550D01*
X177624728Y-138391716D01*
X178257037Y-137759408D01*
X178274075Y-137822993D01*
X178339901Y-137937007D01*
X178432993Y-138030099D01*
X178547007Y-138095925D01*
X178610590Y-138112962D01*
X177978282Y-138745269D01*
X177978282Y-138745270D01*
X178032449Y-138784624D01*
X178221782Y-138881095D01*
X178423870Y-138946757D01*
X178633754Y-138980000D01*
X178846246Y-138980000D01*
X179056127Y-138946757D01*
X179056130Y-138946757D01*
X179258217Y-138881095D01*
X179447554Y-138784622D01*
X179501716Y-138745270D01*
X179501717Y-138745270D01*
X178869408Y-138112962D01*
X178932993Y-138095925D01*
X179047007Y-138030099D01*
X179140099Y-137937007D01*
X179205925Y-137822993D01*
X179222962Y-137759408D01*
X179855270Y-138391717D01*
X179855270Y-138391716D01*
X179894622Y-138337554D01*
X179991095Y-138148217D01*
X180056757Y-137946130D01*
X180056757Y-137946127D01*
X180090000Y-137736246D01*
X180090000Y-137523753D01*
X180056757Y-137313872D01*
X180056757Y-137313869D01*
X179991095Y-137111782D01*
X179894624Y-136922449D01*
X179855270Y-136868282D01*
X179855269Y-136868282D01*
X179222962Y-137500590D01*
X179205925Y-137437007D01*
X179140099Y-137322993D01*
X179047007Y-137229901D01*
X178932993Y-137164075D01*
X178869409Y-137147037D01*
X179539627Y-136476818D01*
X179600950Y-136443333D01*
X179627307Y-136440499D01*
X179637872Y-136440499D01*
X179697483Y-136434091D01*
X179832331Y-136383796D01*
X179947546Y-136297546D01*
X180033796Y-136182331D01*
X180084091Y-136047483D01*
X180090500Y-135987873D01*
X180090499Y-134192128D01*
X180084091Y-134132517D01*
X180082810Y-134129083D01*
X180033797Y-133997671D01*
X180033793Y-133997664D01*
X179947547Y-133882455D01*
X179947544Y-133882452D01*
X179832335Y-133796206D01*
X179832328Y-133796202D01*
X179697482Y-133745908D01*
X179697483Y-133745908D01*
X179637883Y-133739501D01*
X179637881Y-133739500D01*
X179637873Y-133739500D01*
X179637864Y-133739500D01*
X177842129Y-133739500D01*
X177842123Y-133739501D01*
X177782516Y-133745908D01*
X177647671Y-133796202D01*
X177647664Y-133796206D01*
X177532455Y-133882452D01*
X177532452Y-133882455D01*
X177446206Y-133997664D01*
X177446203Y-133997669D01*
X177397189Y-134129083D01*
X177355317Y-134185016D01*
X177289853Y-134209433D01*
X177221580Y-134194581D01*
X177193326Y-134173430D01*
X177079786Y-134059890D01*
X176907820Y-133934951D01*
X176718414Y-133838444D01*
X176718413Y-133838443D01*
X176718412Y-133838443D01*
X176516243Y-133772754D01*
X176516241Y-133772753D01*
X176516240Y-133772753D01*
X176354957Y-133747208D01*
X176306287Y-133739500D01*
X176093713Y-133739500D01*
X176045042Y-133747208D01*
X175883760Y-133772753D01*
X175681585Y-133838444D01*
X175492179Y-133934951D01*
X175320213Y-134059890D01*
X175169890Y-134210213D01*
X175044949Y-134382182D01*
X175040484Y-134390946D01*
X174992509Y-134441742D01*
X174924688Y-134458536D01*
X174858553Y-134435998D01*
X174819516Y-134390946D01*
X174815050Y-134382182D01*
X174690109Y-134210213D01*
X174539786Y-134059890D01*
X174367820Y-133934951D01*
X174178414Y-133838444D01*
X174178413Y-133838443D01*
X174178412Y-133838443D01*
X173976243Y-133772754D01*
X173976241Y-133772753D01*
X173976240Y-133772753D01*
X173814957Y-133747208D01*
X173766287Y-133739500D01*
X173553713Y-133739500D01*
X173505042Y-133747208D01*
X173343760Y-133772753D01*
X173141585Y-133838444D01*
X172952179Y-133934951D01*
X172780213Y-134059890D01*
X172629890Y-134210213D01*
X172504949Y-134382182D01*
X172500484Y-134390946D01*
X172452509Y-134441742D01*
X172384688Y-134458536D01*
X172318553Y-134435998D01*
X172279516Y-134390946D01*
X172275050Y-134382182D01*
X172150109Y-134210213D01*
X171999786Y-134059890D01*
X171827820Y-133934951D01*
X171638414Y-133838444D01*
X171638413Y-133838443D01*
X171638412Y-133838443D01*
X171436243Y-133772754D01*
X171436241Y-133772753D01*
X171436240Y-133772753D01*
X171274957Y-133747208D01*
X171226287Y-133739500D01*
X171013713Y-133739500D01*
X170965042Y-133747208D01*
X170803760Y-133772753D01*
X170601585Y-133838444D01*
X170412179Y-133934951D01*
X170240213Y-134059890D01*
X170089890Y-134210213D01*
X169964949Y-134382182D01*
X169960484Y-134390946D01*
X169912509Y-134441742D01*
X169844688Y-134458536D01*
X169778553Y-134435998D01*
X169739516Y-134390946D01*
X169735050Y-134382182D01*
X169610109Y-134210213D01*
X169466819Y-134066923D01*
X169433334Y-134005600D01*
X169430500Y-133979242D01*
X169430500Y-132466232D01*
X169430499Y-132466228D01*
X169397818Y-132301925D01*
X169397815Y-132301916D01*
X169333707Y-132147143D01*
X169333705Y-132147140D01*
X169333704Y-132147137D01*
X169240626Y-132007838D01*
X169240622Y-132007834D01*
X169240620Y-132007831D01*
X168304970Y-131072181D01*
X168271485Y-131010858D01*
X168276469Y-130941166D01*
X168318341Y-130885233D01*
X168383805Y-130860816D01*
X168392651Y-130860500D01*
X182819953Y-130860500D01*
X182886992Y-130880185D01*
X182907634Y-130896819D01*
X183012786Y-131001971D01*
X183109424Y-131072181D01*
X183178390Y-131122287D01*
X183294607Y-131181503D01*
X183360776Y-131215218D01*
X183360778Y-131215218D01*
X183360781Y-131215220D01*
X183465137Y-131249127D01*
X183555465Y-131278477D01*
X183656557Y-131294488D01*
X183757648Y-131310500D01*
X183757649Y-131310500D01*
X183962351Y-131310500D01*
X183962352Y-131310500D01*
X184164534Y-131278477D01*
X184359219Y-131215220D01*
X184541610Y-131122287D01*
X184634590Y-131054732D01*
X184707213Y-131001971D01*
X184707215Y-131001968D01*
X184707219Y-131001966D01*
X184851966Y-130857219D01*
X184851968Y-130857215D01*
X184851971Y-130857213D01*
X184904732Y-130784590D01*
X184972287Y-130691610D01*
X185065220Y-130509219D01*
X185128477Y-130314534D01*
X185160500Y-130112352D01*
X185160500Y-129907682D01*
X187560000Y-129907682D01*
X187560000Y-130112317D01*
X187592009Y-130314417D01*
X187655244Y-130509031D01*
X187748141Y-130691350D01*
X187748147Y-130691359D01*
X187780523Y-130735921D01*
X187780524Y-130735922D01*
X188460000Y-130056446D01*
X188460000Y-130062661D01*
X188487259Y-130164394D01*
X188539920Y-130255606D01*
X188614394Y-130330080D01*
X188705606Y-130382741D01*
X188807339Y-130410000D01*
X188813553Y-130410000D01*
X188134076Y-131089474D01*
X188178650Y-131121859D01*
X188360968Y-131214755D01*
X188555582Y-131277990D01*
X188757683Y-131310000D01*
X188962317Y-131310000D01*
X189164417Y-131277990D01*
X189359031Y-131214755D01*
X189541349Y-131121859D01*
X189585921Y-131089474D01*
X188906447Y-130410000D01*
X188912661Y-130410000D01*
X189014394Y-130382741D01*
X189105606Y-130330080D01*
X189180080Y-130255606D01*
X189232741Y-130164394D01*
X189260000Y-130062661D01*
X189260000Y-130056447D01*
X189939474Y-130735921D01*
X189971859Y-130691349D01*
X190064755Y-130509031D01*
X190127990Y-130314417D01*
X190160000Y-130112317D01*
X190160000Y-129907682D01*
X190127990Y-129705582D01*
X190064755Y-129510968D01*
X189971859Y-129328650D01*
X189939474Y-129284077D01*
X189939474Y-129284076D01*
X189260000Y-129963551D01*
X189260000Y-129957339D01*
X189232741Y-129855606D01*
X189180080Y-129764394D01*
X189105606Y-129689920D01*
X189014394Y-129637259D01*
X188912661Y-129610000D01*
X188906446Y-129610000D01*
X189585922Y-128930524D01*
X189585921Y-128930523D01*
X189541359Y-128898147D01*
X189541350Y-128898141D01*
X189359031Y-128805244D01*
X189164417Y-128742009D01*
X188962317Y-128710000D01*
X188757683Y-128710000D01*
X188555582Y-128742009D01*
X188360968Y-128805244D01*
X188178644Y-128898143D01*
X188134077Y-128930523D01*
X188134077Y-128930524D01*
X188813554Y-129610000D01*
X188807339Y-129610000D01*
X188705606Y-129637259D01*
X188614394Y-129689920D01*
X188539920Y-129764394D01*
X188487259Y-129855606D01*
X188460000Y-129957339D01*
X188460000Y-129963553D01*
X187780524Y-129284077D01*
X187780523Y-129284077D01*
X187748143Y-129328644D01*
X187655244Y-129510968D01*
X187592009Y-129705582D01*
X187560000Y-129907682D01*
X185160500Y-129907682D01*
X185160500Y-129907648D01*
X185152257Y-129855606D01*
X185128477Y-129705465D01*
X185097458Y-129610000D01*
X185065220Y-129510781D01*
X185065218Y-129510778D01*
X185065218Y-129510776D01*
X184972419Y-129328650D01*
X184972287Y-129328390D01*
X184940092Y-129284077D01*
X184851971Y-129162786D01*
X184707213Y-129018028D01*
X184541613Y-128897715D01*
X184541612Y-128897714D01*
X184541610Y-128897713D01*
X184484653Y-128868691D01*
X184359223Y-128804781D01*
X184164534Y-128741522D01*
X183989995Y-128713878D01*
X183962352Y-128709500D01*
X183757648Y-128709500D01*
X183733329Y-128713351D01*
X183555465Y-128741522D01*
X183360776Y-128804781D01*
X183178386Y-128897715D01*
X183012786Y-129018028D01*
X183012782Y-129018032D01*
X182907634Y-129123181D01*
X182846311Y-129156666D01*
X182819953Y-129159500D01*
X169662651Y-129159500D01*
X169595612Y-129139815D01*
X169549857Y-129087011D01*
X169539913Y-129017853D01*
X169568938Y-128954297D01*
X169574970Y-128947819D01*
X176515970Y-122006819D01*
X176577293Y-121973334D01*
X176603651Y-121970500D01*
X182959060Y-121970500D01*
X183026099Y-121990185D01*
X183064597Y-122029401D01*
X183131986Y-122138656D01*
X183256042Y-122262712D01*
X183405364Y-122354814D01*
X183571901Y-122409999D01*
X183674689Y-122420500D01*
X184874706Y-122420499D01*
X184977495Y-122409999D01*
X185144032Y-122354814D01*
X185293354Y-122262712D01*
X185417410Y-122138656D01*
X185509512Y-121989334D01*
X185564697Y-121822797D01*
X185575198Y-121720009D01*
X185575197Y-121017682D01*
X186474698Y-121017682D01*
X186474698Y-121222317D01*
X186506707Y-121424417D01*
X186569942Y-121619031D01*
X186662839Y-121801350D01*
X186662845Y-121801359D01*
X186695221Y-121845921D01*
X186695222Y-121845922D01*
X187374698Y-121166446D01*
X187374698Y-121172661D01*
X187401957Y-121274394D01*
X187454618Y-121365606D01*
X187529092Y-121440080D01*
X187620304Y-121492741D01*
X187722037Y-121520000D01*
X187728251Y-121520000D01*
X187048774Y-122199474D01*
X187093348Y-122231859D01*
X187275666Y-122324755D01*
X187470280Y-122387990D01*
X187672381Y-122420000D01*
X187877015Y-122420000D01*
X188079115Y-122387990D01*
X188273729Y-122324755D01*
X188456047Y-122231859D01*
X188500619Y-122199474D01*
X187821145Y-121520000D01*
X187827359Y-121520000D01*
X187929092Y-121492741D01*
X188020304Y-121440080D01*
X188094778Y-121365606D01*
X188147439Y-121274394D01*
X188174698Y-121172661D01*
X188174698Y-121166447D01*
X188854172Y-121845921D01*
X188886557Y-121801349D01*
X188979453Y-121619031D01*
X189042688Y-121424417D01*
X189074698Y-121222317D01*
X189074698Y-121017682D01*
X189042688Y-120815582D01*
X188979453Y-120620968D01*
X188886557Y-120438650D01*
X188854172Y-120394077D01*
X188854172Y-120394076D01*
X188174698Y-121073551D01*
X188174698Y-121067339D01*
X188147439Y-120965606D01*
X188094778Y-120874394D01*
X188020304Y-120799920D01*
X187929092Y-120747259D01*
X187827359Y-120720000D01*
X187821144Y-120720000D01*
X188500620Y-120040524D01*
X188500619Y-120040523D01*
X188456057Y-120008147D01*
X188456048Y-120008141D01*
X188273729Y-119915244D01*
X188079115Y-119852009D01*
X187877015Y-119820000D01*
X187672381Y-119820000D01*
X187470280Y-119852009D01*
X187275666Y-119915244D01*
X187093342Y-120008143D01*
X187048775Y-120040523D01*
X187048775Y-120040524D01*
X187728252Y-120720000D01*
X187722037Y-120720000D01*
X187620304Y-120747259D01*
X187529092Y-120799920D01*
X187454618Y-120874394D01*
X187401957Y-120965606D01*
X187374698Y-121067339D01*
X187374698Y-121073553D01*
X186695222Y-120394077D01*
X186695221Y-120394077D01*
X186662841Y-120438644D01*
X186569942Y-120620968D01*
X186506707Y-120815582D01*
X186474698Y-121017682D01*
X185575197Y-121017682D01*
X185575197Y-120519992D01*
X185564697Y-120417203D01*
X185509512Y-120250666D01*
X185484797Y-120210597D01*
X185449198Y-120152881D01*
X185449197Y-120152880D01*
X185417410Y-120101344D01*
X185293354Y-119977288D01*
X185144032Y-119885186D01*
X184977495Y-119830001D01*
X184977493Y-119830000D01*
X184874708Y-119819500D01*
X183674696Y-119819500D01*
X183674679Y-119819501D01*
X183571901Y-119830000D01*
X183571898Y-119830001D01*
X183405366Y-119885185D01*
X183405361Y-119885187D01*
X183256040Y-119977289D01*
X183131987Y-120101342D01*
X183064599Y-120210597D01*
X183012651Y-120257321D01*
X182959060Y-120269500D01*
X176116228Y-120269500D01*
X175951925Y-120302182D01*
X175951917Y-120302184D01*
X175904110Y-120321987D01*
X175904109Y-120321987D01*
X175797139Y-120366294D01*
X175797136Y-120366296D01*
X175657842Y-120459369D01*
X175657834Y-120459375D01*
X168522181Y-127595029D01*
X168460858Y-127628514D01*
X168391166Y-127623530D01*
X168335233Y-127581658D01*
X168310816Y-127516194D01*
X168310500Y-127507348D01*
X168310500Y-127371456D01*
X168272052Y-127178170D01*
X168272051Y-127178169D01*
X168272051Y-127178165D01*
X168272049Y-127178160D01*
X168196635Y-126996092D01*
X168196628Y-126996079D01*
X168087139Y-126832218D01*
X168087136Y-126832214D01*
X167947785Y-126692863D01*
X167947781Y-126692860D01*
X167783920Y-126583371D01*
X167783907Y-126583364D01*
X167601839Y-126507950D01*
X167601829Y-126507947D01*
X167408543Y-126469500D01*
X167408541Y-126469500D01*
X167211459Y-126469500D01*
X167211457Y-126469500D01*
X167018170Y-126507947D01*
X167018160Y-126507950D01*
X166836092Y-126583364D01*
X166836079Y-126583371D01*
X166672218Y-126692860D01*
X166672214Y-126692863D01*
X166532863Y-126832214D01*
X166532860Y-126832218D01*
X166423371Y-126996079D01*
X166423364Y-126996092D01*
X166347950Y-127178160D01*
X166347947Y-127178170D01*
X166309500Y-127371456D01*
X166309500Y-127371459D01*
X166309500Y-127568541D01*
X166309500Y-127568543D01*
X166309499Y-127568543D01*
X166347947Y-127761829D01*
X166347950Y-127761839D01*
X166423364Y-127943907D01*
X166423369Y-127943916D01*
X166438601Y-127966711D01*
X166459480Y-128033388D01*
X166459500Y-128035604D01*
X166459500Y-130305500D01*
X166439815Y-130372539D01*
X166387011Y-130418294D01*
X166335500Y-130429500D01*
X135476228Y-130429500D01*
X135311925Y-130462181D01*
X135311916Y-130462184D01*
X135157143Y-130526292D01*
X135017831Y-130619379D01*
X135017830Y-130619380D01*
X133629375Y-132007834D01*
X133629372Y-132007838D01*
X133536299Y-132147130D01*
X133536292Y-132147143D01*
X133490962Y-132256583D01*
X133472185Y-132301913D01*
X133472182Y-132301925D01*
X133439500Y-132466228D01*
X133439500Y-136655500D01*
X133419815Y-136722539D01*
X133367011Y-136768294D01*
X133315500Y-136779500D01*
X131590758Y-136779500D01*
X131561317Y-136770855D01*
X131531331Y-136764332D01*
X131526315Y-136760577D01*
X131523719Y-136759815D01*
X131503077Y-136743181D01*
X131396569Y-136636673D01*
X131363084Y-136575350D01*
X131368068Y-136505658D01*
X131409940Y-136449725D01*
X131440915Y-136432810D01*
X131572331Y-136383796D01*
X131687546Y-136297546D01*
X131773796Y-136182331D01*
X131824091Y-136047483D01*
X131830500Y-135987873D01*
X131830499Y-134192128D01*
X131824091Y-134132517D01*
X131822810Y-134129083D01*
X131773797Y-133997671D01*
X131773793Y-133997664D01*
X131687547Y-133882455D01*
X131687544Y-133882452D01*
X131572335Y-133796206D01*
X131572328Y-133796202D01*
X131437482Y-133745908D01*
X131437483Y-133745908D01*
X131377883Y-133739501D01*
X131377881Y-133739500D01*
X131377873Y-133739500D01*
X131377864Y-133739500D01*
X129582129Y-133739500D01*
X129582123Y-133739501D01*
X129522516Y-133745908D01*
X129387671Y-133796202D01*
X129387664Y-133796206D01*
X129272455Y-133882452D01*
X129272452Y-133882455D01*
X129186206Y-133997664D01*
X129186203Y-133997669D01*
X129137189Y-134129083D01*
X129095317Y-134185016D01*
X129029853Y-134209433D01*
X128961580Y-134194581D01*
X128933326Y-134173430D01*
X128819786Y-134059890D01*
X128647820Y-133934951D01*
X128458414Y-133838444D01*
X128458413Y-133838443D01*
X128458412Y-133838443D01*
X128256243Y-133772754D01*
X128256241Y-133772753D01*
X128256240Y-133772753D01*
X128094957Y-133747208D01*
X128046287Y-133739500D01*
X127833713Y-133739500D01*
X127785042Y-133747208D01*
X127623760Y-133772753D01*
X127421585Y-133838444D01*
X127232179Y-133934951D01*
X127060213Y-134059890D01*
X126909890Y-134210213D01*
X126784949Y-134382182D01*
X126780484Y-134390946D01*
X126732509Y-134441742D01*
X126664688Y-134458536D01*
X126598553Y-134435998D01*
X126559516Y-134390946D01*
X126555050Y-134382182D01*
X126430109Y-134210213D01*
X126279786Y-134059890D01*
X126107820Y-133934951D01*
X125918414Y-133838444D01*
X125918413Y-133838443D01*
X125918412Y-133838443D01*
X125716243Y-133772754D01*
X125716241Y-133772753D01*
X125716240Y-133772753D01*
X125554957Y-133747208D01*
X125506287Y-133739500D01*
X125293713Y-133739500D01*
X125245042Y-133747208D01*
X125083760Y-133772753D01*
X124881585Y-133838444D01*
X124692179Y-133934951D01*
X124520213Y-134059890D01*
X124369890Y-134210213D01*
X124244949Y-134382182D01*
X124240484Y-134390946D01*
X124192509Y-134441742D01*
X124124688Y-134458536D01*
X124058553Y-134435998D01*
X124019516Y-134390946D01*
X124015050Y-134382182D01*
X123890109Y-134210213D01*
X123739786Y-134059890D01*
X123567820Y-133934951D01*
X123378414Y-133838444D01*
X123378413Y-133838443D01*
X123378412Y-133838443D01*
X123176243Y-133772754D01*
X123176241Y-133772753D01*
X123176240Y-133772753D01*
X123014957Y-133747208D01*
X122966287Y-133739500D01*
X122753713Y-133739500D01*
X122705042Y-133747208D01*
X122543760Y-133772753D01*
X122341585Y-133838444D01*
X122152179Y-133934951D01*
X121980213Y-134059890D01*
X121829890Y-134210213D01*
X121704949Y-134382182D01*
X121700484Y-134390946D01*
X121652509Y-134441742D01*
X121584688Y-134458536D01*
X121518553Y-134435998D01*
X121479516Y-134390946D01*
X121475050Y-134382182D01*
X121350109Y-134210213D01*
X121199786Y-134059890D01*
X121027820Y-133934951D01*
X120838414Y-133838444D01*
X120838413Y-133838443D01*
X120838412Y-133838443D01*
X120636243Y-133772754D01*
X120636241Y-133772753D01*
X120636240Y-133772753D01*
X120474957Y-133747208D01*
X120426287Y-133739500D01*
X120213713Y-133739500D01*
X120165042Y-133747208D01*
X120003760Y-133772753D01*
X119801585Y-133838444D01*
X119612179Y-133934951D01*
X119440213Y-134059890D01*
X119289890Y-134210213D01*
X119164951Y-134382179D01*
X119068444Y-134571585D01*
X119002753Y-134773760D01*
X118969500Y-134983713D01*
X101068533Y-134983713D01*
X101056961Y-134980315D01*
X101011206Y-134927511D01*
X101000000Y-134876000D01*
X101000000Y-104090000D01*
X144940000Y-104090000D01*
X149279895Y-104090000D01*
X152892662Y-99437944D01*
X152949328Y-99397069D01*
X152990598Y-99390000D01*
X153940000Y-99390000D01*
X153940000Y-94590000D01*
X152990598Y-94590000D01*
X152923559Y-94570315D01*
X152892662Y-94542056D01*
X149279895Y-89890000D01*
X144940000Y-89890000D01*
X144940000Y-104090000D01*
X101000000Y-104090000D01*
X101000000Y-87997648D01*
X102509500Y-87997648D01*
X102509500Y-88202351D01*
X102541522Y-88404534D01*
X102604781Y-88599223D01*
X102668691Y-88724653D01*
X102697585Y-88781359D01*
X102697715Y-88781613D01*
X102818028Y-88947213D01*
X102962786Y-89091971D01*
X103083226Y-89179474D01*
X103128390Y-89212287D01*
X103228226Y-89263156D01*
X103310776Y-89305218D01*
X103310778Y-89305218D01*
X103310781Y-89305220D01*
X103407260Y-89336568D01*
X103505465Y-89368477D01*
X103606557Y-89384488D01*
X103707648Y-89400500D01*
X103707649Y-89400500D01*
X103912351Y-89400500D01*
X103912352Y-89400500D01*
X104114534Y-89368477D01*
X104309219Y-89305220D01*
X104491610Y-89212287D01*
X104584590Y-89144732D01*
X104657213Y-89091971D01*
X104657215Y-89091968D01*
X104657219Y-89091966D01*
X104801966Y-88947219D01*
X104801968Y-88947215D01*
X104801971Y-88947213D01*
X104922284Y-88781614D01*
X104922286Y-88781611D01*
X104922287Y-88781610D01*
X104969516Y-88688917D01*
X105017489Y-88638123D01*
X105085310Y-88621328D01*
X105151445Y-88643865D01*
X105190485Y-88688919D01*
X105237715Y-88781614D01*
X105358028Y-88947213D01*
X105502786Y-89091971D01*
X105623226Y-89179474D01*
X105668390Y-89212287D01*
X105768226Y-89263156D01*
X105850776Y-89305218D01*
X105850778Y-89305218D01*
X105850781Y-89305220D01*
X105947260Y-89336568D01*
X106045465Y-89368477D01*
X106146557Y-89384488D01*
X106247648Y-89400500D01*
X106247649Y-89400500D01*
X106452351Y-89400500D01*
X106452352Y-89400500D01*
X106654534Y-89368477D01*
X106849219Y-89305220D01*
X107031610Y-89212287D01*
X107076774Y-89179474D01*
X107197213Y-89091971D01*
X107197215Y-89091968D01*
X107197219Y-89091966D01*
X107341966Y-88947219D01*
X107397766Y-88870415D01*
X107453096Y-88827750D01*
X107522710Y-88821771D01*
X107584505Y-88854376D01*
X107618233Y-88912635D01*
X107623438Y-88933030D01*
X107623442Y-88933043D01*
X107646862Y-88989584D01*
X108407037Y-88229410D01*
X108424075Y-88292993D01*
X108489901Y-88407007D01*
X108582993Y-88500099D01*
X108697007Y-88565925D01*
X108760589Y-88582962D01*
X108000414Y-89343135D01*
X108056960Y-89366557D01*
X108056964Y-89366559D01*
X108107946Y-89384544D01*
X108250219Y-89404999D01*
X108250221Y-89405000D01*
X109529786Y-89405000D01*
X109583762Y-89402106D01*
X109583764Y-89402106D01*
X109723039Y-89366558D01*
X109779584Y-89343136D01*
X109779584Y-89343135D01*
X109019410Y-88582962D01*
X109082993Y-88565925D01*
X109197007Y-88500099D01*
X109290099Y-88407007D01*
X109355925Y-88292993D01*
X109372962Y-88229411D01*
X110133135Y-88989584D01*
X110133136Y-88989584D01*
X110156553Y-88933052D01*
X110166668Y-88904379D01*
X110207533Y-88847706D01*
X110272551Y-88822123D01*
X110341078Y-88835752D01*
X110383924Y-88872744D01*
X110438028Y-88947212D01*
X110438032Y-88947217D01*
X110582786Y-89091971D01*
X110703226Y-89179474D01*
X110748390Y-89212287D01*
X110848226Y-89263156D01*
X110930776Y-89305218D01*
X110930778Y-89305218D01*
X110930781Y-89305220D01*
X111027260Y-89336568D01*
X111125465Y-89368477D01*
X111226557Y-89384488D01*
X111327648Y-89400500D01*
X111327649Y-89400500D01*
X111532351Y-89400500D01*
X111532352Y-89400500D01*
X111734534Y-89368477D01*
X111929219Y-89305220D01*
X112111610Y-89212287D01*
X112204590Y-89144732D01*
X112277213Y-89091971D01*
X112277215Y-89091968D01*
X112277219Y-89091966D01*
X112421966Y-88947219D01*
X112421968Y-88947215D01*
X112421971Y-88947213D01*
X112542284Y-88781614D01*
X112542286Y-88781611D01*
X112542287Y-88781610D01*
X112589516Y-88688917D01*
X112637489Y-88638123D01*
X112705310Y-88621328D01*
X112771445Y-88643865D01*
X112810485Y-88688919D01*
X112857715Y-88781614D01*
X112978028Y-88947213D01*
X113122786Y-89091971D01*
X113243226Y-89179474D01*
X113288390Y-89212287D01*
X113388226Y-89263156D01*
X113470776Y-89305218D01*
X113470778Y-89305218D01*
X113470781Y-89305220D01*
X113567260Y-89336568D01*
X113665465Y-89368477D01*
X113766557Y-89384488D01*
X113867648Y-89400500D01*
X113867649Y-89400500D01*
X114072351Y-89400500D01*
X114072352Y-89400500D01*
X114274534Y-89368477D01*
X114469219Y-89305220D01*
X114651610Y-89212287D01*
X114744590Y-89144732D01*
X114817213Y-89091971D01*
X114817215Y-89091968D01*
X114817219Y-89091966D01*
X114961966Y-88947219D01*
X114961968Y-88947215D01*
X114961971Y-88947213D01*
X115053351Y-88821437D01*
X115082287Y-88781610D01*
X115129795Y-88688369D01*
X115177769Y-88637573D01*
X115245590Y-88620778D01*
X115311725Y-88643315D01*
X115350765Y-88688369D01*
X115398141Y-88781350D01*
X115398147Y-88781359D01*
X115430523Y-88825921D01*
X115430524Y-88825922D01*
X116027037Y-88229409D01*
X116044075Y-88292993D01*
X116109901Y-88407007D01*
X116202993Y-88500099D01*
X116317007Y-88565925D01*
X116380590Y-88582962D01*
X115784076Y-89179474D01*
X115828650Y-89211859D01*
X116010968Y-89304755D01*
X116205582Y-89367990D01*
X116407683Y-89400000D01*
X116612317Y-89400000D01*
X116814417Y-89367990D01*
X117009031Y-89304755D01*
X117191349Y-89211859D01*
X117235921Y-89179474D01*
X116639409Y-88582962D01*
X116702993Y-88565925D01*
X116817007Y-88500099D01*
X116910099Y-88407007D01*
X116975925Y-88292993D01*
X116992962Y-88229409D01*
X117589474Y-88825921D01*
X117621861Y-88781347D01*
X117621861Y-88781346D01*
X117669234Y-88688371D01*
X117717208Y-88637575D01*
X117785028Y-88620779D01*
X117851164Y-88643316D01*
X117890203Y-88688369D01*
X117937713Y-88781611D01*
X118058028Y-88947213D01*
X118202786Y-89091971D01*
X118323226Y-89179474D01*
X118368390Y-89212287D01*
X118468226Y-89263156D01*
X118550776Y-89305218D01*
X118550778Y-89305218D01*
X118550781Y-89305220D01*
X118647260Y-89336568D01*
X118745465Y-89368477D01*
X118846557Y-89384488D01*
X118947648Y-89400500D01*
X118947649Y-89400500D01*
X119152351Y-89400500D01*
X119152352Y-89400500D01*
X119354534Y-89368477D01*
X119549219Y-89305220D01*
X119731610Y-89212287D01*
X119824590Y-89144732D01*
X119897213Y-89091971D01*
X119897215Y-89091968D01*
X119897219Y-89091966D01*
X120041966Y-88947219D01*
X120097388Y-88870935D01*
X120152718Y-88828270D01*
X120222331Y-88822291D01*
X120284127Y-88854896D01*
X120317855Y-88913155D01*
X120322976Y-88933221D01*
X120322980Y-88933233D01*
X120353419Y-89006719D01*
X120353431Y-89006747D01*
X120376779Y-89055548D01*
X120376781Y-89055551D01*
X120463006Y-89170733D01*
X120463010Y-89170737D01*
X120463015Y-89170743D01*
X120519252Y-89226980D01*
X120519261Y-89226988D01*
X120519267Y-89226994D01*
X120559524Y-89263156D01*
X120559532Y-89263162D01*
X120683263Y-89336573D01*
X120683262Y-89336573D01*
X120683279Y-89336580D01*
X120756774Y-89367022D01*
X120807802Y-89385024D01*
X120950218Y-89405500D01*
X120950221Y-89405500D01*
X122229784Y-89405500D01*
X122265804Y-89403569D01*
X122283815Y-89402604D01*
X122423226Y-89367022D01*
X122496735Y-89336574D01*
X122545551Y-89313219D01*
X122660733Y-89226994D01*
X122716994Y-89170733D01*
X122753157Y-89130475D01*
X122826574Y-89006735D01*
X122857022Y-88933226D01*
X122867027Y-88904865D01*
X122907893Y-88848195D01*
X122972911Y-88822614D01*
X123041438Y-88836245D01*
X123084281Y-88873235D01*
X123138028Y-88947213D01*
X123282786Y-89091971D01*
X123403226Y-89179474D01*
X123448390Y-89212287D01*
X123548226Y-89263156D01*
X123630776Y-89305218D01*
X123630778Y-89305218D01*
X123630781Y-89305220D01*
X123727260Y-89336568D01*
X123825465Y-89368477D01*
X123926557Y-89384488D01*
X124027648Y-89400500D01*
X124027649Y-89400500D01*
X124232351Y-89400500D01*
X124232352Y-89400500D01*
X124434534Y-89368477D01*
X124629219Y-89305220D01*
X124811610Y-89212287D01*
X124904590Y-89144732D01*
X124977213Y-89091971D01*
X124977215Y-89091968D01*
X124977219Y-89091966D01*
X125121966Y-88947219D01*
X125121968Y-88947215D01*
X125121971Y-88947213D01*
X125242284Y-88781614D01*
X125242286Y-88781611D01*
X125242287Y-88781610D01*
X125289516Y-88688917D01*
X125337489Y-88638123D01*
X125405310Y-88621328D01*
X125471445Y-88643865D01*
X125510485Y-88688919D01*
X125557715Y-88781614D01*
X125678028Y-88947213D01*
X125822786Y-89091971D01*
X125943226Y-89179474D01*
X125988390Y-89212287D01*
X126088226Y-89263156D01*
X126170776Y-89305218D01*
X126170778Y-89305218D01*
X126170781Y-89305220D01*
X126267260Y-89336568D01*
X126365465Y-89368477D01*
X126466557Y-89384488D01*
X126567648Y-89400500D01*
X126567649Y-89400500D01*
X126772351Y-89400500D01*
X126772352Y-89400500D01*
X126974534Y-89368477D01*
X127169219Y-89305220D01*
X127351610Y-89212287D01*
X127444590Y-89144732D01*
X127517213Y-89091971D01*
X127517215Y-89091968D01*
X127517219Y-89091966D01*
X127661966Y-88947219D01*
X127661968Y-88947215D01*
X127661971Y-88947213D01*
X127782284Y-88781614D01*
X127782286Y-88781611D01*
X127782287Y-88781610D01*
X127829516Y-88688917D01*
X127877489Y-88638123D01*
X127945310Y-88621328D01*
X128011445Y-88643865D01*
X128050485Y-88688919D01*
X128097715Y-88781614D01*
X128218028Y-88947213D01*
X128362786Y-89091971D01*
X128483226Y-89179474D01*
X128528390Y-89212287D01*
X128628226Y-89263156D01*
X128710776Y-89305218D01*
X128710778Y-89305218D01*
X128710781Y-89305220D01*
X128807260Y-89336568D01*
X128905465Y-89368477D01*
X129006557Y-89384488D01*
X129107648Y-89400500D01*
X129107649Y-89400500D01*
X129312351Y-89400500D01*
X129312352Y-89400500D01*
X129514534Y-89368477D01*
X129709219Y-89305220D01*
X129891610Y-89212287D01*
X129984590Y-89144732D01*
X130057213Y-89091971D01*
X130057215Y-89091968D01*
X130057219Y-89091966D01*
X130201966Y-88947219D01*
X130201968Y-88947215D01*
X130201971Y-88947213D01*
X130293351Y-88821437D01*
X130322287Y-88781610D01*
X130369795Y-88688369D01*
X130417769Y-88637573D01*
X130485590Y-88620778D01*
X130551725Y-88643315D01*
X130590765Y-88688369D01*
X130638141Y-88781350D01*
X130638147Y-88781359D01*
X130670523Y-88825921D01*
X130670524Y-88825922D01*
X131267037Y-88229409D01*
X131284075Y-88292993D01*
X131349901Y-88407007D01*
X131442993Y-88500099D01*
X131557007Y-88565925D01*
X131620590Y-88582962D01*
X131024076Y-89179474D01*
X131068650Y-89211859D01*
X131250968Y-89304755D01*
X131445582Y-89367990D01*
X131647683Y-89400000D01*
X131852317Y-89400000D01*
X132054417Y-89367990D01*
X132249031Y-89304755D01*
X132431349Y-89211859D01*
X132475921Y-89179474D01*
X131879409Y-88582962D01*
X131942993Y-88565925D01*
X132057007Y-88500099D01*
X132150099Y-88407007D01*
X132215925Y-88292993D01*
X132232962Y-88229410D01*
X132829474Y-88825922D01*
X132886462Y-88821437D01*
X132886719Y-88824704D01*
X132922127Y-88821651D01*
X132983934Y-88854235D01*
X133017692Y-88912520D01*
X133022975Y-88933219D01*
X133022980Y-88933233D01*
X133053419Y-89006719D01*
X133053431Y-89006747D01*
X133076779Y-89055548D01*
X133076781Y-89055551D01*
X133163006Y-89170733D01*
X133163010Y-89170737D01*
X133163015Y-89170743D01*
X133219252Y-89226980D01*
X133219261Y-89226988D01*
X133219267Y-89226994D01*
X133259524Y-89263156D01*
X133259532Y-89263162D01*
X133383263Y-89336573D01*
X133383262Y-89336573D01*
X133383279Y-89336580D01*
X133456774Y-89367022D01*
X133507802Y-89385024D01*
X133650218Y-89405500D01*
X133650221Y-89405500D01*
X134929784Y-89405500D01*
X134965804Y-89403569D01*
X134983815Y-89402604D01*
X135123226Y-89367022D01*
X135196735Y-89336574D01*
X135245551Y-89313219D01*
X135360733Y-89226994D01*
X135416994Y-89170733D01*
X135453157Y-89130475D01*
X135526574Y-89006735D01*
X135557022Y-88933226D01*
X135567027Y-88904865D01*
X135607893Y-88848195D01*
X135672911Y-88822614D01*
X135741438Y-88836245D01*
X135784281Y-88873235D01*
X135838028Y-88947213D01*
X135982786Y-89091971D01*
X136103226Y-89179474D01*
X136148390Y-89212287D01*
X136248226Y-89263156D01*
X136330776Y-89305218D01*
X136330778Y-89305218D01*
X136330781Y-89305220D01*
X136427260Y-89336568D01*
X136525465Y-89368477D01*
X136626557Y-89384488D01*
X136727648Y-89400500D01*
X136727649Y-89400500D01*
X136932351Y-89400500D01*
X136932352Y-89400500D01*
X137134534Y-89368477D01*
X137329219Y-89305220D01*
X137511610Y-89212287D01*
X137604590Y-89144732D01*
X137677213Y-89091971D01*
X137677215Y-89091968D01*
X137677219Y-89091966D01*
X137821966Y-88947219D01*
X137821968Y-88947215D01*
X137821971Y-88947213D01*
X137942284Y-88781614D01*
X137942286Y-88781611D01*
X137942287Y-88781610D01*
X137989516Y-88688917D01*
X138037489Y-88638123D01*
X138105310Y-88621328D01*
X138171445Y-88643865D01*
X138210485Y-88688919D01*
X138257715Y-88781614D01*
X138378028Y-88947213D01*
X138522786Y-89091971D01*
X138643226Y-89179474D01*
X138688390Y-89212287D01*
X138788226Y-89263156D01*
X138870776Y-89305218D01*
X138870778Y-89305218D01*
X138870781Y-89305220D01*
X138967260Y-89336568D01*
X139065465Y-89368477D01*
X139166557Y-89384488D01*
X139267648Y-89400500D01*
X139267649Y-89400500D01*
X139472351Y-89400500D01*
X139472352Y-89400500D01*
X139674534Y-89368477D01*
X139869219Y-89305220D01*
X140051610Y-89212287D01*
X140144590Y-89144732D01*
X140217213Y-89091971D01*
X140217215Y-89091968D01*
X140217219Y-89091966D01*
X140361966Y-88947219D01*
X140361968Y-88947215D01*
X140361971Y-88947213D01*
X140482284Y-88781614D01*
X140482286Y-88781611D01*
X140482287Y-88781610D01*
X140529516Y-88688917D01*
X140577489Y-88638123D01*
X140645310Y-88621328D01*
X140711445Y-88643865D01*
X140750485Y-88688919D01*
X140797715Y-88781614D01*
X140918028Y-88947213D01*
X141062786Y-89091971D01*
X141183226Y-89179474D01*
X141228390Y-89212287D01*
X141328226Y-89263156D01*
X141410776Y-89305218D01*
X141410778Y-89305218D01*
X141410781Y-89305220D01*
X141507260Y-89336568D01*
X141605465Y-89368477D01*
X141706557Y-89384488D01*
X141807648Y-89400500D01*
X141807649Y-89400500D01*
X142012351Y-89400500D01*
X142012352Y-89400500D01*
X142214534Y-89368477D01*
X142409219Y-89305220D01*
X142591610Y-89212287D01*
X142684590Y-89144732D01*
X142757213Y-89091971D01*
X142757215Y-89091968D01*
X142757219Y-89091966D01*
X142901966Y-88947219D01*
X142901968Y-88947215D01*
X142901971Y-88947213D01*
X143022284Y-88781614D01*
X143022286Y-88781611D01*
X143022287Y-88781610D01*
X143069516Y-88688917D01*
X143117489Y-88638123D01*
X143185310Y-88621328D01*
X143251445Y-88643865D01*
X143290485Y-88688919D01*
X143337715Y-88781614D01*
X143458028Y-88947213D01*
X143602786Y-89091971D01*
X143723226Y-89179474D01*
X143768390Y-89212287D01*
X143868226Y-89263156D01*
X143950776Y-89305218D01*
X143950778Y-89305218D01*
X143950781Y-89305220D01*
X144047260Y-89336568D01*
X144145465Y-89368477D01*
X144246557Y-89384488D01*
X144347648Y-89400500D01*
X144347649Y-89400500D01*
X144552351Y-89400500D01*
X144552352Y-89400500D01*
X144754534Y-89368477D01*
X144949219Y-89305220D01*
X145131610Y-89212287D01*
X145224590Y-89144732D01*
X145297213Y-89091971D01*
X145297215Y-89091968D01*
X145297219Y-89091966D01*
X145441966Y-88947219D01*
X145497388Y-88870935D01*
X145552718Y-88828270D01*
X145622331Y-88822291D01*
X145684127Y-88854896D01*
X145717855Y-88913155D01*
X145722976Y-88933221D01*
X145722980Y-88933233D01*
X145753419Y-89006719D01*
X145753431Y-89006747D01*
X145776779Y-89055548D01*
X145776781Y-89055551D01*
X145863006Y-89170733D01*
X145863010Y-89170737D01*
X145863015Y-89170743D01*
X145919252Y-89226980D01*
X145919261Y-89226988D01*
X145919267Y-89226994D01*
X145959524Y-89263156D01*
X145959532Y-89263162D01*
X146083263Y-89336573D01*
X146083262Y-89336573D01*
X146083279Y-89336580D01*
X146156774Y-89367022D01*
X146207802Y-89385024D01*
X146350218Y-89405500D01*
X146350221Y-89405500D01*
X147629784Y-89405500D01*
X147665804Y-89403569D01*
X147683815Y-89402604D01*
X147823226Y-89367022D01*
X147896735Y-89336574D01*
X147945551Y-89313219D01*
X148060733Y-89226994D01*
X148116994Y-89170733D01*
X148153157Y-89130475D01*
X148226574Y-89006735D01*
X148257022Y-88933226D01*
X148267027Y-88904865D01*
X148307893Y-88848195D01*
X148372911Y-88822614D01*
X148441438Y-88836245D01*
X148484281Y-88873235D01*
X148538028Y-88947213D01*
X148682786Y-89091971D01*
X148803226Y-89179474D01*
X148848390Y-89212287D01*
X148948226Y-89263156D01*
X149030776Y-89305218D01*
X149030778Y-89305218D01*
X149030781Y-89305220D01*
X149127260Y-89336568D01*
X149225465Y-89368477D01*
X149326557Y-89384488D01*
X149427648Y-89400500D01*
X149427649Y-89400500D01*
X149632351Y-89400500D01*
X149632352Y-89400500D01*
X149834534Y-89368477D01*
X150029219Y-89305220D01*
X150211610Y-89212287D01*
X150304590Y-89144732D01*
X150377213Y-89091971D01*
X150377215Y-89091968D01*
X150377219Y-89091966D01*
X150521966Y-88947219D01*
X150521968Y-88947215D01*
X150521971Y-88947213D01*
X150642284Y-88781614D01*
X150642286Y-88781611D01*
X150642287Y-88781610D01*
X150689516Y-88688917D01*
X150737489Y-88638123D01*
X150805310Y-88621328D01*
X150871445Y-88643865D01*
X150910485Y-88688919D01*
X150957715Y-88781614D01*
X151078028Y-88947213D01*
X151222786Y-89091971D01*
X151343226Y-89179474D01*
X151388390Y-89212287D01*
X151488226Y-89263156D01*
X151570776Y-89305218D01*
X151570778Y-89305218D01*
X151570781Y-89305220D01*
X151667260Y-89336568D01*
X151765465Y-89368477D01*
X151866557Y-89384488D01*
X151967648Y-89400500D01*
X151967649Y-89400500D01*
X152172351Y-89400500D01*
X152172352Y-89400500D01*
X152374534Y-89368477D01*
X152569219Y-89305220D01*
X152751610Y-89212287D01*
X152844590Y-89144732D01*
X152917213Y-89091971D01*
X152917215Y-89091968D01*
X152917219Y-89091966D01*
X153061966Y-88947219D01*
X153061968Y-88947215D01*
X153061971Y-88947213D01*
X153129522Y-88854235D01*
X153182287Y-88781610D01*
X153275220Y-88599219D01*
X153338477Y-88404534D01*
X153370500Y-88202352D01*
X153370500Y-87997648D01*
X153338477Y-87795466D01*
X153337673Y-87792993D01*
X153275218Y-87600776D01*
X153226055Y-87504290D01*
X153182287Y-87418390D01*
X153150092Y-87374077D01*
X153061971Y-87252786D01*
X152917213Y-87108028D01*
X152796615Y-87020410D01*
X152753949Y-86965081D01*
X152745500Y-86920092D01*
X152745500Y-75731163D01*
X152765185Y-75664124D01*
X152781819Y-75643482D01*
X154853482Y-73571819D01*
X154914805Y-73538334D01*
X154941163Y-73535500D01*
X156489836Y-73535500D01*
X156556875Y-73555185D01*
X156602630Y-73607989D01*
X156612574Y-73677147D01*
X156583549Y-73740703D01*
X156577517Y-73747181D01*
X155355307Y-74969390D01*
X155355304Y-74969394D01*
X155281383Y-75080024D01*
X155281378Y-75080034D01*
X155230459Y-75202963D01*
X155230457Y-75202971D01*
X155206949Y-75321156D01*
X155206948Y-75321161D01*
X155204500Y-75333465D01*
X155204500Y-99198836D01*
X155184815Y-99265875D01*
X155168181Y-99286517D01*
X149886669Y-104568028D01*
X149825346Y-104601513D01*
X149779590Y-104602820D01*
X149663730Y-104584469D01*
X149632352Y-104579500D01*
X149427648Y-104579500D01*
X149403329Y-104583351D01*
X149225465Y-104611522D01*
X149030776Y-104674781D01*
X148848386Y-104767715D01*
X148682786Y-104888028D01*
X148538032Y-105032782D01*
X148482610Y-105109064D01*
X148427279Y-105151729D01*
X148357666Y-105157708D01*
X148295871Y-105125102D01*
X148262143Y-105066840D01*
X148257024Y-105046783D01*
X148257022Y-105046774D01*
X148251226Y-105032782D01*
X148233669Y-104990394D01*
X148226574Y-104973265D01*
X148203219Y-104924449D01*
X148116994Y-104809267D01*
X148116989Y-104809262D01*
X148116984Y-104809256D01*
X148060747Y-104753019D01*
X148060731Y-104753005D01*
X148020475Y-104716843D01*
X148020467Y-104716837D01*
X147896736Y-104643426D01*
X147896737Y-104643426D01*
X147833293Y-104617148D01*
X147823226Y-104612978D01*
X147823212Y-104612973D01*
X147823204Y-104612970D01*
X147772199Y-104594976D01*
X147709162Y-104585913D01*
X147629782Y-104574500D01*
X146350218Y-104574500D01*
X146350216Y-104574500D01*
X146296185Y-104577395D01*
X146296181Y-104577396D01*
X146156778Y-104612976D01*
X146156766Y-104612980D01*
X146083280Y-104643419D01*
X146083252Y-104643431D01*
X146034451Y-104666779D01*
X146034446Y-104666782D01*
X145919268Y-104753005D01*
X145919256Y-104753015D01*
X145863019Y-104809252D01*
X145826843Y-104849524D01*
X145826837Y-104849532D01*
X145753426Y-104973263D01*
X145722978Y-105046774D01*
X145722974Y-105046783D01*
X145712971Y-105075137D01*
X145672102Y-105131807D01*
X145607083Y-105157386D01*
X145538557Y-105143752D01*
X145495717Y-105106764D01*
X145452134Y-105046777D01*
X145441966Y-105032781D01*
X145297219Y-104888034D01*
X145297213Y-104888028D01*
X145131613Y-104767715D01*
X145131612Y-104767714D01*
X145131610Y-104767713D01*
X145046855Y-104724528D01*
X144949223Y-104674781D01*
X144754534Y-104611522D01*
X144579995Y-104583878D01*
X144552352Y-104579500D01*
X144347648Y-104579500D01*
X144323329Y-104583351D01*
X144145465Y-104611522D01*
X143950776Y-104674781D01*
X143768386Y-104767715D01*
X143602786Y-104888028D01*
X143458028Y-105032786D01*
X143337715Y-105198386D01*
X143290485Y-105291080D01*
X143242510Y-105341876D01*
X143174689Y-105358671D01*
X143108554Y-105336134D01*
X143069515Y-105291080D01*
X143043599Y-105240218D01*
X143022287Y-105198390D01*
X142990092Y-105154077D01*
X142901971Y-105032786D01*
X142757213Y-104888028D01*
X142591613Y-104767715D01*
X142591612Y-104767714D01*
X142591610Y-104767713D01*
X142506855Y-104724528D01*
X142409223Y-104674781D01*
X142214534Y-104611522D01*
X142039995Y-104583878D01*
X142012352Y-104579500D01*
X141807648Y-104579500D01*
X141783329Y-104583351D01*
X141605465Y-104611522D01*
X141410776Y-104674781D01*
X141228386Y-104767715D01*
X141062786Y-104888028D01*
X140918028Y-105032786D01*
X140797713Y-105198388D01*
X140750203Y-105291630D01*
X140702228Y-105342426D01*
X140634407Y-105359220D01*
X140568272Y-105336682D01*
X140529234Y-105291628D01*
X140481861Y-105198652D01*
X140449474Y-105154077D01*
X140449474Y-105154076D01*
X139852962Y-105750589D01*
X139835925Y-105687007D01*
X139770099Y-105572993D01*
X139677007Y-105479901D01*
X139562993Y-105414075D01*
X139499408Y-105397037D01*
X140095922Y-104800524D01*
X140095921Y-104800523D01*
X140051359Y-104768147D01*
X140051350Y-104768141D01*
X139869031Y-104675244D01*
X139674417Y-104612009D01*
X139472317Y-104580000D01*
X139267683Y-104580000D01*
X139065582Y-104612009D01*
X138870968Y-104675244D01*
X138688644Y-104768143D01*
X138644077Y-104800523D01*
X138644077Y-104800524D01*
X139240591Y-105397037D01*
X139177007Y-105414075D01*
X139062993Y-105479901D01*
X138969901Y-105572993D01*
X138904075Y-105687007D01*
X138887037Y-105750590D01*
X138290524Y-105154077D01*
X138290523Y-105154077D01*
X138258143Y-105198644D01*
X138210765Y-105291630D01*
X138162790Y-105342426D01*
X138094969Y-105359221D01*
X138028834Y-105336683D01*
X137989795Y-105291630D01*
X137942284Y-105198385D01*
X137821971Y-105032786D01*
X137677213Y-104888028D01*
X137511613Y-104767715D01*
X137511612Y-104767714D01*
X137511610Y-104767713D01*
X137426855Y-104724528D01*
X137329223Y-104674781D01*
X137134534Y-104611522D01*
X136959995Y-104583878D01*
X136932352Y-104579500D01*
X136727648Y-104579500D01*
X136703329Y-104583351D01*
X136525465Y-104611522D01*
X136330776Y-104674781D01*
X136148386Y-104767715D01*
X135982786Y-104888028D01*
X135838032Y-105032782D01*
X135782610Y-105109064D01*
X135727279Y-105151729D01*
X135657666Y-105157708D01*
X135595871Y-105125102D01*
X135562143Y-105066840D01*
X135557024Y-105046783D01*
X135557022Y-105046774D01*
X135551226Y-105032782D01*
X135533669Y-104990394D01*
X135526574Y-104973265D01*
X135503219Y-104924449D01*
X135416994Y-104809267D01*
X135416989Y-104809262D01*
X135416984Y-104809256D01*
X135360747Y-104753019D01*
X135360731Y-104753005D01*
X135320475Y-104716843D01*
X135320467Y-104716837D01*
X135196736Y-104643426D01*
X135196737Y-104643426D01*
X135133293Y-104617148D01*
X135123226Y-104612978D01*
X135123212Y-104612973D01*
X135123204Y-104612970D01*
X135072199Y-104594976D01*
X135009162Y-104585913D01*
X134929782Y-104574500D01*
X133650218Y-104574500D01*
X133650216Y-104574500D01*
X133596185Y-104577395D01*
X133596181Y-104577396D01*
X133456778Y-104612976D01*
X133456766Y-104612980D01*
X133383280Y-104643419D01*
X133383252Y-104643431D01*
X133334451Y-104666779D01*
X133334446Y-104666782D01*
X133219268Y-104753005D01*
X133219256Y-104753015D01*
X133163019Y-104809252D01*
X133126843Y-104849524D01*
X133126837Y-104849532D01*
X133053426Y-104973263D01*
X133022978Y-105046774D01*
X133022974Y-105046783D01*
X133012971Y-105075137D01*
X132972102Y-105131807D01*
X132907083Y-105157386D01*
X132838557Y-105143752D01*
X132795717Y-105106764D01*
X132752134Y-105046777D01*
X132741966Y-105032781D01*
X132597219Y-104888034D01*
X132597213Y-104888028D01*
X132431613Y-104767715D01*
X132431612Y-104767714D01*
X132431610Y-104767713D01*
X132346855Y-104724528D01*
X132249223Y-104674781D01*
X132054534Y-104611522D01*
X131879995Y-104583878D01*
X131852352Y-104579500D01*
X131647648Y-104579500D01*
X131623329Y-104583351D01*
X131445465Y-104611522D01*
X131250776Y-104674781D01*
X131068386Y-104767715D01*
X130902786Y-104888028D01*
X130758028Y-105032786D01*
X130637715Y-105198386D01*
X130590485Y-105291080D01*
X130542510Y-105341876D01*
X130474689Y-105358671D01*
X130408554Y-105336134D01*
X130369515Y-105291080D01*
X130343599Y-105240218D01*
X130322287Y-105198390D01*
X130290092Y-105154077D01*
X130201971Y-105032786D01*
X130057213Y-104888028D01*
X129891613Y-104767715D01*
X129891612Y-104767714D01*
X129891610Y-104767713D01*
X129806855Y-104724528D01*
X129709223Y-104674781D01*
X129514534Y-104611522D01*
X129339995Y-104583878D01*
X129312352Y-104579500D01*
X129107648Y-104579500D01*
X129083329Y-104583351D01*
X128905465Y-104611522D01*
X128710776Y-104674781D01*
X128528386Y-104767715D01*
X128362786Y-104888028D01*
X128218028Y-105032786D01*
X128097715Y-105198386D01*
X128050485Y-105291080D01*
X128002510Y-105341876D01*
X127934689Y-105358671D01*
X127868554Y-105336134D01*
X127829515Y-105291080D01*
X127803599Y-105240218D01*
X127782287Y-105198390D01*
X127750092Y-105154077D01*
X127661971Y-105032786D01*
X127517213Y-104888028D01*
X127351613Y-104767715D01*
X127351612Y-104767714D01*
X127351610Y-104767713D01*
X127266855Y-104724528D01*
X127169223Y-104674781D01*
X126974534Y-104611522D01*
X126799995Y-104583878D01*
X126772352Y-104579500D01*
X126567648Y-104579500D01*
X126543329Y-104583351D01*
X126365465Y-104611522D01*
X126170776Y-104674781D01*
X125988386Y-104767715D01*
X125822786Y-104888028D01*
X125678028Y-105032786D01*
X125557715Y-105198386D01*
X125510485Y-105291080D01*
X125462510Y-105341876D01*
X125394689Y-105358671D01*
X125328554Y-105336134D01*
X125289515Y-105291080D01*
X125263599Y-105240218D01*
X125242287Y-105198390D01*
X125210092Y-105154077D01*
X125121971Y-105032786D01*
X124977213Y-104888028D01*
X124811613Y-104767715D01*
X124811612Y-104767714D01*
X124811610Y-104767713D01*
X124726855Y-104724528D01*
X124629223Y-104674781D01*
X124434534Y-104611522D01*
X124259995Y-104583878D01*
X124232352Y-104579500D01*
X124027648Y-104579500D01*
X124003329Y-104583351D01*
X123825465Y-104611522D01*
X123630776Y-104674781D01*
X123448386Y-104767715D01*
X123282786Y-104888028D01*
X123138032Y-105032782D01*
X123082610Y-105109064D01*
X123027279Y-105151729D01*
X122957666Y-105157708D01*
X122895871Y-105125102D01*
X122862143Y-105066840D01*
X122857024Y-105046783D01*
X122857022Y-105046774D01*
X122851226Y-105032782D01*
X122833669Y-104990394D01*
X122826574Y-104973265D01*
X122803219Y-104924449D01*
X122716994Y-104809267D01*
X122716989Y-104809262D01*
X122716984Y-104809256D01*
X122660747Y-104753019D01*
X122660731Y-104753005D01*
X122620475Y-104716843D01*
X122620467Y-104716837D01*
X122496736Y-104643426D01*
X122496737Y-104643426D01*
X122433293Y-104617148D01*
X122423226Y-104612978D01*
X122423212Y-104612973D01*
X122423204Y-104612970D01*
X122372199Y-104594976D01*
X122309162Y-104585913D01*
X122229782Y-104574500D01*
X120950218Y-104574500D01*
X120950216Y-104574500D01*
X120896185Y-104577395D01*
X120896181Y-104577396D01*
X120756778Y-104612976D01*
X120756766Y-104612980D01*
X120683280Y-104643419D01*
X120683252Y-104643431D01*
X120634451Y-104666779D01*
X120634446Y-104666782D01*
X120519268Y-104753005D01*
X120519256Y-104753015D01*
X120463019Y-104809252D01*
X120426843Y-104849524D01*
X120426837Y-104849532D01*
X120353426Y-104973263D01*
X120322978Y-105046774D01*
X120322974Y-105046783D01*
X120312971Y-105075137D01*
X120272102Y-105131807D01*
X120207083Y-105157386D01*
X120138557Y-105143752D01*
X120095717Y-105106764D01*
X120052134Y-105046777D01*
X120041966Y-105032781D01*
X119897219Y-104888034D01*
X119897213Y-104888028D01*
X119731613Y-104767715D01*
X119731612Y-104767714D01*
X119731610Y-104767713D01*
X119646855Y-104724528D01*
X119549223Y-104674781D01*
X119354534Y-104611522D01*
X119179995Y-104583878D01*
X119152352Y-104579500D01*
X118947648Y-104579500D01*
X118923329Y-104583351D01*
X118745465Y-104611522D01*
X118550776Y-104674781D01*
X118368386Y-104767715D01*
X118202786Y-104888028D01*
X118058028Y-105032786D01*
X117937713Y-105198388D01*
X117890203Y-105291630D01*
X117842228Y-105342426D01*
X117774407Y-105359220D01*
X117708272Y-105336682D01*
X117669234Y-105291628D01*
X117621861Y-105198652D01*
X117589474Y-105154077D01*
X117589474Y-105154076D01*
X116992962Y-105750589D01*
X116975925Y-105687007D01*
X116910099Y-105572993D01*
X116817007Y-105479901D01*
X116702993Y-105414075D01*
X116639408Y-105397037D01*
X117235922Y-104800524D01*
X117235921Y-104800523D01*
X117191359Y-104768147D01*
X117191350Y-104768141D01*
X117009031Y-104675244D01*
X116814417Y-104612009D01*
X116612317Y-104580000D01*
X116407683Y-104580000D01*
X116205582Y-104612009D01*
X116010968Y-104675244D01*
X115828644Y-104768143D01*
X115784077Y-104800523D01*
X115784077Y-104800524D01*
X116380591Y-105397037D01*
X116317007Y-105414075D01*
X116202993Y-105479901D01*
X116109901Y-105572993D01*
X116044075Y-105687007D01*
X116027037Y-105750590D01*
X115430524Y-105154077D01*
X115430523Y-105154077D01*
X115398143Y-105198644D01*
X115350765Y-105291630D01*
X115302790Y-105342426D01*
X115234969Y-105359221D01*
X115168834Y-105336683D01*
X115129795Y-105291630D01*
X115082284Y-105198385D01*
X114961971Y-105032786D01*
X114817213Y-104888028D01*
X114651613Y-104767715D01*
X114651612Y-104767714D01*
X114651610Y-104767713D01*
X114566855Y-104724528D01*
X114469223Y-104674781D01*
X114274534Y-104611522D01*
X114099995Y-104583878D01*
X114072352Y-104579500D01*
X113867648Y-104579500D01*
X113843329Y-104583351D01*
X113665465Y-104611522D01*
X113470776Y-104674781D01*
X113288386Y-104767715D01*
X113122786Y-104888028D01*
X112978028Y-105032786D01*
X112857715Y-105198386D01*
X112810485Y-105291080D01*
X112762510Y-105341876D01*
X112694689Y-105358671D01*
X112628554Y-105336134D01*
X112589515Y-105291080D01*
X112563599Y-105240218D01*
X112542287Y-105198390D01*
X112510092Y-105154077D01*
X112421971Y-105032786D01*
X112277213Y-104888028D01*
X112111613Y-104767715D01*
X112111612Y-104767714D01*
X112111610Y-104767713D01*
X112026855Y-104724528D01*
X111929223Y-104674781D01*
X111734534Y-104611522D01*
X111559995Y-104583878D01*
X111532352Y-104579500D01*
X111327648Y-104579500D01*
X111303329Y-104583351D01*
X111125465Y-104611522D01*
X110930776Y-104674781D01*
X110748386Y-104767715D01*
X110582786Y-104888028D01*
X110438032Y-105032782D01*
X110382610Y-105109064D01*
X110327279Y-105151729D01*
X110257666Y-105157708D01*
X110195871Y-105125102D01*
X110162143Y-105066840D01*
X110157024Y-105046783D01*
X110157022Y-105046774D01*
X110151226Y-105032782D01*
X110133669Y-104990394D01*
X110126574Y-104973265D01*
X110103219Y-104924449D01*
X110016994Y-104809267D01*
X110016989Y-104809262D01*
X110016984Y-104809256D01*
X109960747Y-104753019D01*
X109960731Y-104753005D01*
X109920475Y-104716843D01*
X109920467Y-104716837D01*
X109796736Y-104643426D01*
X109796737Y-104643426D01*
X109733293Y-104617148D01*
X109723226Y-104612978D01*
X109723212Y-104612973D01*
X109723204Y-104612970D01*
X109672199Y-104594976D01*
X109609162Y-104585913D01*
X109529782Y-104574500D01*
X108250218Y-104574500D01*
X108250216Y-104574500D01*
X108196185Y-104577395D01*
X108196181Y-104577396D01*
X108056778Y-104612976D01*
X108056766Y-104612980D01*
X107983280Y-104643419D01*
X107983252Y-104643431D01*
X107934451Y-104666779D01*
X107934446Y-104666782D01*
X107819268Y-104753005D01*
X107819256Y-104753015D01*
X107763019Y-104809252D01*
X107726843Y-104849524D01*
X107726837Y-104849532D01*
X107653426Y-104973263D01*
X107622978Y-105046774D01*
X107622974Y-105046783D01*
X107612971Y-105075137D01*
X107572102Y-105131807D01*
X107507083Y-105157386D01*
X107438557Y-105143752D01*
X107395717Y-105106764D01*
X107352134Y-105046777D01*
X107341966Y-105032781D01*
X107197219Y-104888034D01*
X107197213Y-104888028D01*
X107031613Y-104767715D01*
X107031612Y-104767714D01*
X107031610Y-104767713D01*
X106946855Y-104724528D01*
X106849223Y-104674781D01*
X106654534Y-104611522D01*
X106479995Y-104583878D01*
X106452352Y-104579500D01*
X106247648Y-104579500D01*
X106223329Y-104583351D01*
X106045465Y-104611522D01*
X105850776Y-104674781D01*
X105668386Y-104767715D01*
X105502786Y-104888028D01*
X105358032Y-105032782D01*
X105299344Y-105113560D01*
X105244014Y-105156225D01*
X105174400Y-105162204D01*
X105112606Y-105129598D01*
X105080641Y-105077566D01*
X105053478Y-104990394D01*
X104965472Y-104844815D01*
X104965470Y-104844813D01*
X104965469Y-104844811D01*
X104845188Y-104724530D01*
X104832472Y-104716843D01*
X104699606Y-104636522D01*
X104537196Y-104585914D01*
X104537194Y-104585913D01*
X104537192Y-104585913D01*
X104487778Y-104581423D01*
X104466616Y-104579500D01*
X103153384Y-104579500D01*
X103134145Y-104581248D01*
X103082807Y-104585913D01*
X102920393Y-104636522D01*
X102774811Y-104724530D01*
X102654530Y-104844811D01*
X102566522Y-104990393D01*
X102515913Y-105152807D01*
X102510782Y-105209275D01*
X102509500Y-105223384D01*
X102509500Y-106536616D01*
X102509788Y-106539783D01*
X102515913Y-106607192D01*
X102515913Y-106607194D01*
X102515914Y-106607196D01*
X102566522Y-106769606D01*
X102620465Y-106858839D01*
X102654530Y-106915188D01*
X102774811Y-107035469D01*
X102774813Y-107035470D01*
X102774815Y-107035472D01*
X102920394Y-107123478D01*
X103082804Y-107174086D01*
X103153384Y-107180500D01*
X103153387Y-107180500D01*
X104466613Y-107180500D01*
X104466616Y-107180500D01*
X104537196Y-107174086D01*
X104699606Y-107123478D01*
X104845185Y-107035472D01*
X104965472Y-106915185D01*
X105053478Y-106769606D01*
X105080641Y-106682433D01*
X105119377Y-106624288D01*
X105183402Y-106596313D01*
X105252388Y-106607394D01*
X105299344Y-106646440D01*
X105358028Y-106727212D01*
X105358032Y-106727217D01*
X105502786Y-106871971D01*
X105623226Y-106959474D01*
X105668390Y-106992287D01*
X105784607Y-107051503D01*
X105850776Y-107085218D01*
X105850778Y-107085218D01*
X105850781Y-107085220D01*
X105946365Y-107116277D01*
X106045465Y-107148477D01*
X106146557Y-107164488D01*
X106247648Y-107180500D01*
X106247649Y-107180500D01*
X106452351Y-107180500D01*
X106452352Y-107180500D01*
X106654534Y-107148477D01*
X106849219Y-107085220D01*
X107031610Y-106992287D01*
X107137733Y-106915185D01*
X107197213Y-106871971D01*
X107197215Y-106871968D01*
X107197219Y-106871966D01*
X107341966Y-106727219D01*
X107341968Y-106727215D01*
X107341971Y-106727213D01*
X107462286Y-106561611D01*
X107462415Y-106561359D01*
X107505782Y-106476245D01*
X107553756Y-106425449D01*
X107621577Y-106408654D01*
X107687712Y-106431191D01*
X107725625Y-106474086D01*
X107760739Y-106539779D01*
X107760751Y-106539799D01*
X107848278Y-106670793D01*
X107848286Y-106670804D01*
X107848291Y-106670811D01*
X107911157Y-106747412D01*
X108022588Y-106858843D01*
X108099189Y-106921709D01*
X108099198Y-106921715D01*
X108099206Y-106921721D01*
X108230200Y-107009248D01*
X108230205Y-107009251D01*
X108230217Y-107009259D01*
X108230226Y-107009263D01*
X108230228Y-107009265D01*
X108317603Y-107055968D01*
X108317605Y-107055968D01*
X108317611Y-107055972D01*
X108463202Y-107116278D01*
X108558032Y-107145044D01*
X108712590Y-107175787D01*
X108811207Y-107185500D01*
X108811209Y-107185500D01*
X108968791Y-107185500D01*
X108968793Y-107185500D01*
X109067410Y-107175787D01*
X109221968Y-107145044D01*
X109316798Y-107116278D01*
X109462389Y-107055972D01*
X109549783Y-107009259D01*
X109680811Y-106921709D01*
X109757412Y-106858843D01*
X109868843Y-106747412D01*
X109931709Y-106670811D01*
X110019259Y-106539783D01*
X110054375Y-106474084D01*
X110103336Y-106424243D01*
X110171473Y-106408782D01*
X110237153Y-106432613D01*
X110274217Y-106476245D01*
X110317585Y-106561359D01*
X110317715Y-106561613D01*
X110438028Y-106727213D01*
X110582786Y-106871971D01*
X110703226Y-106959474D01*
X110748390Y-106992287D01*
X110864607Y-107051503D01*
X110930776Y-107085218D01*
X110930778Y-107085218D01*
X110930781Y-107085220D01*
X111026365Y-107116277D01*
X111125465Y-107148477D01*
X111226557Y-107164488D01*
X111327648Y-107180500D01*
X111327649Y-107180500D01*
X111532351Y-107180500D01*
X111532352Y-107180500D01*
X111734534Y-107148477D01*
X111929219Y-107085220D01*
X112111610Y-106992287D01*
X112217733Y-106915185D01*
X112277213Y-106871971D01*
X112277215Y-106871968D01*
X112277219Y-106871966D01*
X112421966Y-106727219D01*
X112421968Y-106727215D01*
X112421971Y-106727213D01*
X112542284Y-106561614D01*
X112542286Y-106561611D01*
X112542287Y-106561610D01*
X112589516Y-106468917D01*
X112637489Y-106418123D01*
X112705310Y-106401328D01*
X112771445Y-106423865D01*
X112810483Y-106468917D01*
X112814218Y-106476246D01*
X112857715Y-106561614D01*
X112978028Y-106727213D01*
X113122786Y-106871971D01*
X113243226Y-106959474D01*
X113288390Y-106992287D01*
X113404607Y-107051503D01*
X113470776Y-107085218D01*
X113470778Y-107085218D01*
X113470781Y-107085220D01*
X113566365Y-107116277D01*
X113665465Y-107148477D01*
X113766557Y-107164488D01*
X113867648Y-107180500D01*
X113867649Y-107180500D01*
X114072351Y-107180500D01*
X114072352Y-107180500D01*
X114274534Y-107148477D01*
X114469219Y-107085220D01*
X114651610Y-106992287D01*
X114757733Y-106915185D01*
X114817213Y-106871971D01*
X114817215Y-106871968D01*
X114817219Y-106871966D01*
X114961966Y-106727219D01*
X114961968Y-106727215D01*
X114961971Y-106727213D01*
X115082286Y-106561611D01*
X115082415Y-106561359D01*
X115129795Y-106468369D01*
X115177769Y-106417573D01*
X115245590Y-106400778D01*
X115311725Y-106423315D01*
X115350765Y-106468369D01*
X115398141Y-106561350D01*
X115398147Y-106561359D01*
X115430523Y-106605921D01*
X115430524Y-106605922D01*
X116027037Y-106009409D01*
X116044075Y-106072993D01*
X116109901Y-106187007D01*
X116202993Y-106280099D01*
X116317007Y-106345925D01*
X116380590Y-106362962D01*
X115784076Y-106959474D01*
X115828650Y-106991859D01*
X116010968Y-107084755D01*
X116205582Y-107147990D01*
X116407683Y-107180000D01*
X116612317Y-107180000D01*
X116814417Y-107147990D01*
X117009031Y-107084755D01*
X117191349Y-106991859D01*
X117235921Y-106959474D01*
X116639409Y-106362962D01*
X116702993Y-106345925D01*
X116817007Y-106280099D01*
X116910099Y-106187007D01*
X116975925Y-106072993D01*
X116992962Y-106009409D01*
X117589474Y-106605921D01*
X117621861Y-106561347D01*
X117621861Y-106561346D01*
X117669234Y-106468371D01*
X117717208Y-106417575D01*
X117785028Y-106400779D01*
X117851164Y-106423316D01*
X117890203Y-106468369D01*
X117937713Y-106561611D01*
X118058028Y-106727213D01*
X118202786Y-106871971D01*
X118323226Y-106959474D01*
X118368390Y-106992287D01*
X118484607Y-107051503D01*
X118550776Y-107085218D01*
X118550778Y-107085218D01*
X118550781Y-107085220D01*
X118646365Y-107116277D01*
X118745465Y-107148477D01*
X118846557Y-107164488D01*
X118947648Y-107180500D01*
X118947649Y-107180500D01*
X119152351Y-107180500D01*
X119152352Y-107180500D01*
X119354534Y-107148477D01*
X119549219Y-107085220D01*
X119731610Y-106992287D01*
X119837733Y-106915185D01*
X119897213Y-106871971D01*
X119897215Y-106871968D01*
X119897219Y-106871966D01*
X120041966Y-106727219D01*
X120041968Y-106727215D01*
X120041971Y-106727213D01*
X120162286Y-106561611D01*
X120162415Y-106561359D01*
X120205782Y-106476245D01*
X120253756Y-106425449D01*
X120321577Y-106408654D01*
X120387712Y-106431191D01*
X120425625Y-106474086D01*
X120460739Y-106539779D01*
X120460751Y-106539799D01*
X120548278Y-106670793D01*
X120548286Y-106670804D01*
X120548291Y-106670811D01*
X120611157Y-106747412D01*
X120722588Y-106858843D01*
X120799189Y-106921709D01*
X120799198Y-106921715D01*
X120799206Y-106921721D01*
X120930200Y-107009248D01*
X120930205Y-107009251D01*
X120930217Y-107009259D01*
X120930226Y-107009263D01*
X120930228Y-107009265D01*
X121017603Y-107055968D01*
X121017605Y-107055968D01*
X121017611Y-107055972D01*
X121163202Y-107116278D01*
X121258032Y-107145044D01*
X121412590Y-107175787D01*
X121511207Y-107185500D01*
X121511209Y-107185500D01*
X121668791Y-107185500D01*
X121668793Y-107185500D01*
X121767410Y-107175787D01*
X121921968Y-107145044D01*
X122016798Y-107116278D01*
X122162389Y-107055972D01*
X122249783Y-107009259D01*
X122380811Y-106921709D01*
X122457412Y-106858843D01*
X122568843Y-106747412D01*
X122631709Y-106670811D01*
X122719259Y-106539783D01*
X122754375Y-106474084D01*
X122803336Y-106424243D01*
X122871473Y-106408782D01*
X122937153Y-106432613D01*
X122974217Y-106476245D01*
X123017585Y-106561359D01*
X123017715Y-106561613D01*
X123138028Y-106727213D01*
X123282786Y-106871971D01*
X123403226Y-106959474D01*
X123448390Y-106992287D01*
X123564607Y-107051503D01*
X123630776Y-107085218D01*
X123630778Y-107085218D01*
X123630781Y-107085220D01*
X123726365Y-107116277D01*
X123825465Y-107148477D01*
X123926557Y-107164488D01*
X124027648Y-107180500D01*
X124027649Y-107180500D01*
X124232351Y-107180500D01*
X124232352Y-107180500D01*
X124434534Y-107148477D01*
X124629219Y-107085220D01*
X124811610Y-106992287D01*
X124917733Y-106915185D01*
X124977213Y-106871971D01*
X124977215Y-106871968D01*
X124977219Y-106871966D01*
X125121966Y-106727219D01*
X125121968Y-106727215D01*
X125121971Y-106727213D01*
X125242284Y-106561614D01*
X125242286Y-106561611D01*
X125242287Y-106561610D01*
X125289516Y-106468917D01*
X125337489Y-106418123D01*
X125405310Y-106401328D01*
X125471445Y-106423865D01*
X125510483Y-106468917D01*
X125514218Y-106476246D01*
X125557715Y-106561614D01*
X125678028Y-106727213D01*
X125822786Y-106871971D01*
X125943226Y-106959474D01*
X125988390Y-106992287D01*
X126104607Y-107051503D01*
X126170776Y-107085218D01*
X126170778Y-107085218D01*
X126170781Y-107085220D01*
X126266365Y-107116277D01*
X126365465Y-107148477D01*
X126466557Y-107164488D01*
X126567648Y-107180500D01*
X126567649Y-107180500D01*
X126772351Y-107180500D01*
X126772352Y-107180500D01*
X126974534Y-107148477D01*
X127169219Y-107085220D01*
X127351610Y-106992287D01*
X127457733Y-106915185D01*
X127517213Y-106871971D01*
X127517215Y-106871968D01*
X127517219Y-106871966D01*
X127661966Y-106727219D01*
X127661968Y-106727215D01*
X127661971Y-106727213D01*
X127782284Y-106561614D01*
X127782286Y-106561611D01*
X127782287Y-106561610D01*
X127829516Y-106468917D01*
X127877489Y-106418123D01*
X127945310Y-106401328D01*
X128011445Y-106423865D01*
X128050483Y-106468917D01*
X128054218Y-106476246D01*
X128097715Y-106561614D01*
X128218028Y-106727213D01*
X128362786Y-106871971D01*
X128483226Y-106959474D01*
X128528390Y-106992287D01*
X128644607Y-107051503D01*
X128710776Y-107085218D01*
X128710778Y-107085218D01*
X128710781Y-107085220D01*
X128806365Y-107116277D01*
X128905465Y-107148477D01*
X129006557Y-107164488D01*
X129107648Y-107180500D01*
X129107649Y-107180500D01*
X129312351Y-107180500D01*
X129312352Y-107180500D01*
X129514534Y-107148477D01*
X129709219Y-107085220D01*
X129891610Y-106992287D01*
X129997733Y-106915185D01*
X130057213Y-106871971D01*
X130057215Y-106871968D01*
X130057219Y-106871966D01*
X130201966Y-106727219D01*
X130201968Y-106727215D01*
X130201971Y-106727213D01*
X130322284Y-106561614D01*
X130322286Y-106561611D01*
X130322287Y-106561610D01*
X130369516Y-106468917D01*
X130417489Y-106418123D01*
X130485310Y-106401328D01*
X130551445Y-106423865D01*
X130590483Y-106468917D01*
X130594218Y-106476246D01*
X130637715Y-106561614D01*
X130758028Y-106727213D01*
X130902786Y-106871971D01*
X131023226Y-106959474D01*
X131068390Y-106992287D01*
X131184607Y-107051503D01*
X131250776Y-107085218D01*
X131250778Y-107085218D01*
X131250781Y-107085220D01*
X131346365Y-107116277D01*
X131445465Y-107148477D01*
X131546557Y-107164488D01*
X131647648Y-107180500D01*
X131647649Y-107180500D01*
X131852351Y-107180500D01*
X131852352Y-107180500D01*
X132054534Y-107148477D01*
X132249219Y-107085220D01*
X132431610Y-106992287D01*
X132537733Y-106915185D01*
X132597213Y-106871971D01*
X132597215Y-106871968D01*
X132597219Y-106871966D01*
X132741966Y-106727219D01*
X132741968Y-106727215D01*
X132741971Y-106727213D01*
X132862286Y-106561611D01*
X132862415Y-106561359D01*
X132905782Y-106476245D01*
X132953756Y-106425449D01*
X133021577Y-106408654D01*
X133087712Y-106431191D01*
X133125625Y-106474086D01*
X133160739Y-106539779D01*
X133160751Y-106539799D01*
X133248278Y-106670793D01*
X133248286Y-106670804D01*
X133248291Y-106670811D01*
X133311157Y-106747412D01*
X133422588Y-106858843D01*
X133499189Y-106921709D01*
X133499198Y-106921715D01*
X133499206Y-106921721D01*
X133630200Y-107009248D01*
X133630205Y-107009251D01*
X133630217Y-107009259D01*
X133630226Y-107009263D01*
X133630228Y-107009265D01*
X133717603Y-107055968D01*
X133717605Y-107055968D01*
X133717611Y-107055972D01*
X133863202Y-107116278D01*
X133958032Y-107145044D01*
X134112590Y-107175787D01*
X134211207Y-107185500D01*
X134211209Y-107185500D01*
X134368791Y-107185500D01*
X134368793Y-107185500D01*
X134467410Y-107175787D01*
X134621968Y-107145044D01*
X134716798Y-107116278D01*
X134862389Y-107055972D01*
X134949783Y-107009259D01*
X135080811Y-106921709D01*
X135157412Y-106858843D01*
X135268843Y-106747412D01*
X135331709Y-106670811D01*
X135419259Y-106539783D01*
X135454375Y-106474084D01*
X135503336Y-106424243D01*
X135571473Y-106408782D01*
X135637153Y-106432613D01*
X135674217Y-106476245D01*
X135717585Y-106561359D01*
X135717715Y-106561613D01*
X135838028Y-106727213D01*
X135982786Y-106871971D01*
X136103226Y-106959474D01*
X136148390Y-106992287D01*
X136264607Y-107051503D01*
X136330776Y-107085218D01*
X136330778Y-107085218D01*
X136330781Y-107085220D01*
X136426365Y-107116277D01*
X136525465Y-107148477D01*
X136626557Y-107164488D01*
X136727648Y-107180500D01*
X136727649Y-107180500D01*
X136932351Y-107180500D01*
X136932352Y-107180500D01*
X137134534Y-107148477D01*
X137329219Y-107085220D01*
X137511610Y-106992287D01*
X137617733Y-106915185D01*
X137677213Y-106871971D01*
X137677215Y-106871968D01*
X137677219Y-106871966D01*
X137821966Y-106727219D01*
X137821968Y-106727215D01*
X137821971Y-106727213D01*
X137942286Y-106561611D01*
X137942415Y-106561359D01*
X137989795Y-106468369D01*
X138037769Y-106417573D01*
X138105590Y-106400778D01*
X138171725Y-106423315D01*
X138210765Y-106468369D01*
X138258141Y-106561350D01*
X138258147Y-106561359D01*
X138290523Y-106605921D01*
X138290524Y-106605922D01*
X138887037Y-106009409D01*
X138904075Y-106072993D01*
X138969901Y-106187007D01*
X139062993Y-106280099D01*
X139177007Y-106345925D01*
X139240590Y-106362962D01*
X138644076Y-106959474D01*
X138688650Y-106991859D01*
X138870968Y-107084755D01*
X139065582Y-107147990D01*
X139267683Y-107180000D01*
X139472317Y-107180000D01*
X139674417Y-107147990D01*
X139869031Y-107084755D01*
X140051349Y-106991859D01*
X140095921Y-106959474D01*
X139499409Y-106362962D01*
X139562993Y-106345925D01*
X139677007Y-106280099D01*
X139770099Y-106187007D01*
X139835925Y-106072993D01*
X139852962Y-106009409D01*
X140449474Y-106605921D01*
X140481861Y-106561347D01*
X140481861Y-106561346D01*
X140529234Y-106468371D01*
X140577208Y-106417575D01*
X140645028Y-106400779D01*
X140711164Y-106423316D01*
X140750203Y-106468369D01*
X140797713Y-106561611D01*
X140918028Y-106727213D01*
X141062786Y-106871971D01*
X141183226Y-106959474D01*
X141228390Y-106992287D01*
X141344607Y-107051503D01*
X141410776Y-107085218D01*
X141410778Y-107085218D01*
X141410781Y-107085220D01*
X141506365Y-107116277D01*
X141605465Y-107148477D01*
X141706557Y-107164488D01*
X141807648Y-107180500D01*
X141807649Y-107180500D01*
X142012351Y-107180500D01*
X142012352Y-107180500D01*
X142214534Y-107148477D01*
X142409219Y-107085220D01*
X142591610Y-106992287D01*
X142697733Y-106915185D01*
X142757213Y-106871971D01*
X142757215Y-106871968D01*
X142757219Y-106871966D01*
X142901966Y-106727219D01*
X142901968Y-106727215D01*
X142901971Y-106727213D01*
X143022284Y-106561614D01*
X143022286Y-106561611D01*
X143022287Y-106561610D01*
X143069516Y-106468917D01*
X143117489Y-106418123D01*
X143185310Y-106401328D01*
X143251445Y-106423865D01*
X143290483Y-106468917D01*
X143294218Y-106476246D01*
X143337715Y-106561614D01*
X143458028Y-106727213D01*
X143602786Y-106871971D01*
X143723226Y-106959474D01*
X143768390Y-106992287D01*
X143884607Y-107051503D01*
X143950776Y-107085218D01*
X143950778Y-107085218D01*
X143950781Y-107085220D01*
X144046365Y-107116277D01*
X144145465Y-107148477D01*
X144246557Y-107164488D01*
X144347648Y-107180500D01*
X144347649Y-107180500D01*
X144552351Y-107180500D01*
X144552352Y-107180500D01*
X144754534Y-107148477D01*
X144949219Y-107085220D01*
X145131610Y-106992287D01*
X145237733Y-106915185D01*
X145297213Y-106871971D01*
X145297215Y-106871968D01*
X145297219Y-106871966D01*
X145441966Y-106727219D01*
X145441968Y-106727215D01*
X145441971Y-106727213D01*
X145562286Y-106561611D01*
X145562415Y-106561359D01*
X145605782Y-106476245D01*
X145653756Y-106425449D01*
X145721577Y-106408654D01*
X145787712Y-106431191D01*
X145825625Y-106474086D01*
X145860739Y-106539779D01*
X145860751Y-106539799D01*
X145948278Y-106670793D01*
X145948286Y-106670804D01*
X145948291Y-106670811D01*
X146011157Y-106747412D01*
X146122588Y-106858843D01*
X146199189Y-106921709D01*
X146199198Y-106921715D01*
X146199206Y-106921721D01*
X146330200Y-107009248D01*
X146330205Y-107009251D01*
X146330217Y-107009259D01*
X146330226Y-107009263D01*
X146330228Y-107009265D01*
X146417603Y-107055968D01*
X146417605Y-107055968D01*
X146417611Y-107055972D01*
X146563202Y-107116278D01*
X146658032Y-107145044D01*
X146812590Y-107175787D01*
X146911207Y-107185500D01*
X146911209Y-107185500D01*
X147068791Y-107185500D01*
X147068793Y-107185500D01*
X147167410Y-107175787D01*
X147321968Y-107145044D01*
X147416798Y-107116278D01*
X147562389Y-107055972D01*
X147649783Y-107009259D01*
X147780811Y-106921709D01*
X147857412Y-106858843D01*
X147968843Y-106747412D01*
X148031709Y-106670811D01*
X148119259Y-106539783D01*
X148154375Y-106474084D01*
X148203336Y-106424243D01*
X148271473Y-106408782D01*
X148337153Y-106432613D01*
X148374217Y-106476245D01*
X148417585Y-106561359D01*
X148417715Y-106561613D01*
X148538028Y-106727213D01*
X148682786Y-106871971D01*
X148803226Y-106959474D01*
X148848390Y-106992287D01*
X148964607Y-107051503D01*
X149030776Y-107085218D01*
X149030778Y-107085218D01*
X149030781Y-107085220D01*
X149126365Y-107116277D01*
X149225465Y-107148477D01*
X149326557Y-107164488D01*
X149427648Y-107180500D01*
X149427649Y-107180500D01*
X149632351Y-107180500D01*
X149632352Y-107180500D01*
X149834534Y-107148477D01*
X150029219Y-107085220D01*
X150211610Y-106992287D01*
X150317733Y-106915185D01*
X150377213Y-106871971D01*
X150377215Y-106871968D01*
X150377219Y-106871966D01*
X150521966Y-106727219D01*
X150521968Y-106727215D01*
X150521971Y-106727213D01*
X150642284Y-106561614D01*
X150642286Y-106561611D01*
X150642287Y-106561610D01*
X150689516Y-106468917D01*
X150737489Y-106418123D01*
X150805310Y-106401328D01*
X150871445Y-106423865D01*
X150910483Y-106468917D01*
X150914218Y-106476246D01*
X150957715Y-106561614D01*
X151078028Y-106727213D01*
X151222786Y-106871971D01*
X151343226Y-106959474D01*
X151388390Y-106992287D01*
X151504607Y-107051503D01*
X151570776Y-107085218D01*
X151570778Y-107085218D01*
X151570781Y-107085220D01*
X151666365Y-107116277D01*
X151765465Y-107148477D01*
X151866557Y-107164488D01*
X151967648Y-107180500D01*
X151967649Y-107180500D01*
X152172351Y-107180500D01*
X152172352Y-107180500D01*
X152374534Y-107148477D01*
X152569219Y-107085220D01*
X152751610Y-106992287D01*
X152857733Y-106915185D01*
X152917213Y-106871971D01*
X152917215Y-106871968D01*
X152917219Y-106871966D01*
X153061966Y-106727219D01*
X153061968Y-106727215D01*
X153061971Y-106727213D01*
X153149170Y-106607192D01*
X153182287Y-106561610D01*
X153275220Y-106379219D01*
X153338477Y-106184534D01*
X153370500Y-105982352D01*
X153370500Y-105777648D01*
X153338477Y-105575466D01*
X153337673Y-105572993D01*
X153275218Y-105380776D01*
X153203599Y-105240218D01*
X153182287Y-105198390D01*
X153150092Y-105154077D01*
X153061971Y-105032786D01*
X152917213Y-104888028D01*
X152751613Y-104767715D01*
X152751612Y-104767714D01*
X152751610Y-104767713D01*
X152666855Y-104724528D01*
X152569223Y-104674781D01*
X152374534Y-104611522D01*
X152199995Y-104583878D01*
X152172352Y-104579500D01*
X152085162Y-104579500D01*
X152018123Y-104559815D01*
X151972368Y-104507011D01*
X151962424Y-104437853D01*
X151991449Y-104374297D01*
X151997481Y-104367819D01*
X156404692Y-99960609D01*
X156404692Y-99960608D01*
X156404695Y-99960606D01*
X156478620Y-99849969D01*
X156529540Y-99727036D01*
X156555500Y-99596531D01*
X156555500Y-99463469D01*
X156555500Y-89303469D01*
X156555500Y-79143469D01*
X156555500Y-76768543D01*
X166309499Y-76768543D01*
X166347947Y-76961829D01*
X166347950Y-76961839D01*
X166423364Y-77143907D01*
X166423369Y-77143916D01*
X166438601Y-77166711D01*
X166459480Y-77233388D01*
X166459500Y-77235604D01*
X166459500Y-84994395D01*
X166439815Y-85061434D01*
X166438603Y-85063285D01*
X166423370Y-85086082D01*
X166423364Y-85086093D01*
X166347950Y-85268160D01*
X166347947Y-85268170D01*
X166309500Y-85461456D01*
X166309500Y-85461459D01*
X166309500Y-85658541D01*
X166309500Y-85658543D01*
X166309499Y-85658543D01*
X166347947Y-85851829D01*
X166347950Y-85851839D01*
X166423364Y-86033907D01*
X166423371Y-86033920D01*
X166532860Y-86197781D01*
X166532863Y-86197785D01*
X166672214Y-86337136D01*
X166672218Y-86337139D01*
X166836079Y-86446628D01*
X166836092Y-86446635D01*
X167018160Y-86522049D01*
X167018165Y-86522051D01*
X167018169Y-86522051D01*
X167018170Y-86522052D01*
X167211456Y-86560500D01*
X167211459Y-86560500D01*
X167408543Y-86560500D01*
X167538582Y-86534632D01*
X167601835Y-86522051D01*
X167783914Y-86446632D01*
X167947782Y-86337139D01*
X168087139Y-86197782D01*
X168196632Y-86033914D01*
X168272051Y-85851835D01*
X168310500Y-85658541D01*
X168310500Y-85461459D01*
X168310500Y-85461456D01*
X168272052Y-85268170D01*
X168272051Y-85268169D01*
X168272051Y-85268165D01*
X168196632Y-85086086D01*
X168181396Y-85063284D01*
X168160520Y-84996607D01*
X168160500Y-84994395D01*
X168160500Y-77235604D01*
X168180185Y-77168565D01*
X168181399Y-77166711D01*
X168196632Y-77143914D01*
X168272051Y-76961835D01*
X168310500Y-76768541D01*
X168310500Y-76571459D01*
X168310500Y-76571456D01*
X168272052Y-76378170D01*
X168272051Y-76378169D01*
X168272051Y-76378165D01*
X168227325Y-76270185D01*
X168196635Y-76196092D01*
X168196628Y-76196079D01*
X168087139Y-76032218D01*
X168087136Y-76032214D01*
X167947785Y-75892863D01*
X167947781Y-75892860D01*
X167783920Y-75783371D01*
X167783907Y-75783364D01*
X167601839Y-75707950D01*
X167601829Y-75707947D01*
X167408543Y-75669500D01*
X167408541Y-75669500D01*
X167211459Y-75669500D01*
X167211457Y-75669500D01*
X167018170Y-75707947D01*
X167018160Y-75707950D01*
X166836092Y-75783364D01*
X166836079Y-75783371D01*
X166672218Y-75892860D01*
X166672214Y-75892863D01*
X166532863Y-76032214D01*
X166532860Y-76032218D01*
X166423371Y-76196079D01*
X166423364Y-76196092D01*
X166347950Y-76378160D01*
X166347947Y-76378170D01*
X166309500Y-76571456D01*
X166309500Y-76571459D01*
X166309500Y-76768541D01*
X166309500Y-76768543D01*
X166309499Y-76768543D01*
X156555500Y-76768543D01*
X156555500Y-75731163D01*
X156575185Y-75664124D01*
X156591819Y-75643482D01*
X157393482Y-74841819D01*
X157454805Y-74808334D01*
X157481163Y-74805500D01*
X160169217Y-74805500D01*
X160236256Y-74825185D01*
X160256893Y-74841814D01*
X160298144Y-74883065D01*
X160322219Y-74907140D01*
X160486079Y-75016628D01*
X160486092Y-75016635D01*
X160639129Y-75080024D01*
X160668165Y-75092051D01*
X160668169Y-75092051D01*
X160668170Y-75092052D01*
X160861456Y-75130500D01*
X160861459Y-75130500D01*
X161058543Y-75130500D01*
X161188582Y-75104632D01*
X161251835Y-75092051D01*
X161433914Y-75016632D01*
X161597782Y-74907139D01*
X161737139Y-74767782D01*
X161846632Y-74603914D01*
X161922051Y-74421835D01*
X161960500Y-74228541D01*
X161960500Y-74031459D01*
X161960500Y-74031456D01*
X161922052Y-73838170D01*
X161922051Y-73838169D01*
X161922051Y-73838165D01*
X161915377Y-73822052D01*
X161867702Y-73706952D01*
X161860233Y-73637483D01*
X161891509Y-73575004D01*
X161951598Y-73539352D01*
X161982263Y-73535500D01*
X165249217Y-73535500D01*
X165316256Y-73555185D01*
X165336893Y-73571814D01*
X165370384Y-73605305D01*
X165402219Y-73637140D01*
X165566079Y-73746628D01*
X165566092Y-73746635D01*
X165748160Y-73822049D01*
X165748165Y-73822051D01*
X165748169Y-73822051D01*
X165748170Y-73822052D01*
X165941456Y-73860500D01*
X165941459Y-73860500D01*
X166138543Y-73860500D01*
X166268582Y-73834632D01*
X166331835Y-73822051D01*
X166513914Y-73746632D01*
X166677782Y-73637139D01*
X166817139Y-73497782D01*
X166926632Y-73333914D01*
X167002051Y-73151835D01*
X167018601Y-73068632D01*
X167040500Y-72958543D01*
X167040500Y-72761456D01*
X167002052Y-72568170D01*
X167002051Y-72568169D01*
X167002051Y-72568165D01*
X166994897Y-72550893D01*
X166926635Y-72386092D01*
X166926628Y-72386079D01*
X166817139Y-72222218D01*
X166817136Y-72222214D01*
X166677785Y-72082863D01*
X166677781Y-72082860D01*
X166513920Y-71973371D01*
X166513907Y-71973364D01*
X166331839Y-71897950D01*
X166331829Y-71897947D01*
X166138543Y-71859500D01*
X166138541Y-71859500D01*
X165941459Y-71859500D01*
X165941457Y-71859500D01*
X165748170Y-71897947D01*
X165748160Y-71897950D01*
X165566092Y-71973364D01*
X165566079Y-71973371D01*
X165402219Y-72082859D01*
X165373068Y-72112011D01*
X165336896Y-72148182D01*
X165275576Y-72181666D01*
X165249217Y-72184500D01*
X164522263Y-72184500D01*
X164455224Y-72164815D01*
X164409469Y-72112011D01*
X164399525Y-72042853D01*
X164407702Y-72013048D01*
X164462049Y-71881839D01*
X164462051Y-71881835D01*
X164500500Y-71688541D01*
X164500500Y-71491459D01*
X164500500Y-71491456D01*
X164462052Y-71298170D01*
X164462051Y-71298169D01*
X164462051Y-71298165D01*
X164455377Y-71282052D01*
X164407702Y-71166952D01*
X164400233Y-71097483D01*
X164431509Y-71035004D01*
X164491598Y-70999352D01*
X164522263Y-70995500D01*
X167789217Y-70995500D01*
X167856256Y-71015185D01*
X167876893Y-71031814D01*
X167910384Y-71065305D01*
X167942219Y-71097140D01*
X168106079Y-71206628D01*
X168106092Y-71206635D01*
X168288160Y-71282049D01*
X168288165Y-71282051D01*
X168288169Y-71282051D01*
X168288170Y-71282052D01*
X168481456Y-71320500D01*
X168481459Y-71320500D01*
X168678543Y-71320500D01*
X168808582Y-71294632D01*
X168871835Y-71282051D01*
X169053914Y-71206632D01*
X169217782Y-71097139D01*
X169357139Y-70957782D01*
X169466632Y-70793914D01*
X169542051Y-70611835D01*
X169580500Y-70418541D01*
X169580500Y-70221459D01*
X169580500Y-70221456D01*
X169542052Y-70028170D01*
X169542051Y-70028169D01*
X169542051Y-70028165D01*
X169535377Y-70012052D01*
X169487702Y-69896952D01*
X169480233Y-69827483D01*
X169511509Y-69765004D01*
X169571598Y-69729352D01*
X169602263Y-69725500D01*
X170329217Y-69725500D01*
X170396256Y-69745185D01*
X170416893Y-69761814D01*
X170450384Y-69795305D01*
X170482219Y-69827140D01*
X170646079Y-69936628D01*
X170646092Y-69936635D01*
X170774931Y-69990001D01*
X170828165Y-70012051D01*
X170828169Y-70012051D01*
X170828170Y-70012052D01*
X171021456Y-70050500D01*
X171021459Y-70050500D01*
X171218543Y-70050500D01*
X171348582Y-70024632D01*
X171411835Y-70012051D01*
X171593914Y-69936632D01*
X171757782Y-69827139D01*
X171897139Y-69687782D01*
X172006632Y-69523914D01*
X172082051Y-69341835D01*
X172120500Y-69148541D01*
X172120500Y-68951459D01*
X172120500Y-68951456D01*
X172082052Y-68758170D01*
X172082051Y-68758169D01*
X172082051Y-68758165D01*
X172075377Y-68742052D01*
X172027702Y-68626952D01*
X172020233Y-68557483D01*
X172051509Y-68495004D01*
X172111598Y-68459352D01*
X172142263Y-68455500D01*
X172869217Y-68455500D01*
X172936256Y-68475185D01*
X172956893Y-68491814D01*
X172990384Y-68525305D01*
X173022219Y-68557140D01*
X173186079Y-68666628D01*
X173186092Y-68666635D01*
X173368160Y-68742049D01*
X173368165Y-68742051D01*
X173368169Y-68742051D01*
X173368170Y-68742052D01*
X173561456Y-68780500D01*
X173561459Y-68780500D01*
X173758543Y-68780500D01*
X173888582Y-68754632D01*
X173951835Y-68742051D01*
X174133914Y-68666632D01*
X174297782Y-68557139D01*
X174437139Y-68417782D01*
X174546632Y-68253914D01*
X174622051Y-68071835D01*
X174660500Y-67878541D01*
X174660500Y-67681459D01*
X174660500Y-67681456D01*
X174622052Y-67488170D01*
X174622051Y-67488169D01*
X174622051Y-67488165D01*
X174615377Y-67472052D01*
X174567702Y-67356952D01*
X174560233Y-67287483D01*
X174591509Y-67225004D01*
X174651598Y-67189352D01*
X174682263Y-67185500D01*
X175409217Y-67185500D01*
X175476256Y-67205185D01*
X175496893Y-67221814D01*
X175530384Y-67255305D01*
X175562219Y-67287140D01*
X175726079Y-67396628D01*
X175726092Y-67396635D01*
X175878878Y-67459920D01*
X175908165Y-67472051D01*
X175908169Y-67472051D01*
X175908170Y-67472052D01*
X176101456Y-67510500D01*
X176101459Y-67510500D01*
X176298543Y-67510500D01*
X176428582Y-67484632D01*
X176491835Y-67472051D01*
X176673914Y-67396632D01*
X176837782Y-67287139D01*
X176977139Y-67147782D01*
X177086632Y-66983914D01*
X177162051Y-66801835D01*
X177182203Y-66700524D01*
X177200500Y-66608543D01*
X177200500Y-66411456D01*
X177162052Y-66218170D01*
X177162051Y-66218169D01*
X177162051Y-66218165D01*
X177155377Y-66202052D01*
X177107702Y-66086952D01*
X177100233Y-66017483D01*
X177131509Y-65955004D01*
X177191598Y-65919352D01*
X177222263Y-65915500D01*
X177949217Y-65915500D01*
X178016256Y-65935185D01*
X178036893Y-65951814D01*
X178070384Y-65985305D01*
X178102219Y-66017140D01*
X178266079Y-66126628D01*
X178266092Y-66126635D01*
X178448160Y-66202049D01*
X178448165Y-66202051D01*
X178448169Y-66202051D01*
X178448170Y-66202052D01*
X178641456Y-66240500D01*
X178641459Y-66240500D01*
X178838543Y-66240500D01*
X178968582Y-66214632D01*
X179031835Y-66202051D01*
X179213914Y-66126632D01*
X179377782Y-66017139D01*
X179517139Y-65877782D01*
X179626632Y-65713914D01*
X179702051Y-65531835D01*
X179740500Y-65338541D01*
X179740500Y-65141459D01*
X179740500Y-65141456D01*
X179702052Y-64948170D01*
X179702051Y-64948169D01*
X179702051Y-64948165D01*
X179702049Y-64948160D01*
X179626635Y-64766092D01*
X179626628Y-64766079D01*
X179517139Y-64602218D01*
X179517136Y-64602214D01*
X179377785Y-64462863D01*
X179377781Y-64462860D01*
X179213920Y-64353371D01*
X179213907Y-64353364D01*
X179031839Y-64277950D01*
X179031829Y-64277947D01*
X178838543Y-64239500D01*
X178838541Y-64239500D01*
X178641459Y-64239500D01*
X178641457Y-64239500D01*
X178448170Y-64277947D01*
X178448160Y-64277950D01*
X178266092Y-64353364D01*
X178266079Y-64353371D01*
X178102219Y-64462859D01*
X178069559Y-64495520D01*
X178036896Y-64528182D01*
X177975576Y-64561666D01*
X177949217Y-64564500D01*
X146923464Y-64564500D01*
X146792971Y-64590457D01*
X146792963Y-64590459D01*
X146670034Y-64641378D01*
X146670024Y-64641383D01*
X146559394Y-64715304D01*
X146559390Y-64715307D01*
X136305307Y-74969390D01*
X136305304Y-74969394D01*
X136231383Y-75080024D01*
X136231378Y-75080034D01*
X136180459Y-75202963D01*
X136180457Y-75202971D01*
X136156949Y-75321156D01*
X136156948Y-75321161D01*
X136154500Y-75333465D01*
X136154500Y-86920092D01*
X136134815Y-86987131D01*
X136103385Y-87020410D01*
X135982786Y-87108028D01*
X135838028Y-87252786D01*
X135717713Y-87418388D01*
X135674216Y-87503755D01*
X135626241Y-87554550D01*
X135558420Y-87571345D01*
X135492286Y-87548807D01*
X135454374Y-87505912D01*
X135419265Y-87440228D01*
X135419263Y-87440226D01*
X135419259Y-87440217D01*
X135404850Y-87418652D01*
X135331721Y-87309206D01*
X135331712Y-87309194D01*
X135331709Y-87309189D01*
X135268843Y-87232588D01*
X135157412Y-87121157D01*
X135080811Y-87058291D01*
X135080804Y-87058286D01*
X135080793Y-87058278D01*
X134949799Y-86970751D01*
X134949771Y-86970734D01*
X134862396Y-86924031D01*
X134862391Y-86924029D01*
X134852886Y-86920092D01*
X134791781Y-86894781D01*
X134716799Y-86863722D01*
X134691190Y-86855954D01*
X134621968Y-86834956D01*
X134467410Y-86804213D01*
X134467406Y-86804212D01*
X134467398Y-86804211D01*
X134387926Y-86796384D01*
X134368793Y-86794500D01*
X134211207Y-86794500D01*
X134192073Y-86796384D01*
X134112602Y-86804211D01*
X134112599Y-86804211D01*
X133975296Y-86831522D01*
X133958032Y-86834956D01*
X133914416Y-86848186D01*
X133863200Y-86863722D01*
X133717608Y-86924029D01*
X133717603Y-86924031D01*
X133630228Y-86970734D01*
X133630200Y-86970751D01*
X133499206Y-87058278D01*
X133499194Y-87058287D01*
X133499189Y-87058290D01*
X133499189Y-87058291D01*
X133422588Y-87121157D01*
X133422585Y-87121160D01*
X133422582Y-87121162D01*
X133311162Y-87232582D01*
X133311160Y-87232585D01*
X133311157Y-87232588D01*
X133294585Y-87252781D01*
X133248287Y-87309194D01*
X133248278Y-87309206D01*
X133160751Y-87440200D01*
X133160744Y-87440212D01*
X133160741Y-87440217D01*
X133160591Y-87440498D01*
X133125338Y-87506451D01*
X133076374Y-87556294D01*
X133008237Y-87571754D01*
X132942557Y-87547921D01*
X132905495Y-87504290D01*
X132861861Y-87418652D01*
X132829474Y-87374077D01*
X132829474Y-87374076D01*
X132232962Y-87970589D01*
X132215925Y-87907007D01*
X132150099Y-87792993D01*
X132057007Y-87699901D01*
X131942993Y-87634075D01*
X131879408Y-87617037D01*
X132475922Y-87020524D01*
X132475921Y-87020523D01*
X132431359Y-86988147D01*
X132431350Y-86988141D01*
X132249031Y-86895244D01*
X132054417Y-86832009D01*
X131852317Y-86800000D01*
X131647683Y-86800000D01*
X131445582Y-86832009D01*
X131250968Y-86895244D01*
X131068644Y-86988143D01*
X131024077Y-87020523D01*
X131024077Y-87020524D01*
X131620591Y-87617037D01*
X131557007Y-87634075D01*
X131442993Y-87699901D01*
X131349901Y-87792993D01*
X131284075Y-87907007D01*
X131267037Y-87970590D01*
X130670524Y-87374077D01*
X130670523Y-87374077D01*
X130638143Y-87418644D01*
X130590765Y-87511630D01*
X130542790Y-87562426D01*
X130474969Y-87579221D01*
X130408834Y-87556683D01*
X130369795Y-87511630D01*
X130366055Y-87504290D01*
X130322287Y-87418390D01*
X130322285Y-87418387D01*
X130322284Y-87418385D01*
X130201971Y-87252786D01*
X130057213Y-87108028D01*
X129891613Y-86987715D01*
X129891612Y-86987714D01*
X129891610Y-86987713D01*
X129834653Y-86958691D01*
X129709223Y-86894781D01*
X129514534Y-86831522D01*
X129339995Y-86803878D01*
X129312352Y-86799500D01*
X129107648Y-86799500D01*
X129083329Y-86803351D01*
X128905465Y-86831522D01*
X128710776Y-86894781D01*
X128528386Y-86987715D01*
X128362786Y-87108028D01*
X128218028Y-87252786D01*
X128097715Y-87418386D01*
X128050485Y-87511080D01*
X128002510Y-87561876D01*
X127934689Y-87578671D01*
X127868554Y-87556134D01*
X127829515Y-87511080D01*
X127825782Y-87503754D01*
X127782287Y-87418390D01*
X127750092Y-87374077D01*
X127661971Y-87252786D01*
X127517213Y-87108028D01*
X127351613Y-86987715D01*
X127351612Y-86987714D01*
X127351610Y-86987713D01*
X127294653Y-86958691D01*
X127169223Y-86894781D01*
X126974534Y-86831522D01*
X126799995Y-86803878D01*
X126772352Y-86799500D01*
X126567648Y-86799500D01*
X126543329Y-86803351D01*
X126365465Y-86831522D01*
X126170776Y-86894781D01*
X125988386Y-86987715D01*
X125822786Y-87108028D01*
X125678028Y-87252786D01*
X125557715Y-87418386D01*
X125510485Y-87511080D01*
X125462510Y-87561876D01*
X125394689Y-87578671D01*
X125328554Y-87556134D01*
X125289515Y-87511080D01*
X125285782Y-87503754D01*
X125242287Y-87418390D01*
X125210092Y-87374077D01*
X125121971Y-87252786D01*
X124977213Y-87108028D01*
X124811613Y-86987715D01*
X124811612Y-86987714D01*
X124811610Y-86987713D01*
X124754653Y-86958691D01*
X124629223Y-86894781D01*
X124434534Y-86831522D01*
X124259995Y-86803878D01*
X124232352Y-86799500D01*
X124027648Y-86799500D01*
X124003329Y-86803351D01*
X123825465Y-86831522D01*
X123630776Y-86894781D01*
X123448386Y-86987715D01*
X123282786Y-87108028D01*
X123138028Y-87252786D01*
X123017713Y-87418388D01*
X122974216Y-87503755D01*
X122926241Y-87554550D01*
X122858420Y-87571345D01*
X122792286Y-87548807D01*
X122754374Y-87505912D01*
X122719265Y-87440228D01*
X122719263Y-87440226D01*
X122719259Y-87440217D01*
X122704850Y-87418652D01*
X122631721Y-87309206D01*
X122631712Y-87309194D01*
X122631709Y-87309189D01*
X122568843Y-87232588D01*
X122457412Y-87121157D01*
X122380811Y-87058291D01*
X122380804Y-87058286D01*
X122380793Y-87058278D01*
X122249799Y-86970751D01*
X122249771Y-86970734D01*
X122162396Y-86924031D01*
X122162391Y-86924029D01*
X122152886Y-86920092D01*
X122091781Y-86894781D01*
X122016799Y-86863722D01*
X121991190Y-86855954D01*
X121921968Y-86834956D01*
X121767410Y-86804213D01*
X121767406Y-86804212D01*
X121767398Y-86804211D01*
X121687926Y-86796384D01*
X121668793Y-86794500D01*
X121511207Y-86794500D01*
X121492073Y-86796384D01*
X121412602Y-86804211D01*
X121412599Y-86804211D01*
X121275296Y-86831522D01*
X121258032Y-86834956D01*
X121214416Y-86848186D01*
X121163200Y-86863722D01*
X121017608Y-86924029D01*
X121017603Y-86924031D01*
X120930228Y-86970734D01*
X120930200Y-86970751D01*
X120799206Y-87058278D01*
X120799194Y-87058287D01*
X120799189Y-87058290D01*
X120799189Y-87058291D01*
X120722588Y-87121157D01*
X120722585Y-87121160D01*
X120722582Y-87121162D01*
X120611162Y-87232582D01*
X120611160Y-87232585D01*
X120611157Y-87232588D01*
X120594585Y-87252781D01*
X120548287Y-87309194D01*
X120548278Y-87309206D01*
X120460751Y-87440200D01*
X120460734Y-87440228D01*
X120425624Y-87505914D01*
X120376661Y-87555757D01*
X120308524Y-87571217D01*
X120242844Y-87547384D01*
X120205782Y-87503754D01*
X120162287Y-87418390D01*
X120162285Y-87418387D01*
X120162284Y-87418385D01*
X120041971Y-87252786D01*
X119897213Y-87108028D01*
X119731613Y-86987715D01*
X119731612Y-86987714D01*
X119731610Y-86987713D01*
X119674653Y-86958691D01*
X119549223Y-86894781D01*
X119354534Y-86831522D01*
X119179995Y-86803878D01*
X119152352Y-86799500D01*
X118947648Y-86799500D01*
X118923329Y-86803351D01*
X118745465Y-86831522D01*
X118550776Y-86894781D01*
X118368386Y-86987715D01*
X118202786Y-87108028D01*
X118058028Y-87252786D01*
X117937713Y-87418388D01*
X117890203Y-87511630D01*
X117842228Y-87562426D01*
X117774407Y-87579220D01*
X117708272Y-87556682D01*
X117669234Y-87511628D01*
X117621861Y-87418652D01*
X117589474Y-87374077D01*
X117589474Y-87374076D01*
X116992962Y-87970589D01*
X116975925Y-87907007D01*
X116910099Y-87792993D01*
X116817007Y-87699901D01*
X116702993Y-87634075D01*
X116639408Y-87617037D01*
X117235922Y-87020524D01*
X117235921Y-87020523D01*
X117191359Y-86988147D01*
X117191350Y-86988141D01*
X117009031Y-86895244D01*
X116814417Y-86832009D01*
X116612317Y-86800000D01*
X116407683Y-86800000D01*
X116205582Y-86832009D01*
X116010968Y-86895244D01*
X115828644Y-86988143D01*
X115784077Y-87020523D01*
X115784077Y-87020524D01*
X116380591Y-87617037D01*
X116317007Y-87634075D01*
X116202993Y-87699901D01*
X116109901Y-87792993D01*
X116044075Y-87907007D01*
X116027037Y-87970590D01*
X115430524Y-87374077D01*
X115430523Y-87374077D01*
X115398143Y-87418644D01*
X115350765Y-87511630D01*
X115302790Y-87562426D01*
X115234969Y-87579221D01*
X115168834Y-87556683D01*
X115129795Y-87511630D01*
X115126055Y-87504290D01*
X115082287Y-87418390D01*
X115082285Y-87418387D01*
X115082284Y-87418385D01*
X114961971Y-87252786D01*
X114856819Y-87147634D01*
X114823334Y-87086311D01*
X114820500Y-87059953D01*
X114820500Y-79107682D01*
X115250000Y-79107682D01*
X115250000Y-79312317D01*
X115282009Y-79514417D01*
X115345244Y-79709031D01*
X115438141Y-79891350D01*
X115438147Y-79891359D01*
X115470523Y-79935921D01*
X115470524Y-79935922D01*
X116150000Y-79256446D01*
X116150000Y-79262661D01*
X116177259Y-79364394D01*
X116229920Y-79455606D01*
X116304394Y-79530080D01*
X116395606Y-79582741D01*
X116497339Y-79610000D01*
X116503553Y-79610000D01*
X115824076Y-80289474D01*
X115868650Y-80321859D01*
X116050968Y-80414755D01*
X116245582Y-80477990D01*
X116447683Y-80510000D01*
X116652317Y-80510000D01*
X116854417Y-80477990D01*
X117049031Y-80414755D01*
X117231349Y-80321859D01*
X117275921Y-80289474D01*
X116596447Y-79610000D01*
X116602661Y-79610000D01*
X116704394Y-79582741D01*
X116795606Y-79530080D01*
X116870080Y-79455606D01*
X116922741Y-79364394D01*
X116950000Y-79262661D01*
X116950000Y-79256447D01*
X117629474Y-79935921D01*
X117661859Y-79891349D01*
X117754755Y-79709031D01*
X117817990Y-79514417D01*
X117850000Y-79312317D01*
X117850000Y-79107682D01*
X117817990Y-78905582D01*
X117754755Y-78710968D01*
X117661859Y-78528650D01*
X117629474Y-78484077D01*
X117629474Y-78484076D01*
X116950000Y-79163551D01*
X116950000Y-79157339D01*
X116922741Y-79055606D01*
X116870080Y-78964394D01*
X116795606Y-78889920D01*
X116704394Y-78837259D01*
X116602661Y-78810000D01*
X116596446Y-78810000D01*
X117275922Y-78130524D01*
X117275921Y-78130523D01*
X117231359Y-78098147D01*
X117231350Y-78098141D01*
X117049031Y-78005244D01*
X116854417Y-77942009D01*
X116652317Y-77910000D01*
X116447683Y-77910000D01*
X116245582Y-77942009D01*
X116050968Y-78005244D01*
X115868644Y-78098143D01*
X115824077Y-78130523D01*
X115824077Y-78130524D01*
X116503554Y-78810000D01*
X116497339Y-78810000D01*
X116395606Y-78837259D01*
X116304394Y-78889920D01*
X116229920Y-78964394D01*
X116177259Y-79055606D01*
X116150000Y-79157339D01*
X116150000Y-79163553D01*
X115470524Y-78484077D01*
X115470523Y-78484077D01*
X115438143Y-78528644D01*
X115345244Y-78710968D01*
X115282009Y-78905582D01*
X115250000Y-79107682D01*
X114820500Y-79107682D01*
X114820500Y-76374500D01*
X114840185Y-76307461D01*
X114892989Y-76261706D01*
X114944500Y-76250500D01*
X117336349Y-76250500D01*
X117403388Y-76270185D01*
X117424030Y-76286819D01*
X120213181Y-79075970D01*
X120246666Y-79137293D01*
X120249500Y-79163651D01*
X120249500Y-79312351D01*
X120281522Y-79514534D01*
X120344781Y-79709223D01*
X120392004Y-79801902D01*
X120437585Y-79891359D01*
X120437715Y-79891613D01*
X120558028Y-80057213D01*
X120702786Y-80201971D01*
X120798305Y-80271368D01*
X120868390Y-80322287D01*
X120942622Y-80360110D01*
X121050776Y-80415218D01*
X121050778Y-80415218D01*
X121050781Y-80415220D01*
X121104019Y-80432518D01*
X121245465Y-80478477D01*
X121346557Y-80494488D01*
X121447648Y-80510500D01*
X121447649Y-80510500D01*
X121652351Y-80510500D01*
X121652352Y-80510500D01*
X121854534Y-80478477D01*
X122049219Y-80415220D01*
X122231610Y-80322287D01*
X122324590Y-80254732D01*
X122397213Y-80201971D01*
X122397215Y-80201968D01*
X122397219Y-80201966D01*
X122541966Y-80057219D01*
X122541968Y-80057215D01*
X122541971Y-80057213D01*
X122594732Y-79984590D01*
X122662287Y-79891610D01*
X122755220Y-79709219D01*
X122818477Y-79514534D01*
X122850500Y-79312352D01*
X122850500Y-79107648D01*
X122841511Y-79050893D01*
X122818477Y-78905465D01*
X122787458Y-78810000D01*
X122755220Y-78710781D01*
X122755218Y-78710778D01*
X122755218Y-78710776D01*
X122717452Y-78636657D01*
X122662287Y-78528390D01*
X122630092Y-78484077D01*
X122541971Y-78362786D01*
X122397213Y-78218028D01*
X122231613Y-78097715D01*
X122231612Y-78097714D01*
X122231610Y-78097713D01*
X122174653Y-78068691D01*
X122049223Y-78004781D01*
X121854534Y-77941522D01*
X121679995Y-77913878D01*
X121652352Y-77909500D01*
X121652351Y-77909500D01*
X121503651Y-77909500D01*
X121436612Y-77889815D01*
X121415970Y-77873181D01*
X118282165Y-74739375D01*
X118282161Y-74739372D01*
X118142866Y-74646297D01*
X118142863Y-74646296D01*
X118029886Y-74599500D01*
X117988082Y-74582184D01*
X117988074Y-74582182D01*
X117823771Y-74549500D01*
X117823767Y-74549500D01*
X116322651Y-74549500D01*
X116255612Y-74529815D01*
X116209857Y-74477011D01*
X116199913Y-74407853D01*
X116228938Y-74344297D01*
X116234970Y-74337819D01*
X118405970Y-72166819D01*
X118467293Y-72133334D01*
X118493651Y-72130500D01*
X119004362Y-72130500D01*
X119071401Y-72150185D01*
X119109899Y-72189401D01*
X119177288Y-72298656D01*
X119301344Y-72422712D01*
X119450666Y-72514814D01*
X119617203Y-72569999D01*
X119719991Y-72580500D01*
X120920008Y-72580499D01*
X121022797Y-72569999D01*
X121189334Y-72514814D01*
X121338656Y-72422712D01*
X121462712Y-72298656D01*
X121554814Y-72149334D01*
X121609999Y-71982797D01*
X121620500Y-71880009D01*
X121620499Y-70679992D01*
X121609999Y-70577203D01*
X121554814Y-70410666D01*
X121462712Y-70261344D01*
X121338656Y-70137288D01*
X121245888Y-70080069D01*
X121189336Y-70045187D01*
X121189331Y-70045185D01*
X121137968Y-70028165D01*
X121022797Y-69990001D01*
X121022795Y-69990000D01*
X120920010Y-69979500D01*
X119719998Y-69979500D01*
X119719981Y-69979501D01*
X119617203Y-69990000D01*
X119617200Y-69990001D01*
X119450668Y-70045185D01*
X119450663Y-70045187D01*
X119301342Y-70137289D01*
X119177289Y-70261342D01*
X119109901Y-70370597D01*
X119057953Y-70417321D01*
X119004362Y-70429500D01*
X118006228Y-70429500D01*
X117841925Y-70462182D01*
X117841913Y-70462185D01*
X117796583Y-70480962D01*
X117687143Y-70526292D01*
X117687130Y-70526299D01*
X117547838Y-70619372D01*
X117547834Y-70619375D01*
X113768546Y-74398663D01*
X113707223Y-74432148D01*
X113705057Y-74432599D01*
X113678170Y-74437947D01*
X113678162Y-74437949D01*
X113496092Y-74513364D01*
X113496079Y-74513371D01*
X113332218Y-74622860D01*
X113332214Y-74622863D01*
X113192863Y-74762214D01*
X113192860Y-74762218D01*
X113083371Y-74926079D01*
X113083364Y-74926092D01*
X113007950Y-75108160D01*
X113007947Y-75108170D01*
X112969500Y-75301456D01*
X112969500Y-75301459D01*
X112969500Y-75498541D01*
X112969500Y-75498543D01*
X112969499Y-75498543D01*
X113007947Y-75691829D01*
X113007950Y-75691839D01*
X113083364Y-75873907D01*
X113083368Y-75873914D01*
X113096029Y-75892863D01*
X113098601Y-75896711D01*
X113119480Y-75963388D01*
X113119500Y-75965604D01*
X113119500Y-87059953D01*
X113099815Y-87126992D01*
X113083181Y-87147634D01*
X112978032Y-87252782D01*
X112978028Y-87252786D01*
X112857715Y-87418386D01*
X112810485Y-87511080D01*
X112762510Y-87561876D01*
X112694689Y-87578671D01*
X112628554Y-87556134D01*
X112589515Y-87511080D01*
X112585782Y-87503754D01*
X112542287Y-87418390D01*
X112510092Y-87374077D01*
X112421971Y-87252786D01*
X112277213Y-87108028D01*
X112111613Y-86987715D01*
X112111612Y-86987714D01*
X112111610Y-86987713D01*
X112054653Y-86958691D01*
X111929223Y-86894781D01*
X111734534Y-86831522D01*
X111559995Y-86803878D01*
X111532352Y-86799500D01*
X111327648Y-86799500D01*
X111303329Y-86803351D01*
X111125465Y-86831522D01*
X110930776Y-86894781D01*
X110748386Y-86987715D01*
X110582786Y-87108028D01*
X110438028Y-87252786D01*
X110317715Y-87418386D01*
X110273942Y-87504295D01*
X110225967Y-87555091D01*
X110158146Y-87571886D01*
X110092011Y-87549348D01*
X110054099Y-87506454D01*
X110018844Y-87440498D01*
X110018838Y-87440488D01*
X109972465Y-87371085D01*
X109372962Y-87970588D01*
X109355925Y-87907007D01*
X109290099Y-87792993D01*
X109197007Y-87699901D01*
X109082993Y-87634075D01*
X109019410Y-87617037D01*
X109618912Y-87017534D01*
X109549511Y-86971161D01*
X109549501Y-86971155D01*
X109462198Y-86924490D01*
X109316612Y-86864185D01*
X109221864Y-86835444D01*
X109067300Y-86804701D01*
X108968790Y-86795000D01*
X108811210Y-86795000D01*
X108712700Y-86804701D01*
X108712697Y-86804701D01*
X108558135Y-86835444D01*
X108463387Y-86864185D01*
X108317801Y-86924490D01*
X108230493Y-86971158D01*
X108161086Y-87017534D01*
X108161085Y-87017534D01*
X108760589Y-87617037D01*
X108697007Y-87634075D01*
X108582993Y-87699901D01*
X108489901Y-87792993D01*
X108424075Y-87907007D01*
X108407037Y-87970588D01*
X107807534Y-87371085D01*
X107807534Y-87371086D01*
X107761155Y-87440497D01*
X107725899Y-87506455D01*
X107676936Y-87556299D01*
X107608798Y-87571758D01*
X107543119Y-87547925D01*
X107506057Y-87504294D01*
X107505782Y-87503755D01*
X107464596Y-87422922D01*
X107462286Y-87418388D01*
X107341971Y-87252786D01*
X107197213Y-87108028D01*
X107031613Y-86987715D01*
X107031612Y-86987714D01*
X107031610Y-86987713D01*
X106974653Y-86958691D01*
X106849223Y-86894781D01*
X106654534Y-86831522D01*
X106479995Y-86803878D01*
X106452352Y-86799500D01*
X106247648Y-86799500D01*
X106223329Y-86803351D01*
X106045465Y-86831522D01*
X105850776Y-86894781D01*
X105668386Y-86987715D01*
X105502786Y-87108028D01*
X105358028Y-87252786D01*
X105237715Y-87418386D01*
X105190485Y-87511080D01*
X105142510Y-87561876D01*
X105074689Y-87578671D01*
X105008554Y-87556134D01*
X104969515Y-87511080D01*
X104965782Y-87503754D01*
X104922287Y-87418390D01*
X104890092Y-87374077D01*
X104801971Y-87252786D01*
X104657213Y-87108028D01*
X104491613Y-86987715D01*
X104491612Y-86987714D01*
X104491610Y-86987713D01*
X104434653Y-86958691D01*
X104309223Y-86894781D01*
X104114534Y-86831522D01*
X103939995Y-86803878D01*
X103912352Y-86799500D01*
X103707648Y-86799500D01*
X103683329Y-86803351D01*
X103505465Y-86831522D01*
X103310776Y-86894781D01*
X103128386Y-86987715D01*
X102962786Y-87108028D01*
X102818028Y-87252786D01*
X102697715Y-87418386D01*
X102604781Y-87600776D01*
X102541522Y-87795465D01*
X102509500Y-87997648D01*
X101000000Y-87997648D01*
X101000000Y-79801947D01*
X103870000Y-79801947D01*
X103870000Y-80038052D01*
X103906934Y-80271247D01*
X103979897Y-80495802D01*
X104087087Y-80706174D01*
X104147338Y-80789104D01*
X104147340Y-80789105D01*
X104846212Y-80090233D01*
X104857482Y-80132292D01*
X104929890Y-80257708D01*
X105032292Y-80360110D01*
X105157708Y-80432518D01*
X105199765Y-80443787D01*
X104500893Y-81142658D01*
X104583828Y-81202914D01*
X104794197Y-81310102D01*
X105018752Y-81383065D01*
X105018751Y-81383065D01*
X105251948Y-81420000D01*
X105488052Y-81420000D01*
X105721247Y-81383065D01*
X105945802Y-81310102D01*
X106156163Y-81202918D01*
X106156169Y-81202914D01*
X106239104Y-81142658D01*
X106239105Y-81142658D01*
X105540233Y-80443787D01*
X105582292Y-80432518D01*
X105707708Y-80360110D01*
X105810110Y-80257708D01*
X105882518Y-80132292D01*
X105893787Y-80090234D01*
X106592658Y-80789105D01*
X106592658Y-80789104D01*
X106652914Y-80706169D01*
X106652918Y-80706163D01*
X106760102Y-80495802D01*
X106833065Y-80271247D01*
X106870000Y-80038052D01*
X106870000Y-79801947D01*
X106869993Y-79801902D01*
X108369500Y-79801902D01*
X108369500Y-80038097D01*
X108406446Y-80271368D01*
X108479433Y-80495996D01*
X108586519Y-80706163D01*
X108586657Y-80706433D01*
X108725483Y-80897510D01*
X108892490Y-81064517D01*
X109083567Y-81203343D01*
X109182991Y-81254002D01*
X109294003Y-81310566D01*
X109294005Y-81310566D01*
X109294008Y-81310568D01*
X109414412Y-81349689D01*
X109518631Y-81383553D01*
X109751903Y-81420500D01*
X109751908Y-81420500D01*
X109988097Y-81420500D01*
X110221368Y-81383553D01*
X110222870Y-81383065D01*
X110445992Y-81310568D01*
X110656433Y-81203343D01*
X110847510Y-81064517D01*
X111014517Y-80897510D01*
X111153343Y-80706433D01*
X111260568Y-80495992D01*
X111333553Y-80271368D01*
X111335717Y-80257708D01*
X111370500Y-80038097D01*
X111370500Y-79801902D01*
X111333553Y-79568631D01*
X111299689Y-79464412D01*
X111260568Y-79344008D01*
X111260566Y-79344005D01*
X111260566Y-79344003D01*
X111192288Y-79210001D01*
X111153343Y-79133567D01*
X111014517Y-78942490D01*
X110847510Y-78775483D01*
X110656433Y-78636657D01*
X110445996Y-78529433D01*
X110221368Y-78456446D01*
X109988097Y-78419500D01*
X109988092Y-78419500D01*
X109751908Y-78419500D01*
X109751903Y-78419500D01*
X109518631Y-78456446D01*
X109294003Y-78529433D01*
X109083566Y-78636657D01*
X109000047Y-78697338D01*
X108892490Y-78775483D01*
X108892488Y-78775485D01*
X108892487Y-78775485D01*
X108725485Y-78942487D01*
X108725485Y-78942488D01*
X108725483Y-78942490D01*
X108709569Y-78964394D01*
X108586657Y-79133566D01*
X108479433Y-79344003D01*
X108406446Y-79568631D01*
X108369500Y-79801902D01*
X106869993Y-79801902D01*
X106833065Y-79568752D01*
X106760102Y-79344197D01*
X106652914Y-79133828D01*
X106592658Y-79050894D01*
X106592658Y-79050893D01*
X105893787Y-79749765D01*
X105882518Y-79707708D01*
X105810110Y-79582292D01*
X105707708Y-79479890D01*
X105582292Y-79407482D01*
X105540234Y-79396212D01*
X106239105Y-78697340D01*
X106239104Y-78697338D01*
X106156174Y-78637087D01*
X105945802Y-78529897D01*
X105721247Y-78456934D01*
X105721248Y-78456934D01*
X105488052Y-78420000D01*
X105251948Y-78420000D01*
X105018752Y-78456934D01*
X104794197Y-78529897D01*
X104583830Y-78637084D01*
X104500894Y-78697340D01*
X105199766Y-79396212D01*
X105157708Y-79407482D01*
X105032292Y-79479890D01*
X104929890Y-79582292D01*
X104857482Y-79707708D01*
X104846212Y-79749766D01*
X104147340Y-79050894D01*
X104087084Y-79133830D01*
X103979897Y-79344197D01*
X103906934Y-79568752D01*
X103870000Y-79801947D01*
X101000000Y-79801947D01*
X101000000Y-73301947D01*
X103870000Y-73301947D01*
X103870000Y-73538052D01*
X103906934Y-73771247D01*
X103979897Y-73995802D01*
X104087087Y-74206174D01*
X104147338Y-74289104D01*
X104147340Y-74289105D01*
X104846212Y-73590233D01*
X104857482Y-73632292D01*
X104929890Y-73757708D01*
X105032292Y-73860110D01*
X105157708Y-73932518D01*
X105199765Y-73943787D01*
X104500893Y-74642658D01*
X104583828Y-74702914D01*
X104794197Y-74810102D01*
X105018752Y-74883065D01*
X105018751Y-74883065D01*
X105251948Y-74920000D01*
X105488052Y-74920000D01*
X105721247Y-74883065D01*
X105945802Y-74810102D01*
X106156163Y-74702918D01*
X106156169Y-74702914D01*
X106239104Y-74642658D01*
X106239105Y-74642658D01*
X105540233Y-73943787D01*
X105582292Y-73932518D01*
X105707708Y-73860110D01*
X105810110Y-73757708D01*
X105882518Y-73632292D01*
X105893787Y-73590234D01*
X106592658Y-74289105D01*
X106592658Y-74289104D01*
X106652914Y-74206169D01*
X106652918Y-74206163D01*
X106760102Y-73995802D01*
X106833065Y-73771247D01*
X106870000Y-73538052D01*
X106870000Y-73301947D01*
X106869993Y-73301902D01*
X108369500Y-73301902D01*
X108369500Y-73538097D01*
X108406446Y-73771368D01*
X108479433Y-73995996D01*
X108586519Y-74206163D01*
X108586657Y-74206433D01*
X108725483Y-74397510D01*
X108892490Y-74564517D01*
X109083567Y-74703343D01*
X109154278Y-74739372D01*
X109294003Y-74810566D01*
X109294005Y-74810566D01*
X109294008Y-74810568D01*
X109414412Y-74849689D01*
X109518631Y-74883553D01*
X109751903Y-74920500D01*
X109751908Y-74920500D01*
X109988097Y-74920500D01*
X110221368Y-74883553D01*
X110222870Y-74883065D01*
X110445992Y-74810568D01*
X110450377Y-74808334D01*
X110453719Y-74806630D01*
X110656433Y-74703343D01*
X110847510Y-74564517D01*
X111014517Y-74397510D01*
X111153343Y-74206433D01*
X111260568Y-73995992D01*
X111333553Y-73771368D01*
X111338410Y-73740703D01*
X111370500Y-73538097D01*
X111370500Y-73301902D01*
X111333553Y-73068631D01*
X111260566Y-72844003D01*
X111153477Y-72633830D01*
X111153343Y-72633567D01*
X111014517Y-72442490D01*
X110847510Y-72275483D01*
X110656433Y-72136657D01*
X110644349Y-72130500D01*
X110445996Y-72029433D01*
X110221368Y-71956446D01*
X109988097Y-71919500D01*
X109988092Y-71919500D01*
X109751908Y-71919500D01*
X109751903Y-71919500D01*
X109518631Y-71956446D01*
X109294003Y-72029433D01*
X109083566Y-72136657D01*
X109000047Y-72197338D01*
X108892490Y-72275483D01*
X108892488Y-72275485D01*
X108892487Y-72275485D01*
X108725485Y-72442487D01*
X108725485Y-72442488D01*
X108725483Y-72442490D01*
X108672938Y-72514812D01*
X108586657Y-72633566D01*
X108479433Y-72844003D01*
X108406446Y-73068631D01*
X108369500Y-73301902D01*
X106869993Y-73301902D01*
X106833065Y-73068752D01*
X106760102Y-72844197D01*
X106652914Y-72633828D01*
X106592658Y-72550894D01*
X106592658Y-72550893D01*
X105893787Y-73249765D01*
X105882518Y-73207708D01*
X105810110Y-73082292D01*
X105707708Y-72979890D01*
X105582292Y-72907482D01*
X105540234Y-72896212D01*
X106239105Y-72197340D01*
X106239104Y-72197338D01*
X106156174Y-72137087D01*
X105945802Y-72029897D01*
X105721247Y-71956934D01*
X105721248Y-71956934D01*
X105488052Y-71920000D01*
X105251948Y-71920000D01*
X105018752Y-71956934D01*
X104794197Y-72029897D01*
X104583830Y-72137084D01*
X104500894Y-72197340D01*
X105199766Y-72896212D01*
X105157708Y-72907482D01*
X105032292Y-72979890D01*
X104929890Y-73082292D01*
X104857482Y-73207708D01*
X104846212Y-73249766D01*
X104147340Y-72550894D01*
X104087084Y-72633830D01*
X103979897Y-72844197D01*
X103906934Y-73068752D01*
X103870000Y-73301947D01*
X101000000Y-73301947D01*
X101000000Y-67677682D01*
X119020000Y-67677682D01*
X119020000Y-67882317D01*
X119052009Y-68084417D01*
X119115244Y-68279031D01*
X119208141Y-68461350D01*
X119208147Y-68461359D01*
X119240523Y-68505921D01*
X119240524Y-68505922D01*
X119920000Y-67826446D01*
X119920000Y-67832661D01*
X119947259Y-67934394D01*
X119999920Y-68025606D01*
X120074394Y-68100080D01*
X120165606Y-68152741D01*
X120267339Y-68180000D01*
X120273553Y-68180000D01*
X119594076Y-68859474D01*
X119638650Y-68891859D01*
X119820968Y-68984755D01*
X120015582Y-69047990D01*
X120217683Y-69080000D01*
X120422317Y-69080000D01*
X120624417Y-69047990D01*
X120819031Y-68984755D01*
X121001349Y-68891859D01*
X121045921Y-68859474D01*
X120366447Y-68180000D01*
X120372661Y-68180000D01*
X120474394Y-68152741D01*
X120565606Y-68100080D01*
X120640080Y-68025606D01*
X120692741Y-67934394D01*
X120720000Y-67832661D01*
X120720000Y-67826448D01*
X121399474Y-68505922D01*
X121399474Y-68505921D01*
X121431859Y-68461349D01*
X121524755Y-68279031D01*
X121587990Y-68084417D01*
X121620000Y-67882317D01*
X121620000Y-67677682D01*
X121587990Y-67475582D01*
X121524755Y-67280968D01*
X121431859Y-67098650D01*
X121399474Y-67054077D01*
X121399474Y-67054076D01*
X120720000Y-67733551D01*
X120720000Y-67727339D01*
X120692741Y-67625606D01*
X120640080Y-67534394D01*
X120565606Y-67459920D01*
X120474394Y-67407259D01*
X120372661Y-67380000D01*
X120366446Y-67380000D01*
X121045922Y-66700524D01*
X121045921Y-66700523D01*
X121001359Y-66668147D01*
X121001350Y-66668141D01*
X120819031Y-66575244D01*
X120624417Y-66512009D01*
X120422317Y-66480000D01*
X120217683Y-66480000D01*
X120015582Y-66512009D01*
X119820968Y-66575244D01*
X119638644Y-66668143D01*
X119594077Y-66700523D01*
X119594077Y-66700524D01*
X120273554Y-67380000D01*
X120267339Y-67380000D01*
X120165606Y-67407259D01*
X120074394Y-67459920D01*
X119999920Y-67534394D01*
X119947259Y-67625606D01*
X119920000Y-67727339D01*
X119920000Y-67733553D01*
X119240524Y-67054077D01*
X119240523Y-67054077D01*
X119208143Y-67098644D01*
X119115244Y-67280968D01*
X119052009Y-67475582D01*
X119020000Y-67677682D01*
X101000000Y-67677682D01*
X101000000Y-59859568D01*
X107499500Y-59859568D01*
X107499500Y-60140431D01*
X107530942Y-60419494D01*
X107530945Y-60419512D01*
X107593439Y-60693317D01*
X107593443Y-60693329D01*
X107686200Y-60958411D01*
X107808053Y-61211442D01*
X107808055Y-61211445D01*
X107957477Y-61449248D01*
X108132584Y-61668825D01*
X108331175Y-61867416D01*
X108550752Y-62042523D01*
X108788555Y-62191945D01*
X109041592Y-62313801D01*
X109240680Y-62383465D01*
X109306670Y-62406556D01*
X109306682Y-62406560D01*
X109580491Y-62469055D01*
X109580497Y-62469055D01*
X109580505Y-62469057D01*
X109766547Y-62490018D01*
X109859569Y-62500499D01*
X109859572Y-62500500D01*
X109859575Y-62500500D01*
X110140428Y-62500500D01*
X110140429Y-62500499D01*
X110283055Y-62484429D01*
X110419494Y-62469057D01*
X110419499Y-62469056D01*
X110419509Y-62469055D01*
X110693318Y-62406560D01*
X110958408Y-62313801D01*
X111211445Y-62191945D01*
X111449248Y-62042523D01*
X111668825Y-61867416D01*
X111867416Y-61668825D01*
X112042523Y-61449248D01*
X112191945Y-61211445D01*
X112313801Y-60958408D01*
X112406560Y-60693318D01*
X112469055Y-60419509D01*
X112500500Y-60140425D01*
X112500500Y-59859575D01*
X112473150Y-59616831D01*
X112469057Y-59580505D01*
X112469054Y-59580487D01*
X112429072Y-59405316D01*
X112406560Y-59306682D01*
X112313801Y-59041592D01*
X112191945Y-58788555D01*
X112042523Y-58550752D01*
X111867416Y-58331175D01*
X111668825Y-58132584D01*
X111562112Y-58047483D01*
X159759500Y-58047483D01*
X159759500Y-59347501D01*
X159759501Y-59347518D01*
X159770000Y-59450296D01*
X159770001Y-59450299D01*
X159793763Y-59522007D01*
X159825186Y-59616834D01*
X159917288Y-59766156D01*
X160041344Y-59890212D01*
X160190666Y-59982314D01*
X160357203Y-60037499D01*
X160459991Y-60048000D01*
X161760008Y-60047999D01*
X161862797Y-60037499D01*
X162029334Y-59982314D01*
X162178656Y-59890212D01*
X162302712Y-59766156D01*
X162394814Y-59616834D01*
X162398312Y-59606275D01*
X162438082Y-59548832D01*
X162502598Y-59522007D01*
X162571374Y-59534321D01*
X162616334Y-59572391D01*
X162619890Y-59577285D01*
X162619894Y-59577290D01*
X162770213Y-59727609D01*
X162942179Y-59852548D01*
X162942181Y-59852549D01*
X162942184Y-59852551D01*
X163131588Y-59949057D01*
X163333757Y-60014746D01*
X163543713Y-60048000D01*
X163543714Y-60048000D01*
X163756286Y-60048000D01*
X163756287Y-60048000D01*
X163966243Y-60014746D01*
X164168412Y-59949057D01*
X164357816Y-59852551D01*
X164379789Y-59836586D01*
X164529786Y-59727609D01*
X164529788Y-59727606D01*
X164529792Y-59727604D01*
X164680104Y-59577292D01*
X164680106Y-59577288D01*
X164680109Y-59577286D01*
X164805048Y-59405320D01*
X164805047Y-59405320D01*
X164805051Y-59405316D01*
X164809514Y-59396554D01*
X164857488Y-59345759D01*
X164925308Y-59328963D01*
X164991444Y-59351499D01*
X165030486Y-59396556D01*
X165034951Y-59405320D01*
X165159890Y-59577286D01*
X165310213Y-59727609D01*
X165482179Y-59852548D01*
X165482181Y-59852549D01*
X165482184Y-59852551D01*
X165671588Y-59949057D01*
X165873757Y-60014746D01*
X166083713Y-60048000D01*
X166083714Y-60048000D01*
X166296286Y-60048000D01*
X166296287Y-60048000D01*
X166506243Y-60014746D01*
X166708412Y-59949057D01*
X166897816Y-59852551D01*
X166919789Y-59836586D01*
X167069786Y-59727609D01*
X167069788Y-59727606D01*
X167069792Y-59727604D01*
X167220104Y-59577292D01*
X167220106Y-59577288D01*
X167220109Y-59577286D01*
X167345048Y-59405320D01*
X167345047Y-59405320D01*
X167345051Y-59405316D01*
X167349514Y-59396554D01*
X167397488Y-59345759D01*
X167465308Y-59328963D01*
X167531444Y-59351499D01*
X167570486Y-59396556D01*
X167574951Y-59405320D01*
X167699890Y-59577286D01*
X167850213Y-59727609D01*
X168022179Y-59852548D01*
X168022181Y-59852549D01*
X168022184Y-59852551D01*
X168211588Y-59949057D01*
X168413757Y-60014746D01*
X168623713Y-60048000D01*
X168623714Y-60048000D01*
X168836286Y-60048000D01*
X168836287Y-60048000D01*
X169046243Y-60014746D01*
X169248412Y-59949057D01*
X169437816Y-59852551D01*
X169459789Y-59836586D01*
X169609786Y-59727609D01*
X169609788Y-59727606D01*
X169609792Y-59727604D01*
X169760104Y-59577292D01*
X169760106Y-59577288D01*
X169760109Y-59577286D01*
X169885048Y-59405320D01*
X169885047Y-59405320D01*
X169885051Y-59405316D01*
X169889514Y-59396554D01*
X169937488Y-59345759D01*
X170005308Y-59328963D01*
X170071444Y-59351499D01*
X170110486Y-59396556D01*
X170114951Y-59405320D01*
X170239890Y-59577286D01*
X170390213Y-59727609D01*
X170562179Y-59852548D01*
X170562181Y-59852549D01*
X170562184Y-59852551D01*
X170751588Y-59949057D01*
X170953757Y-60014746D01*
X171163713Y-60048000D01*
X171163714Y-60048000D01*
X171376286Y-60048000D01*
X171376287Y-60048000D01*
X171586243Y-60014746D01*
X171788412Y-59949057D01*
X171977816Y-59852551D01*
X171999789Y-59836586D01*
X172149786Y-59727609D01*
X172149788Y-59727606D01*
X172149792Y-59727604D01*
X172300104Y-59577292D01*
X172300106Y-59577288D01*
X172300109Y-59577286D01*
X172425048Y-59405320D01*
X172425047Y-59405320D01*
X172425051Y-59405316D01*
X172429514Y-59396554D01*
X172477488Y-59345759D01*
X172545308Y-59328963D01*
X172611444Y-59351499D01*
X172650486Y-59396556D01*
X172654951Y-59405320D01*
X172779890Y-59577286D01*
X172930213Y-59727609D01*
X173102179Y-59852548D01*
X173102181Y-59852549D01*
X173102184Y-59852551D01*
X173291588Y-59949057D01*
X173493757Y-60014746D01*
X173703713Y-60048000D01*
X173703714Y-60048000D01*
X173916286Y-60048000D01*
X173916287Y-60048000D01*
X174126243Y-60014746D01*
X174328412Y-59949057D01*
X174517816Y-59852551D01*
X174539789Y-59836586D01*
X174689786Y-59727609D01*
X174689788Y-59727606D01*
X174689792Y-59727604D01*
X174840104Y-59577292D01*
X174840106Y-59577288D01*
X174840109Y-59577286D01*
X174965048Y-59405320D01*
X174965047Y-59405320D01*
X174965051Y-59405316D01*
X174969514Y-59396554D01*
X175017488Y-59345759D01*
X175085308Y-59328963D01*
X175151444Y-59351499D01*
X175190486Y-59396556D01*
X175194951Y-59405320D01*
X175319890Y-59577286D01*
X175470213Y-59727609D01*
X175642179Y-59852548D01*
X175642181Y-59852549D01*
X175642184Y-59852551D01*
X175831588Y-59949057D01*
X176033757Y-60014746D01*
X176243713Y-60048000D01*
X176243714Y-60048000D01*
X176456286Y-60048000D01*
X176456287Y-60048000D01*
X176666243Y-60014746D01*
X176868412Y-59949057D01*
X177057816Y-59852551D01*
X177079789Y-59836586D01*
X177229786Y-59727609D01*
X177229788Y-59727606D01*
X177229792Y-59727604D01*
X177380104Y-59577292D01*
X177380106Y-59577288D01*
X177380109Y-59577286D01*
X177505048Y-59405320D01*
X177505047Y-59405320D01*
X177505051Y-59405316D01*
X177509514Y-59396554D01*
X177557488Y-59345759D01*
X177625308Y-59328963D01*
X177691444Y-59351499D01*
X177730486Y-59396556D01*
X177734951Y-59405320D01*
X177859890Y-59577286D01*
X178010213Y-59727609D01*
X178182179Y-59852548D01*
X178182181Y-59852549D01*
X178182184Y-59852551D01*
X178371588Y-59949057D01*
X178573757Y-60014746D01*
X178783713Y-60048000D01*
X178783714Y-60048000D01*
X178996286Y-60048000D01*
X178996287Y-60048000D01*
X179206243Y-60014746D01*
X179408412Y-59949057D01*
X179584044Y-59859568D01*
X187499500Y-59859568D01*
X187499500Y-60140431D01*
X187530942Y-60419494D01*
X187530945Y-60419512D01*
X187593439Y-60693317D01*
X187593443Y-60693329D01*
X187686200Y-60958411D01*
X187808053Y-61211442D01*
X187808055Y-61211445D01*
X187957477Y-61449248D01*
X188132584Y-61668825D01*
X188331175Y-61867416D01*
X188550752Y-62042523D01*
X188788555Y-62191945D01*
X189041592Y-62313801D01*
X189240680Y-62383465D01*
X189306670Y-62406556D01*
X189306682Y-62406560D01*
X189580491Y-62469055D01*
X189580497Y-62469055D01*
X189580505Y-62469057D01*
X189766547Y-62490018D01*
X189859569Y-62500499D01*
X189859572Y-62500500D01*
X189859575Y-62500500D01*
X190140428Y-62500500D01*
X190140429Y-62500499D01*
X190283055Y-62484429D01*
X190419494Y-62469057D01*
X190419499Y-62469056D01*
X190419509Y-62469055D01*
X190693318Y-62406560D01*
X190958408Y-62313801D01*
X191211445Y-62191945D01*
X191449248Y-62042523D01*
X191668825Y-61867416D01*
X191867416Y-61668825D01*
X192042523Y-61449248D01*
X192191945Y-61211445D01*
X192313801Y-60958408D01*
X192406560Y-60693318D01*
X192469055Y-60419509D01*
X192500500Y-60140425D01*
X192500500Y-59859575D01*
X192473150Y-59616831D01*
X192469057Y-59580505D01*
X192469054Y-59580487D01*
X192429072Y-59405316D01*
X192406560Y-59306682D01*
X192313801Y-59041592D01*
X192191945Y-58788555D01*
X192042523Y-58550752D01*
X191867416Y-58331175D01*
X191668825Y-58132584D01*
X191449248Y-57957477D01*
X191211445Y-57808055D01*
X191211442Y-57808053D01*
X190958411Y-57686200D01*
X190693329Y-57593443D01*
X190693317Y-57593439D01*
X190419512Y-57530945D01*
X190419494Y-57530942D01*
X190140431Y-57499500D01*
X190140425Y-57499500D01*
X189859575Y-57499500D01*
X189859568Y-57499500D01*
X189580505Y-57530942D01*
X189580487Y-57530945D01*
X189306682Y-57593439D01*
X189306670Y-57593443D01*
X189041588Y-57686200D01*
X188788557Y-57808053D01*
X188550753Y-57957476D01*
X188331175Y-58132583D01*
X188132583Y-58331175D01*
X187957476Y-58550753D01*
X187808053Y-58788557D01*
X187686200Y-59041588D01*
X187593443Y-59306670D01*
X187593439Y-59306682D01*
X187530945Y-59580487D01*
X187530942Y-59580505D01*
X187499500Y-59859568D01*
X179584044Y-59859568D01*
X179597816Y-59852551D01*
X179608669Y-59844665D01*
X179731015Y-59755778D01*
X179769785Y-59727609D01*
X179769783Y-59727609D01*
X179769792Y-59727604D01*
X179920104Y-59577292D01*
X179920106Y-59577288D01*
X179920109Y-59577286D01*
X180045048Y-59405320D01*
X180045047Y-59405320D01*
X180045051Y-59405316D01*
X180141557Y-59215912D01*
X180207246Y-59013743D01*
X180240500Y-58803787D01*
X180240500Y-58591213D01*
X180207246Y-58381257D01*
X180141557Y-58179088D01*
X180045051Y-57989684D01*
X180045049Y-57989681D01*
X180045048Y-57989679D01*
X179920109Y-57817713D01*
X179769786Y-57667390D01*
X179597817Y-57542449D01*
X179588504Y-57537704D01*
X179537707Y-57489730D01*
X179520912Y-57421909D01*
X179543449Y-57355774D01*
X179588507Y-57316732D01*
X179597555Y-57312122D01*
X179651716Y-57272770D01*
X179651717Y-57272770D01*
X179019408Y-56640462D01*
X179082993Y-56623425D01*
X179197007Y-56557599D01*
X179290099Y-56464507D01*
X179355925Y-56350493D01*
X179372962Y-56286909D01*
X180005270Y-56919217D01*
X180005270Y-56919216D01*
X180044622Y-56865054D01*
X180141095Y-56675717D01*
X180206757Y-56473630D01*
X180206757Y-56473627D01*
X180240000Y-56263746D01*
X180240000Y-56051253D01*
X180206757Y-55841372D01*
X180206757Y-55841369D01*
X180141095Y-55639282D01*
X180044624Y-55449949D01*
X180005270Y-55395782D01*
X180005269Y-55395782D01*
X179372962Y-56028090D01*
X179355925Y-55964507D01*
X179290099Y-55850493D01*
X179197007Y-55757401D01*
X179082993Y-55691575D01*
X179019409Y-55674537D01*
X179651716Y-55042228D01*
X179597550Y-55002875D01*
X179408217Y-54906404D01*
X179206129Y-54840742D01*
X178996246Y-54807500D01*
X178783754Y-54807500D01*
X178573872Y-54840742D01*
X178573869Y-54840742D01*
X178371782Y-54906404D01*
X178182439Y-55002880D01*
X178128282Y-55042227D01*
X178128282Y-55042228D01*
X178760591Y-55674537D01*
X178697007Y-55691575D01*
X178582993Y-55757401D01*
X178489901Y-55850493D01*
X178424075Y-55964507D01*
X178407037Y-56028091D01*
X177774728Y-55395782D01*
X177774727Y-55395782D01*
X177735380Y-55449940D01*
X177730483Y-55459551D01*
X177682506Y-55510345D01*
X177614684Y-55527138D01*
X177548550Y-55504598D01*
X177509516Y-55459548D01*
X177504626Y-55449952D01*
X177465270Y-55395782D01*
X177465269Y-55395782D01*
X176832962Y-56028090D01*
X176815925Y-55964507D01*
X176750099Y-55850493D01*
X176657007Y-55757401D01*
X176542993Y-55691575D01*
X176479409Y-55674537D01*
X177111716Y-55042228D01*
X177057550Y-55002875D01*
X176868217Y-54906404D01*
X176666129Y-54840742D01*
X176456246Y-54807500D01*
X176243754Y-54807500D01*
X176033872Y-54840742D01*
X176033869Y-54840742D01*
X175831782Y-54906404D01*
X175642439Y-55002880D01*
X175588282Y-55042227D01*
X175588282Y-55042228D01*
X176220591Y-55674537D01*
X176157007Y-55691575D01*
X176042993Y-55757401D01*
X175949901Y-55850493D01*
X175884075Y-55964507D01*
X175867037Y-56028091D01*
X175234728Y-55395782D01*
X175234727Y-55395782D01*
X175195380Y-55449940D01*
X175195376Y-55449946D01*
X175190760Y-55459005D01*
X175142781Y-55509797D01*
X175074959Y-55526587D01*
X175008826Y-55504043D01*
X174969794Y-55458993D01*
X174965051Y-55449684D01*
X174965049Y-55449681D01*
X174965048Y-55449679D01*
X174840109Y-55277713D01*
X174689786Y-55127390D01*
X174517820Y-55002451D01*
X174328414Y-54905944D01*
X174328413Y-54905943D01*
X174328412Y-54905943D01*
X174126243Y-54840254D01*
X174126241Y-54840253D01*
X174126240Y-54840253D01*
X173964957Y-54814708D01*
X173916287Y-54807000D01*
X173703713Y-54807000D01*
X173655042Y-54814708D01*
X173493760Y-54840253D01*
X173291585Y-54905944D01*
X173102179Y-55002451D01*
X172930213Y-55127390D01*
X172779890Y-55277713D01*
X172654949Y-55449682D01*
X172650484Y-55458446D01*
X172602509Y-55509242D01*
X172534688Y-55526036D01*
X172468553Y-55503498D01*
X172429516Y-55458446D01*
X172425050Y-55449682D01*
X172300109Y-55277713D01*
X172149786Y-55127390D01*
X171977820Y-55002451D01*
X171788414Y-54905944D01*
X171788413Y-54905943D01*
X171788412Y-54905943D01*
X171586243Y-54840254D01*
X171586241Y-54840253D01*
X171586240Y-54840253D01*
X171424957Y-54814708D01*
X171376287Y-54807000D01*
X171163713Y-54807000D01*
X171115042Y-54814708D01*
X170953760Y-54840253D01*
X170751585Y-54905944D01*
X170562179Y-55002451D01*
X170390213Y-55127390D01*
X170239890Y-55277713D01*
X170114949Y-55449682D01*
X170110484Y-55458446D01*
X170062509Y-55509242D01*
X169994688Y-55526036D01*
X169928553Y-55503498D01*
X169889516Y-55458446D01*
X169885050Y-55449682D01*
X169760109Y-55277713D01*
X169609786Y-55127390D01*
X169437820Y-55002451D01*
X169248414Y-54905944D01*
X169248413Y-54905943D01*
X169248412Y-54905943D01*
X169046243Y-54840254D01*
X169046241Y-54840253D01*
X169046240Y-54840253D01*
X168884957Y-54814708D01*
X168836287Y-54807000D01*
X168623713Y-54807000D01*
X168575042Y-54814708D01*
X168413760Y-54840253D01*
X168211585Y-54905944D01*
X168022179Y-55002451D01*
X167850213Y-55127390D01*
X167699890Y-55277713D01*
X167574949Y-55449682D01*
X167570484Y-55458446D01*
X167522509Y-55509242D01*
X167454688Y-55526036D01*
X167388553Y-55503498D01*
X167349516Y-55458446D01*
X167345050Y-55449682D01*
X167220109Y-55277713D01*
X167069786Y-55127390D01*
X166897820Y-55002451D01*
X166708414Y-54905944D01*
X166708413Y-54905943D01*
X166708412Y-54905943D01*
X166506243Y-54840254D01*
X166506241Y-54840253D01*
X166506240Y-54840253D01*
X166344957Y-54814708D01*
X166296287Y-54807000D01*
X166083713Y-54807000D01*
X166035042Y-54814708D01*
X165873760Y-54840253D01*
X165671585Y-54905944D01*
X165482179Y-55002451D01*
X165310213Y-55127390D01*
X165159890Y-55277713D01*
X165034949Y-55449682D01*
X165030202Y-55458999D01*
X164982227Y-55509793D01*
X164914405Y-55526587D01*
X164848271Y-55504048D01*
X164809234Y-55458995D01*
X164804626Y-55449952D01*
X164765270Y-55395782D01*
X164765269Y-55395782D01*
X164132962Y-56028090D01*
X164115925Y-55964507D01*
X164050099Y-55850493D01*
X163957007Y-55757401D01*
X163842993Y-55691575D01*
X163779409Y-55674537D01*
X164411716Y-55042228D01*
X164357550Y-55002875D01*
X164168217Y-54906404D01*
X163966129Y-54840742D01*
X163756246Y-54807500D01*
X163543754Y-54807500D01*
X163333872Y-54840742D01*
X163333869Y-54840742D01*
X163131782Y-54906404D01*
X162942439Y-55002880D01*
X162888282Y-55042227D01*
X162888282Y-55042228D01*
X163520591Y-55674537D01*
X163457007Y-55691575D01*
X163342993Y-55757401D01*
X163249901Y-55850493D01*
X163184075Y-55964507D01*
X163167037Y-56028091D01*
X162534728Y-55395782D01*
X162534727Y-55395782D01*
X162495380Y-55449940D01*
X162490483Y-55459551D01*
X162442506Y-55510345D01*
X162374684Y-55527138D01*
X162308550Y-55504598D01*
X162269516Y-55459548D01*
X162264626Y-55449952D01*
X162225270Y-55395782D01*
X162225269Y-55395782D01*
X161592962Y-56028090D01*
X161575925Y-55964507D01*
X161510099Y-55850493D01*
X161417007Y-55757401D01*
X161302993Y-55691575D01*
X161239409Y-55674537D01*
X161871716Y-55042228D01*
X161817550Y-55002875D01*
X161628217Y-54906404D01*
X161426129Y-54840742D01*
X161216246Y-54807500D01*
X161003754Y-54807500D01*
X160793872Y-54840742D01*
X160793869Y-54840742D01*
X160591782Y-54906404D01*
X160402439Y-55002880D01*
X160348282Y-55042227D01*
X160348282Y-55042228D01*
X160980591Y-55674537D01*
X160917007Y-55691575D01*
X160802993Y-55757401D01*
X160709901Y-55850493D01*
X160644075Y-55964507D01*
X160627037Y-56028091D01*
X159994728Y-55395782D01*
X159994727Y-55395782D01*
X159955380Y-55449939D01*
X159858904Y-55639282D01*
X159793242Y-55841369D01*
X159793242Y-55841372D01*
X159760000Y-56051253D01*
X159760000Y-56263746D01*
X159793242Y-56473627D01*
X159793242Y-56473630D01*
X159858904Y-56675717D01*
X159955375Y-56865050D01*
X159994728Y-56919216D01*
X160627037Y-56286908D01*
X160644075Y-56350493D01*
X160709901Y-56464507D01*
X160802993Y-56557599D01*
X160917007Y-56623425D01*
X160980590Y-56640462D01*
X160344110Y-57276941D01*
X160333020Y-57329735D01*
X160283969Y-57379492D01*
X160262773Y-57388791D01*
X160201618Y-57409057D01*
X160190666Y-57412686D01*
X160190663Y-57412687D01*
X160041342Y-57504789D01*
X159917289Y-57628842D01*
X159825187Y-57778163D01*
X159825185Y-57778168D01*
X159815282Y-57808053D01*
X159770001Y-57944703D01*
X159770001Y-57944704D01*
X159770000Y-57944704D01*
X159759500Y-58047483D01*
X111562112Y-58047483D01*
X111449248Y-57957477D01*
X111211445Y-57808055D01*
X111211442Y-57808053D01*
X110958411Y-57686200D01*
X110693329Y-57593443D01*
X110693317Y-57593439D01*
X110419512Y-57530945D01*
X110419494Y-57530942D01*
X110140431Y-57499500D01*
X110140425Y-57499500D01*
X109859575Y-57499500D01*
X109859568Y-57499500D01*
X109580505Y-57530942D01*
X109580487Y-57530945D01*
X109306682Y-57593439D01*
X109306670Y-57593443D01*
X109041588Y-57686200D01*
X108788557Y-57808053D01*
X108550753Y-57957476D01*
X108331175Y-58132583D01*
X108132583Y-58331175D01*
X107957476Y-58550753D01*
X107808053Y-58788557D01*
X107686200Y-59041588D01*
X107593443Y-59306670D01*
X107593439Y-59306682D01*
X107530945Y-59580487D01*
X107530942Y-59580505D01*
X107499500Y-59859568D01*
X101000000Y-59859568D01*
X101000000Y-55051362D01*
X101019685Y-54984323D01*
X101036319Y-54963681D01*
X104963681Y-51036319D01*
X105025004Y-51002834D01*
X105051362Y-51000000D01*
X194948638Y-51000000D01*
X195015677Y-51019685D01*
G37*
%TD.AperFunction*%
%TD*%
M02*
