M48
; DRILL file {KiCad 9.0.7} date 2026-02-03T14:20:59+0100
; FORMAT={-:-/ absolute / metric / decimal}
; #@! TF.CreationDate,2026-02-03T14:20:59+01:00
; #@! TF.GenerationSoftware,Kicad,Pcbnew,9.0.7
; #@! TF.FileFunction,Plated,1,2,PTH
FMAT,2
METRIC
; #@! TA.AperFunction,Plated,PTH,ViaDrill
T1C0.600
; #@! TA.AperFunction,Plated,PTH,ComponentDrill
T2C0.800
; #@! TA.AperFunction,Plated,PTH,ComponentDrill
T3C1.000
; #@! TA.AperFunction,Plated,PTH,ComponentDrill
T4C1.100
%
G90
G05
T1
X113.97Y-75.4
X160.96Y-74.13
X163.5Y-71.59
X166.04Y-72.86
X167.31Y-76.67
X167.31Y-85.56
X167.31Y-127.47
X168.58Y-70.32
X171.12Y-69.05
X173.66Y-67.78
X176.2Y-66.51
X178.74Y-65.24
T2
X116.55Y-79.21
X120.32Y-67.78
X120.32Y-71.28
X121.55Y-79.21
X183.86Y-130.01
X184.275Y-121.12
X187.775Y-121.12
X188.86Y-130.01
T3
X103.81Y-88.1
X103.81Y-105.88
X106.35Y-88.1
X106.35Y-105.88
X108.89Y-88.1
X108.89Y-105.88
X111.43Y-88.1
X111.43Y-105.88
X113.97Y-88.1
X113.97Y-105.88
X116.51Y-88.1
X116.51Y-105.88
X119.05Y-88.1
X119.05Y-105.88
X120.32Y-135.09
X120.32Y-137.63
X121.59Y-88.1
X121.59Y-105.88
X122.86Y-135.09
X122.86Y-137.63
X124.13Y-88.1
X124.13Y-105.88
X125.4Y-135.09
X125.4Y-137.63
X126.67Y-88.1
X126.67Y-105.88
X127.94Y-135.09
X127.94Y-137.63
X129.21Y-88.1
X129.21Y-105.88
X130.48Y-135.09
X130.48Y-137.63
X131.75Y-88.1
X131.75Y-105.88
X134.29Y-88.1
X134.29Y-105.88
X136.83Y-88.1
X136.83Y-105.88
X138.1Y-135.09
X138.1Y-137.63
X139.37Y-88.1
X139.37Y-105.88
X140.64Y-135.09
X140.64Y-137.63
X141.91Y-88.1
X141.91Y-105.88
X143.18Y-135.09
X143.18Y-137.63
X144.45Y-88.1
X144.45Y-105.88
X145.72Y-135.09
X145.72Y-137.63
X146.99Y-88.1
X146.99Y-105.88
X148.26Y-135.09
X148.26Y-137.63
X149.53Y-88.1
X149.53Y-105.88
X150.8Y-135.09
X150.8Y-137.63
X152.07Y-88.1
X152.07Y-105.88
X153.34Y-135.09
X153.34Y-137.63
X155.88Y-135.09
X155.88Y-137.63
X158.42Y-135.09
X158.42Y-137.63
X160.96Y-135.09
X160.96Y-137.63
X161.11Y-56.157
X161.11Y-58.697
X163.65Y-56.157
X163.65Y-58.697
X166.19Y-56.157
X166.19Y-58.697
X168.58Y-135.09
X168.58Y-137.63
X168.73Y-56.157
X168.73Y-58.697
X171.12Y-135.09
X171.12Y-137.63
X171.27Y-56.157
X171.27Y-58.697
X173.66Y-135.09
X173.66Y-137.63
X173.81Y-56.157
X173.81Y-58.697
X176.2Y-135.09
X176.2Y-137.63
X176.35Y-56.157
X176.35Y-58.697
X178.74Y-135.09
X178.74Y-137.63
X178.89Y-56.157
X178.89Y-58.697
T4
X105.37Y-73.42
X105.37Y-79.92
X109.87Y-73.42
X109.87Y-79.92
M30
