%TF.GenerationSoftware,KiCad,Pcbnew,9.0.7*%
%TF.CreationDate,2026-02-03T14:22:32+01:00*%
%TF.ProjectId,lokho2-adc,6c6f6b68-6f32-42d6-9164-632e6b696361,rev?*%
%TF.SameCoordinates,Original*%
%TF.FileFunction,Soldermask,Top*%
%TF.FilePolarity,Negative*%
%FSLAX46Y46*%
G04 Gerber Fmt 4.6, Leading zero omitted, Abs format (unit mm)*
G04 Created by KiCad (PCBNEW 9.0.7) date 2026-02-03 14:22:32*
%MOMM*%
%LPD*%
G01*
G04 APERTURE LIST*
G04 Aperture macros list*
%AMRoundRect*
0 Rectangle with rounded corners*
0 $1 Rounding radius*
0 $2 $3 $4 $5 $6 $7 $8 $9 X,Y pos of 4 corners*
0 Add a 4 corners polygon primitive as box body*
4,1,4,$2,$3,$4,$5,$6,$7,$8,$9,$2,$3,0*
0 Add four circle primitives for the rounded corners*
1,1,$1+$1,$2,$3*
1,1,$1+$1,$4,$5*
1,1,$1+$1,$6,$7*
1,1,$1+$1,$8,$9*
0 Add four rect primitives between the rounded corners*
20,1,$1+$1,$2,$3,$4,$5,0*
20,1,$1+$1,$4,$5,$6,$7,0*
20,1,$1+$1,$6,$7,$8,$9,0*
20,1,$1+$1,$8,$9,$2,$3,0*%
G04 Aperture macros list end*
%ADD10C,4.000000*%
%ADD11R,1.800000X1.800000*%
%ADD12C,1.800000*%
%ADD13C,1.600000*%
%ADD14C,1.400000*%
%ADD15RoundRect,0.250000X-0.550000X-0.550000X0.550000X-0.550000X0.550000X0.550000X-0.550000X0.550000X0*%
%ADD16R,1.700000X1.700000*%
%ADD17C,1.700000*%
%ADD18RoundRect,0.250000X0.600000X-0.600000X0.600000X0.600000X-0.600000X0.600000X-0.600000X-0.600000X0*%
%ADD19RoundRect,0.150000X0.587500X0.150000X-0.587500X0.150000X-0.587500X-0.150000X0.587500X-0.150000X0*%
%ADD20RoundRect,0.150000X-0.725000X-0.150000X0.725000X-0.150000X0.725000X0.150000X-0.725000X0.150000X0*%
%ADD21RoundRect,0.150000X-0.150000X0.587500X-0.150000X-0.587500X0.150000X-0.587500X0.150000X0.587500X0*%
%ADD22RoundRect,0.250000X0.550000X-0.550000X0.550000X0.550000X-0.550000X0.550000X-0.550000X-0.550000X0*%
%ADD23RoundRect,0.250000X0.550000X0.550000X-0.550000X0.550000X-0.550000X-0.550000X0.550000X-0.550000X0*%
G04 APERTURE END LIST*
D10*
X193500000Y-70000000D02*
G75*
G02*
X186500000Y-70000000I-3500000J0D01*
G01*
X186500000Y-70000000D02*
G75*
G02*
X193500000Y-70000000I3500000J0D01*
G01*
X113500000Y-70000000D02*
G75*
G02*
X106500000Y-70000000I-3500000J0D01*
G01*
X106500000Y-70000000D02*
G75*
G02*
X113500000Y-70000000I3500000J0D01*
G01*
D11*
%TO.C,D1*%
X116730000Y-63000000D03*
D12*
X119270000Y-63000000D03*
%TD*%
D13*
%TO.C,C3*%
X143855000Y-80955000D03*
X148855000Y-80955000D03*
%TD*%
%TO.C,C9*%
X125480000Y-91750000D03*
X130480000Y-91750000D03*
%TD*%
D14*
%TO.C,R11*%
X148260000Y-145725000D03*
X155880000Y-145725000D03*
%TD*%
%TO.C,R9*%
X117780000Y-145725000D03*
X125400000Y-145725000D03*
%TD*%
%TO.C,R2*%
X186360000Y-84765000D03*
X178740000Y-84765000D03*
%TD*%
D15*
%TO.C,U3*%
X137465000Y-89210000D03*
D13*
X137465000Y-91750000D03*
X137465000Y-94290000D03*
X137465000Y-96830000D03*
X137465000Y-99370000D03*
X137465000Y-101910000D03*
X137465000Y-104450000D03*
X137465000Y-106990000D03*
X145085000Y-106990000D03*
X145085000Y-104450000D03*
X145085000Y-101910000D03*
X145085000Y-99370000D03*
X145085000Y-96830000D03*
X145085000Y-94290000D03*
X145085000Y-91750000D03*
X145085000Y-89210000D03*
%TD*%
%TO.C,C7*%
X191400000Y-139375000D03*
X186400000Y-139375000D03*
%TD*%
D14*
%TO.C,R4*%
X186360000Y-79685000D03*
X178740000Y-79685000D03*
%TD*%
%TO.C,R6*%
X157150000Y-86670000D03*
X157150000Y-79050000D03*
%TD*%
D16*
%TO.C,J2*%
X140640000Y-148900000D03*
D17*
X138100000Y-148900000D03*
X135560000Y-148900000D03*
X133020000Y-148900000D03*
%TD*%
D18*
%TO.C,SPI1*%
X161110000Y-68697500D03*
D17*
X161110000Y-66157500D03*
X163650000Y-68697500D03*
X163650000Y-66157500D03*
X166190000Y-68697500D03*
X166190000Y-66157500D03*
X168730000Y-68697500D03*
X168730000Y-66157500D03*
X171270000Y-68697500D03*
X171270000Y-66157500D03*
X173810000Y-68697500D03*
X173810000Y-66157500D03*
X176350000Y-68697500D03*
X176350000Y-66157500D03*
X178890000Y-68697500D03*
X178890000Y-66157500D03*
%TD*%
D13*
%TO.C,C8*%
X125480000Y-89210000D03*
X130480000Y-89210000D03*
%TD*%
D14*
%TO.C,R1*%
X186360000Y-87305000D03*
X178740000Y-87305000D03*
%TD*%
D16*
%TO.C,J7*%
X163500000Y-120960000D03*
D17*
X160960000Y-120960000D03*
X158420000Y-120960000D03*
X155880000Y-120960000D03*
%TD*%
D19*
%TO.C,U2*%
X140307500Y-82540000D03*
X140307500Y-80640000D03*
X138432500Y-81590000D03*
%TD*%
D20*
%TO.C,U1*%
X166005000Y-78415000D03*
X166005000Y-79685000D03*
X166005000Y-80955000D03*
X166005000Y-82225000D03*
X166005000Y-83495000D03*
X166005000Y-84765000D03*
X166005000Y-86035000D03*
X166005000Y-87305000D03*
X171155000Y-87305000D03*
X171155000Y-86035000D03*
X171155000Y-84765000D03*
X171155000Y-83495000D03*
X171155000Y-82225000D03*
X171155000Y-80955000D03*
X171155000Y-79685000D03*
X171155000Y-78415000D03*
%TD*%
D14*
%TO.C,R7*%
X125400000Y-68890000D03*
X117780000Y-68890000D03*
%TD*%
%TO.C,R12*%
X163500000Y-145725000D03*
X171120000Y-145725000D03*
%TD*%
%TO.C,R3*%
X186360000Y-82225000D03*
X178740000Y-82225000D03*
%TD*%
D16*
%TO.C,J6*%
X148260000Y-120960000D03*
D17*
X145720000Y-120960000D03*
X143180000Y-120960000D03*
X140640000Y-120960000D03*
%TD*%
D13*
%TO.C,C15*%
X125480000Y-106990000D03*
X130480000Y-106990000D03*
%TD*%
D21*
%TO.C,Q1*%
X159370000Y-89542500D03*
X157470000Y-89542500D03*
X158420000Y-91417500D03*
%TD*%
D15*
%TO.C,C6*%
X187247349Y-133025000D03*
D13*
X190747349Y-133025000D03*
%TD*%
D16*
%TO.C,J3*%
X155880000Y-148900000D03*
D17*
X153340000Y-148900000D03*
X150800000Y-148900000D03*
X148260000Y-148900000D03*
%TD*%
D14*
%TO.C,R10*%
X133020000Y-145725000D03*
X140640000Y-145725000D03*
%TD*%
%TO.C,R15*%
X155880000Y-117785000D03*
X163500000Y-117785000D03*
%TD*%
D22*
%TO.C,C1*%
X150165000Y-73082651D03*
D13*
X150165000Y-69582651D03*
%TD*%
%TO.C,C11*%
X125480000Y-96830000D03*
X130480000Y-96830000D03*
%TD*%
D16*
%TO.C,J5*%
X133020000Y-120960000D03*
D17*
X130480000Y-120960000D03*
X127940000Y-120960000D03*
X125400000Y-120960000D03*
%TD*%
D14*
%TO.C,R14*%
X140640000Y-117785000D03*
X148260000Y-117785000D03*
%TD*%
D23*
%TO.C,SW1*%
X196520000Y-87305000D03*
D13*
X196520000Y-84765000D03*
X196520000Y-82225000D03*
X196520000Y-79685000D03*
X188900000Y-79685000D03*
X188900000Y-82225000D03*
X188900000Y-84765000D03*
X188900000Y-87305000D03*
%TD*%
%TO.C,C13*%
X125480000Y-101910000D03*
X130480000Y-101910000D03*
%TD*%
D16*
%TO.C,J1*%
X125400000Y-148900000D03*
D17*
X122860000Y-148900000D03*
X120320000Y-148900000D03*
X117780000Y-148900000D03*
%TD*%
D13*
%TO.C,C2*%
X143815000Y-68930000D03*
X143815000Y-73930000D03*
%TD*%
D16*
%TO.C,J8*%
X178740000Y-120960000D03*
D17*
X176200000Y-120960000D03*
X173660000Y-120960000D03*
X171120000Y-120960000D03*
%TD*%
D16*
%TO.C,J9*%
X181280000Y-148900000D03*
D17*
X178740000Y-148900000D03*
%TD*%
D13*
%TO.C,C10*%
X125480000Y-94290000D03*
X130480000Y-94290000D03*
%TD*%
%TO.C,C5*%
X112740000Y-129850000D03*
X117740000Y-129850000D03*
%TD*%
D23*
%TO.C,C4*%
X116892651Y-136200000D03*
D13*
X113392651Y-136200000D03*
%TD*%
%TO.C,C12*%
X125480000Y-99370000D03*
X130480000Y-99370000D03*
%TD*%
D14*
%TO.C,R5*%
X159690000Y-79050000D03*
X159690000Y-86670000D03*
%TD*%
%TO.C,R16*%
X171120000Y-117785000D03*
X178740000Y-117785000D03*
%TD*%
D16*
%TO.C,J4*%
X171120000Y-148900000D03*
D17*
X168580000Y-148900000D03*
X166040000Y-148900000D03*
X163500000Y-148900000D03*
%TD*%
D14*
%TO.C,R13*%
X125400000Y-117785000D03*
X133020000Y-117785000D03*
%TD*%
D13*
%TO.C,C14*%
X125480000Y-104450000D03*
X130480000Y-104450000D03*
%TD*%
D14*
%TO.C,R8*%
X151435000Y-84765000D03*
X143815000Y-84765000D03*
%TD*%
M02*
