M48
; DRILL file {KiCad 9.0.7} date 2026-02-03T14:22:35+0100
; FORMAT={-:-/ absolute / metric / decimal}
; #@! TF.CreationDate,2026-02-03T14:22:35+01:00
; #@! TF.GenerationSoftware,Kicad,Pcbnew,9.0.7
; #@! TF.FileFunction,Plated,1,2,PTH
FMAT,2
METRIC
; #@! TA.AperFunction,Plated,PTH,ViaDrill
T1C0.400
; #@! TA.AperFunction,Plated,PTH,ComponentDrill
T2C0.700
; #@! TA.AperFunction,Plated,PTH,ComponentDrill
T3C0.800
; #@! TA.AperFunction,Plated,PTH,ComponentDrill
T4C0.900
; #@! TA.AperFunction,Plated,PTH,ComponentDrill
T5C1.000
%
G90
G05
T1
X119.05Y-115.245
X125.4Y-143.185
X133.02Y-115.245
X140.64Y-143.185
X148.26Y-115.245
X150.145Y-82.245
X151.435Y-91.75
X155.88Y-143.185
X158.42Y-104.45
X162.865Y-77.78
X162.865Y-79.685
X162.865Y-82.225
X162.865Y-87.305
X163.5Y-115.245
X171.12Y-143.185
X174.93Y-79.685
X174.93Y-82.225
X174.93Y-83.495
X174.93Y-86.035
X178.74Y-115.245
T2
X117.78Y-68.89
X117.78Y-145.725
X125.4Y-68.89
X125.4Y-117.785
X125.4Y-145.725
X133.02Y-117.785
X133.02Y-145.725
X140.64Y-117.785
X140.64Y-145.725
X143.815Y-84.765
X148.26Y-117.785
X148.26Y-145.725
X151.435Y-84.765
X155.88Y-117.785
X155.88Y-145.725
X157.15Y-79.05
X157.15Y-86.67
X159.69Y-79.05
X159.69Y-86.67
X163.5Y-117.785
X163.5Y-145.725
X171.12Y-117.785
X171.12Y-145.725
X178.74Y-79.685
X178.74Y-82.225
X178.74Y-84.765
X178.74Y-87.305
X178.74Y-117.785
X186.36Y-79.685
X186.36Y-82.225
X186.36Y-84.765
X186.36Y-87.305
T3
X112.74Y-129.85
X113.393Y-136.2
X116.893Y-136.2
X117.74Y-129.85
X125.48Y-89.21
X125.48Y-91.75
X125.48Y-94.29
X125.48Y-96.83
X125.48Y-99.37
X125.48Y-101.91
X125.48Y-104.45
X125.48Y-106.99
X130.48Y-89.21
X130.48Y-91.75
X130.48Y-94.29
X130.48Y-96.83
X130.48Y-99.37
X130.48Y-101.91
X130.48Y-104.45
X130.48Y-106.99
X137.465Y-89.21
X137.465Y-91.75
X137.465Y-94.29
X137.465Y-96.83
X137.465Y-99.37
X137.465Y-101.91
X137.465Y-104.45
X137.465Y-106.99
X143.815Y-68.93
X143.815Y-73.93
X143.855Y-80.955
X145.085Y-89.21
X145.085Y-91.75
X145.085Y-94.29
X145.085Y-96.83
X145.085Y-99.37
X145.085Y-101.91
X145.085Y-104.45
X145.085Y-106.99
X148.855Y-80.955
X150.165Y-69.583
X150.165Y-73.083
X186.4Y-139.375
X187.247Y-133.025
X188.9Y-79.685
X188.9Y-82.225
X188.9Y-84.765
X188.9Y-87.305
X190.747Y-133.025
X191.4Y-139.375
X196.52Y-79.685
X196.52Y-82.225
X196.52Y-84.765
X196.52Y-87.305
T4
X116.73Y-63.0
X119.27Y-63.0
T5
X117.78Y-148.9
X120.32Y-148.9
X122.86Y-148.9
X125.4Y-120.96
X125.4Y-148.9
X127.94Y-120.96
X130.48Y-120.96
X133.02Y-120.96
X133.02Y-148.9
X135.56Y-148.9
X138.1Y-148.9
X140.64Y-120.96
X140.64Y-148.9
X143.18Y-120.96
X145.72Y-120.96
X148.26Y-120.96
X148.26Y-148.9
X150.8Y-148.9
X153.34Y-148.9
X155.88Y-120.96
X155.88Y-148.9
X158.42Y-120.96
X160.96Y-120.96
X161.11Y-66.157
X161.11Y-68.697
X163.5Y-120.96
X163.5Y-148.9
X163.65Y-66.157
X163.65Y-68.697
X166.04Y-148.9
X166.19Y-66.157
X166.19Y-68.697
X168.58Y-148.9
X168.73Y-66.157
X168.73Y-68.697
X171.12Y-120.96
X171.12Y-148.9
X171.27Y-66.157
X171.27Y-68.697
X173.66Y-120.96
X173.81Y-66.157
X173.81Y-68.697
X176.2Y-120.96
X176.35Y-66.157
X176.35Y-68.697
X178.74Y-120.96
X178.74Y-148.9
X178.89Y-66.157
X178.89Y-68.697
X181.28Y-148.9
M30
